<svg id="visual" viewBox="0 0 675 900" width="675" height="900" xmlns="http://www.w3.org/2000/svg" xmlns:xlink="http://www.w3.org/1999/xlink" version="1.1"><g stroke-width="1" stroke-linejoin="bevel"><path d="M337.8 459.7L296.8 461.3L337.3 473.7Z" fill="#1c1917" stroke="#1c1917"></path><path d="M337.8 459.7L303.5 445.7L296.8 461.3Z" fill="#704820" stroke="#704820"></path><path d="M303.5 445.7L287 466L296.8 461.3Z" fill="#1c1917" stroke="#1c1917"></path><path d="M296.8 461.3L280.8 504.3L337.3 473.7Z" fill="#f59e0b" stroke="#f59e0b"></path><path d="M287 466L280.8 504.3L296.8 461.3Z" fill="#704820" stroke="#704820"></path><path d="M337.3 473.7L371 448.3L337.8 459.7Z" fill="#452f1d" stroke="#452f1d"></path><path d="M337.8 459.7L327.5 409.3L303.5 445.7Z" fill="#f59e0b" stroke="#f59e0b"></path><path d="M371 448.3L327.5 409.3L337.8 459.7Z" fill="#452f1d" stroke="#452f1d"></path><path d="M303.5 445.7L260.3 444.7L287 466Z" fill="#704820" stroke="#704820"></path><path d="M304 406.3L260.3 444.7L303.5 445.7Z" fill="#865521" stroke="#865521"></path><path d="M287 466L231 460.7L280.8 504.3Z" fill="#5b3b1f" stroke="#5b3b1f"></path><path d="M327.5 409.3L304 406.3L303.5 445.7Z" fill="#df8e16" stroke="#df8e16"></path><path d="M280.8 504.3L352.5 517L337.3 473.7Z" fill="#1c1917" stroke="#1c1917"></path><path d="M337.3 473.7L377.3 498L371 448.3Z" fill="#df8e16" stroke="#df8e16"></path><path d="M352.5 517L377.3 498L337.3 473.7Z" fill="#5b3b1f" stroke="#5b3b1f"></path><path d="M408.8 407L375.3 409.3L371 448.3Z" fill="#b2711f" stroke="#b2711f"></path><path d="M371 448.3L375.3 409.3L327.5 409.3Z" fill="#5b3b1f" stroke="#5b3b1f"></path><path d="M327.5 409.3L287.8 367L304 406.3Z" fill="#c87f1c" stroke="#c87f1c"></path><path d="M247.3 527.3L263.8 528L280.8 504.3Z" fill="#f59e0b" stroke="#f59e0b"></path><path d="M280.8 504.3L310.5 562.3L352.5 517Z" fill="#704820" stroke="#704820"></path><path d="M231.5 431.3L231 460.7L260.3 444.7Z" fill="#9c6321" stroke="#9c6321"></path><path d="M260.3 444.7L231 460.7L287 466Z" fill="#1c1917" stroke="#1c1917"></path><path d="M263.8 528L273.8 547.7L280.8 504.3Z" fill="#f59e0b" stroke="#f59e0b"></path><path d="M304 406.3L231.5 431.3L260.3 444.7Z" fill="#f59e0b" stroke="#f59e0b"></path><path d="M231 460.7L247.3 527.3L280.8 504.3Z" fill="#31241a" stroke="#31241a"></path><path d="M263.8 528L240.3 551.7L273.8 547.7Z" fill="#5b3b1f" stroke="#5b3b1f"></path><path d="M310.5 562.3L350.5 556.7L352.5 517Z" fill="#f59e0b" stroke="#f59e0b"></path><path d="M352.5 517L400.8 527.7L377.3 498Z" fill="#1c1917" stroke="#1c1917"></path><path d="M273.8 547.7L310.5 562.3L280.8 504.3Z" fill="#865521" stroke="#865521"></path><path d="M407.8 404.3L379.3 389L375.3 409.3Z" fill="#5b3b1f" stroke="#5b3b1f"></path><path d="M375.3 409.3L379.3 389L327.5 409.3Z" fill="#c87f1c" stroke="#c87f1c"></path><path d="M231.5 431.3L218.3 466.3L231 460.7Z" fill="#df8e16" stroke="#df8e16"></path><path d="M231 460.7L208.3 498L247.3 527.3Z" fill="#df8e16" stroke="#df8e16"></path><path d="M400.8 527.7L415.8 487.7L377.3 498Z" fill="#f59e0b" stroke="#f59e0b"></path><path d="M377.3 498L415.8 487.7L371 448.3Z" fill="#9c6321" stroke="#9c6321"></path><path d="M363.5 367L287.8 367L327.5 409.3Z" fill="#c87f1c" stroke="#c87f1c"></path><path d="M304 406.3L234.5 371L231.5 431.3Z" fill="#865521" stroke="#865521"></path><path d="M350.5 556.7L400.8 527.7L352.5 517Z" fill="#b2711f" stroke="#b2711f"></path><path d="M297 340.7L286 363.3L287.8 367Z" fill="#5b3b1f" stroke="#5b3b1f"></path><path d="M287.8 367L234.5 371L304 406.3Z" fill="#31241a" stroke="#31241a"></path><path d="M426 424L408.8 407L371 448.3Z" fill="#b2711f" stroke="#b2711f"></path><path d="M374.5 356.3L363.5 367L379.3 389Z" fill="#865521" stroke="#865521"></path><path d="M379.3 389L363.5 367L327.5 409.3Z" fill="#5b3b1f" stroke="#5b3b1f"></path><path d="M408.8 407L407.8 404.3L375.3 409.3Z" fill="#f59e0b" stroke="#f59e0b"></path><path d="M430 562L409.3 526.3L400.8 527.7Z" fill="#c87f1c" stroke="#c87f1c"></path><path d="M400.8 527.7L409.3 526.3L415.8 487.7Z" fill="#b2711f" stroke="#b2711f"></path><path d="M407.8 404.3L395.3 383.7L379.3 389Z" fill="#b2711f" stroke="#b2711f"></path><path d="M218.3 466.3L208.3 498L231 460.7Z" fill="#865521" stroke="#865521"></path><path d="M247.3 527.3L240.3 551.7L263.8 528Z" fill="#31241a" stroke="#31241a"></path><path d="M204.5 535.3L240.3 551.7L247.3 527.3Z" fill="#31241a" stroke="#31241a"></path><path d="M273.8 547.7L271 593.7L310.5 562.3Z" fill="#452f1d" stroke="#452f1d"></path><path d="M415.8 487.7L426 424L371 448.3Z" fill="#df8e16" stroke="#df8e16"></path><path d="M408.8 407L433 391.7L407.8 404.3Z" fill="#9c6321" stroke="#9c6321"></path><path d="M407.8 404.3L433 391.7L395.3 383.7Z" fill="#df8e16" stroke="#df8e16"></path><path d="M374.5 356.3L364.5 358.7L363.5 367Z" fill="#5b3b1f" stroke="#5b3b1f"></path><path d="M363.5 367L297 340.7L287.8 367Z" fill="#9c6321" stroke="#9c6321"></path><path d="M270.3 342.3L269.3 357.7L286 363.3Z" fill="#9c6321" stroke="#9c6321"></path><path d="M286 363.3L269.3 357.7L287.8 367Z" fill="#865521" stroke="#865521"></path><path d="M332.5 594L331.3 584.7L306 611Z" fill="#704820" stroke="#704820"></path><path d="M310.5 562.3L331.3 584.7L350.5 556.7Z" fill="#31241a" stroke="#31241a"></path><path d="M350.5 556.7L384 581.7L400.8 527.7Z" fill="#9c6321" stroke="#9c6321"></path><path d="M448.5 490L439 469.7L415.8 487.7Z" fill="#704820" stroke="#704820"></path><path d="M415.8 487.7L439 469.7L426 424Z" fill="#452f1d" stroke="#452f1d"></path><path d="M234.5 371L202.3 424L231.5 431.3Z" fill="#704820" stroke="#704820"></path><path d="M231.5 431.3L202.3 424L218.3 466.3Z" fill="#865521" stroke="#865521"></path><path d="M218.3 466.3L197.5 496L208.3 498Z" fill="#f59e0b" stroke="#f59e0b"></path><path d="M395.3 383.7L374.5 356.3L379.3 389Z" fill="#df8e16" stroke="#df8e16"></path><path d="M364.5 358.7L297 340.7L363.5 367Z" fill="#452f1d" stroke="#452f1d"></path><path d="M400 318.3L374.5 356.3L395.3 383.7Z" fill="#f59e0b" stroke="#f59e0b"></path><path d="M182.5 478.7L197.5 496L218.3 466.3Z" fill="#1c1917" stroke="#1c1917"></path><path d="M208.3 498L204.5 535.3L247.3 527.3Z" fill="#5b3b1f" stroke="#5b3b1f"></path><path d="M237.3 568L240 563.3L218.5 572Z" fill="#452f1d" stroke="#452f1d"></path><path d="M240.3 551.7L240 563.3L273.8 547.7Z" fill="#5b3b1f" stroke="#5b3b1f"></path><path d="M269.3 357.7L234.5 371L287.8 367Z" fill="#c87f1c" stroke="#c87f1c"></path><path d="M301.8 312.3L297 340.7L338.3 296.3Z" fill="#df8e16" stroke="#df8e16"></path><path d="M269.3 357.7L235 362L234.5 371Z" fill="#f59e0b" stroke="#f59e0b"></path><path d="M306 611L331.3 584.7L310.5 562.3Z" fill="#5b3b1f" stroke="#5b3b1f"></path><path d="M359.3 608L384 581.7L350.5 556.7Z" fill="#704820" stroke="#704820"></path><path d="M218.5 572L240 563.3L240.3 551.7Z" fill="#9c6321" stroke="#9c6321"></path><path d="M240 563.3L271 593.7L273.8 547.7Z" fill="#df8e16" stroke="#df8e16"></path><path d="M297 340.7L270.3 342.3L286 363.3Z" fill="#452f1d" stroke="#452f1d"></path><path d="M202.5 535.7L204.5 535.3L208.3 498Z" fill="#df8e16" stroke="#df8e16"></path><path d="M252.3 329L235 362L269.3 357.7Z" fill="#452f1d" stroke="#452f1d"></path><path d="M154.8 396.7L155 409.3L202.3 424Z" fill="#1c1917" stroke="#1c1917"></path><path d="M441 525L448.5 490L415.8 487.7Z" fill="#31241a" stroke="#31241a"></path><path d="M439 469.7L454.5 471.3L426 424Z" fill="#b2711f" stroke="#b2711f"></path><path d="M359.3 608L350.5 556.7L331.3 584.7Z" fill="#9c6321" stroke="#9c6321"></path><path d="M409.3 526.3L441 525L415.8 487.7Z" fill="#1c1917" stroke="#1c1917"></path><path d="M197.5 496L202.5 535.7L208.3 498Z" fill="#f59e0b" stroke="#f59e0b"></path><path d="M204.5 535.3L218.5 572L240.3 551.7Z" fill="#452f1d" stroke="#452f1d"></path><path d="M448.5 490L450.5 485.7L439 469.7Z" fill="#b2711f" stroke="#b2711f"></path><path d="M165 457.7L182.5 478.7L218.3 466.3Z" fill="#df8e16" stroke="#df8e16"></path><path d="M197.5 496L156.8 529.3L202.5 535.7Z" fill="#df8e16" stroke="#df8e16"></path><path d="M237.3 568L271 593.7L240 563.3Z" fill="#df8e16" stroke="#df8e16"></path><path d="M441 553.3L441 525L409.3 526.3Z" fill="#9c6321" stroke="#9c6321"></path><path d="M448.5 490L455.8 484L450.5 485.7Z" fill="#c87f1c" stroke="#c87f1c"></path><path d="M455.8 484L454.5 471.3L450.5 485.7Z" fill="#df8e16" stroke="#df8e16"></path><path d="M450.5 485.7L454.5 471.3L439 469.7Z" fill="#31241a" stroke="#31241a"></path><path d="M458.5 390.7L433 391.7L426 424Z" fill="#df8e16" stroke="#df8e16"></path><path d="M426 424L433 391.7L408.8 407Z" fill="#865521" stroke="#865521"></path><path d="M297 340.7L280.8 331.7L270.3 342.3Z" fill="#452f1d" stroke="#452f1d"></path><path d="M270.3 342.3L252.3 329L269.3 357.7Z" fill="#c87f1c" stroke="#c87f1c"></path><path d="M301.8 312.3L280.8 331.7L297 340.7Z" fill="#31241a" stroke="#31241a"></path><path d="M485.5 539.3L455.8 484L448.5 490Z" fill="#df8e16" stroke="#df8e16"></path><path d="M202.5 535.7L218.5 572L204.5 535.3Z" fill="#df8e16" stroke="#df8e16"></path><path d="M237.3 568L239.3 593.3L271 593.7Z" fill="#f59e0b" stroke="#f59e0b"></path><path d="M294 626.7L306 611L271 593.7Z" fill="#df8e16" stroke="#df8e16"></path><path d="M271 593.7L306 611L310.5 562.3Z" fill="#b2711f" stroke="#b2711f"></path><path d="M332.5 594L359.3 608L331.3 584.7Z" fill="#452f1d" stroke="#452f1d"></path><path d="M417.8 579L430 562L400.8 527.7Z" fill="#c87f1c" stroke="#c87f1c"></path><path d="M441 525L485.5 539.3L448.5 490Z" fill="#c87f1c" stroke="#c87f1c"></path><path d="M306 611L330.8 613.3L332.5 594Z" fill="#9c6321" stroke="#9c6321"></path><path d="M384 581.7L417.8 579L400.8 527.7Z" fill="#c87f1c" stroke="#c87f1c"></path><path d="M330.8 613.3L359.3 608L332.5 594Z" fill="#1c1917" stroke="#1c1917"></path><path d="M165 457.7L168.8 470.3L182.5 478.7Z" fill="#5b3b1f" stroke="#5b3b1f"></path><path d="M182.5 478.7L156.8 529.3L197.5 496Z" fill="#31241a" stroke="#31241a"></path><path d="M202.5 535.7L191.8 579.7L218.5 572Z" fill="#5b3b1f" stroke="#5b3b1f"></path><path d="M165 457.7L218.3 466.3L202.3 424Z" fill="#31241a" stroke="#31241a"></path><path d="M218.5 572L239.3 593.3L237.3 568Z" fill="#df8e16" stroke="#df8e16"></path><path d="M375.3 628.7L417.8 579L384 581.7Z" fill="#865521" stroke="#865521"></path><path d="M444.8 557.3L441 553.3L430 562Z" fill="#b2711f" stroke="#b2711f"></path><path d="M430 562L441 553.3L409.3 526.3Z" fill="#1c1917" stroke="#1c1917"></path><path d="M280.8 331.7L252.3 329L270.3 342.3Z" fill="#31241a" stroke="#31241a"></path><path d="M147.8 432.7L165 457.7L202.3 424Z" fill="#f59e0b" stroke="#f59e0b"></path><path d="M202.3 424L154.8 384L154.8 396.7Z" fill="#1c1917" stroke="#1c1917"></path><path d="M338.3 296.3L364.5 358.7L365.3 297.7Z" fill="#452f1d" stroke="#452f1d"></path><path d="M338.3 296.3L297 340.7L364.5 358.7Z" fill="#5b3b1f" stroke="#5b3b1f"></path><path d="M280.8 331.7L253 298L252.3 329Z" fill="#9c6321" stroke="#9c6321"></path><path d="M441.5 580.7L444.8 557.3L430 562Z" fill="#df8e16" stroke="#df8e16"></path><path d="M441 553.3L444.8 557.3L441 525Z" fill="#b2711f" stroke="#b2711f"></path><path d="M454.5 471.3L458.5 390.7L426 424Z" fill="#c87f1c" stroke="#c87f1c"></path><path d="M433 391.7L400 318.3L395.3 383.7Z" fill="#b2711f" stroke="#b2711f"></path><path d="M467.8 385.7L458.5 390.7L514.3 412Z" fill="#f59e0b" stroke="#f59e0b"></path><path d="M269.8 627L294 626.7L271 593.7Z" fill="#b2711f" stroke="#b2711f"></path><path d="M306 611L302.5 629.3L330.8 613.3Z" fill="#31241a" stroke="#31241a"></path><path d="M330.8 613.3L375.3 628.7L359.3 608Z" fill="#1c1917" stroke="#1c1917"></path><path d="M294 626.7L302.5 629.3L306 611Z" fill="#865521" stroke="#865521"></path><path d="M253 627.3L271 593.7L239.3 593.3Z" fill="#f59e0b" stroke="#f59e0b"></path><path d="M253 627.3L269.8 627L271 593.7Z" fill="#704820" stroke="#704820"></path><path d="M294 626.7L304.5 636.7L302.5 629.3Z" fill="#b2711f" stroke="#b2711f"></path><path d="M446.8 607.3L441.5 580.7L417.8 579Z" fill="#9c6321" stroke="#9c6321"></path><path d="M417.8 579L441.5 580.7L430 562Z" fill="#31241a" stroke="#31241a"></path><path d="M444.8 557.3L485.5 539.3L441 525Z" fill="#704820" stroke="#704820"></path><path d="M375.3 628.7L384 581.7L359.3 608Z" fill="#31241a" stroke="#31241a"></path><path d="M452.8 305L400 318.3L433 391.7Z" fill="#704820" stroke="#704820"></path><path d="M156.8 529.3L182.5 478.7L168.8 470.3Z" fill="#9c6321" stroke="#9c6321"></path><path d="M156.8 529.3L191.8 579.7L202.5 535.7Z" fill="#5b3b1f" stroke="#5b3b1f"></path><path d="M218.5 572L191.8 579.7L239.3 593.3Z" fill="#5b3b1f" stroke="#5b3b1f"></path><path d="M514.3 412L458.5 390.7L454.5 471.3Z" fill="#df8e16" stroke="#df8e16"></path><path d="M458.5 390.7L467.8 385.7L433 391.7Z" fill="#f59e0b" stroke="#f59e0b"></path><path d="M365.3 297.7L364.5 358.7L374.5 356.3Z" fill="#9c6321" stroke="#9c6321"></path><path d="M301.8 312.3L253 298L280.8 331.7Z" fill="#31241a" stroke="#31241a"></path><path d="M271.8 666L304.5 636.7L294 626.7Z" fill="#b2711f" stroke="#b2711f"></path><path d="M302.5 629.3L304.5 636.7L330.8 613.3Z" fill="#452f1d" stroke="#452f1d"></path><path d="M202.3 424L234.5 371L154.8 384Z" fill="#1c1917" stroke="#1c1917"></path><path d="M351.3 663.3L375.3 628.7L330.8 613.3Z" fill="#f59e0b" stroke="#f59e0b"></path><path d="M128.8 466L168.8 470.3L165 457.7Z" fill="#5b3b1f" stroke="#5b3b1f"></path><path d="M130.3 518L156.8 529.3L168.8 470.3Z" fill="#31241a" stroke="#31241a"></path><path d="M155 409.3L147.8 432.7L202.3 424Z" fill="#c87f1c" stroke="#c87f1c"></path><path d="M232.3 645.7L253 627.3L239.3 593.3Z" fill="#704820" stroke="#704820"></path><path d="M269.8 627L271.8 666L294 626.7Z" fill="#b2711f" stroke="#b2711f"></path><path d="M400 318.3L365.3 297.7L374.5 356.3Z" fill="#452f1d" stroke="#452f1d"></path><path d="M154.8 384L234.5 371L165.5 341.3Z" fill="#1c1917" stroke="#1c1917"></path><path d="M155 409.3L136.3 429.7L147.8 432.7Z" fill="#df8e16" stroke="#df8e16"></path><path d="M267.8 270.3L253 298L301.8 312.3Z" fill="#9c6321" stroke="#9c6321"></path><path d="M203.8 304.7L179.5 328.7L235 362Z" fill="#31241a" stroke="#31241a"></path><path d="M366.5 281.7L361.5 290L365.3 297.7Z" fill="#9c6321" stroke="#9c6321"></path><path d="M365.3 297.7L361.5 290L338.3 296.3Z" fill="#1c1917" stroke="#1c1917"></path><path d="M316.8 260L285.8 267.7L301.8 312.3Z" fill="#9c6321" stroke="#9c6321"></path><path d="M165.5 341.3L234.5 371L235 362Z" fill="#1c1917" stroke="#1c1917"></path><path d="M154.8 396.7L136.3 429.7L155 409.3Z" fill="#df8e16" stroke="#df8e16"></path><path d="M441.5 580.7L485.5 539.3L444.8 557.3Z" fill="#c87f1c" stroke="#c87f1c"></path><path d="M455.8 484L502 478.7L454.5 471.3Z" fill="#31241a" stroke="#31241a"></path><path d="M118.3 378L136.3 429.7L154.8 396.7Z" fill="#704820" stroke="#704820"></path><path d="M147.8 432.7L128.8 466L165 457.7Z" fill="#5b3b1f" stroke="#5b3b1f"></path><path d="M485.5 539.3L502 478.7L455.8 484Z" fill="#f59e0b" stroke="#f59e0b"></path><path d="M411.8 286.7L401.8 299.3L452.8 305Z" fill="#5b3b1f" stroke="#5b3b1f"></path><path d="M400 318.3L401.8 299.3L365.3 297.7Z" fill="#1c1917" stroke="#1c1917"></path><path d="M136.3 429.7L128.8 466L147.8 432.7Z" fill="#452f1d" stroke="#452f1d"></path><path d="M401.8 299.3L366.5 281.7L365.3 297.7Z" fill="#c87f1c" stroke="#c87f1c"></path><path d="M361.5 290L366.5 281.7L338.3 296.3Z" fill="#5b3b1f" stroke="#5b3b1f"></path><path d="M391 644.3L446.8 607.3L417.8 579Z" fill="#df8e16" stroke="#df8e16"></path><path d="M518 592.7L519 559.3L485.5 539.3Z" fill="#9c6321" stroke="#9c6321"></path><path d="M351.3 663.3L391 644.3L375.3 628.7Z" fill="#1c1917" stroke="#1c1917"></path><path d="M375.3 628.7L391 644.3L417.8 579Z" fill="#c87f1c" stroke="#c87f1c"></path><path d="M156.8 529.3L167.8 588L191.8 579.7Z" fill="#1c1917" stroke="#1c1917"></path><path d="M191.8 579.7L232.3 645.7L239.3 593.3Z" fill="#b2711f" stroke="#b2711f"></path><path d="M127 593L167.8 588L156.8 529.3Z" fill="#c87f1c" stroke="#c87f1c"></path><path d="M128.8 466L130.3 518L168.8 470.3Z" fill="#c87f1c" stroke="#c87f1c"></path><path d="M203.8 304.7L235 362L252.3 329Z" fill="#704820" stroke="#704820"></path><path d="M179.5 328.7L165.5 341.3L235 362Z" fill="#1c1917" stroke="#1c1917"></path><path d="M154.8 384L141.8 372.3L154.8 396.7Z" fill="#b2711f" stroke="#b2711f"></path><path d="M253 298L203.8 304.7L252.3 329Z" fill="#df8e16" stroke="#df8e16"></path><path d="M179.5 328.7L141.8 333L165.5 341.3Z" fill="#b2711f" stroke="#b2711f"></path><path d="M198.5 297L203.8 304.7L253 298Z" fill="#c87f1c" stroke="#c87f1c"></path><path d="M519.3 523.3L515.3 484L502 478.7Z" fill="#df8e16" stroke="#df8e16"></path><path d="M502 478.7L514.3 412L454.5 471.3Z" fill="#704820" stroke="#704820"></path><path d="M165.5 609.3L232.3 645.7L191.8 579.7Z" fill="#704820" stroke="#704820"></path><path d="M253 627.3L271.8 666L269.8 627Z" fill="#704820" stroke="#704820"></path><path d="M304.5 636.7L351.3 663.3L330.8 613.3Z" fill="#df8e16" stroke="#df8e16"></path><path d="M147 358.3L141.8 372.3L154.8 384Z" fill="#704820" stroke="#704820"></path><path d="M136.3 429.7L101.5 442.3L128.8 466Z" fill="#1c1917" stroke="#1c1917"></path><path d="M329.5 671L351.3 663.3L304.5 636.7Z" fill="#f59e0b" stroke="#f59e0b"></path><path d="M316.8 260L301.8 312.3L338.3 296.3Z" fill="#704820" stroke="#704820"></path><path d="M136 363.7L147 358.3L141.8 333Z" fill="#9c6321" stroke="#9c6321"></path><path d="M165.5 341.3L147 358.3L154.8 384Z" fill="#865521" stroke="#865521"></path><path d="M285.8 267.7L267.8 270.3L301.8 312.3Z" fill="#865521" stroke="#865521"></path><path d="M452.8 305L401.8 299.3L400 318.3Z" fill="#df8e16" stroke="#df8e16"></path><path d="M381.3 261L370 269.7L366.5 281.7Z" fill="#b2711f" stroke="#b2711f"></path><path d="M366.5 281.7L316.8 260L338.3 296.3Z" fill="#704820" stroke="#704820"></path><path d="M381.3 261L366.5 281.7L401.8 299.3Z" fill="#5b3b1f" stroke="#5b3b1f"></path><path d="M545.3 442.7L514.3 412L502 478.7Z" fill="#704820" stroke="#704820"></path><path d="M452.8 305L414 283L411.8 286.7Z" fill="#f59e0b" stroke="#f59e0b"></path><path d="M249 666L271.8 666L253 627.3Z" fill="#1c1917" stroke="#1c1917"></path><path d="M271.8 666L329.5 671L304.5 636.7Z" fill="#865521" stroke="#865521"></path><path d="M370 269.7L316.8 260L366.5 281.7Z" fill="#9c6321" stroke="#9c6321"></path><path d="M285.8 267.7L272 264.7L267.8 270.3Z" fill="#df8e16" stroke="#df8e16"></path><path d="M514.3 412L510 392L467.8 385.7Z" fill="#31241a" stroke="#31241a"></path><path d="M260 251.3L272 264.7L285.8 267.7Z" fill="#9c6321" stroke="#9c6321"></path><path d="M214.3 252.7L198.5 297L253 298Z" fill="#c87f1c" stroke="#c87f1c"></path><path d="M235.5 245.3L253 298L267.8 270.3Z" fill="#452f1d" stroke="#452f1d"></path><path d="M203.8 304.7L198.5 297L179.5 328.7Z" fill="#31241a" stroke="#31241a"></path><path d="M452.8 305L433 391.7L467.8 385.7Z" fill="#b2711f" stroke="#b2711f"></path><path d="M411.8 286.7L381.3 261L401.8 299.3Z" fill="#df8e16" stroke="#df8e16"></path><path d="M141.8 333L147 358.3L165.5 341.3Z" fill="#c87f1c" stroke="#c87f1c"></path><path d="M147 358.3L136 363.7L141.8 372.3Z" fill="#5b3b1f" stroke="#5b3b1f"></path><path d="M118.3 378L101.5 442.3L136.3 429.7Z" fill="#5b3b1f" stroke="#5b3b1f"></path><path d="M153.8 614.3L165.5 609.3L167.8 588Z" fill="#f59e0b" stroke="#f59e0b"></path><path d="M167.8 588L165.5 609.3L191.8 579.7Z" fill="#865521" stroke="#865521"></path><path d="M510 392L499.5 362L467.8 385.7Z" fill="#9c6321" stroke="#9c6321"></path><path d="M485.5 539.3L519.3 523.3L502 478.7Z" fill="#df8e16" stroke="#df8e16"></path><path d="M515.3 484L545.3 442.7L502 478.7Z" fill="#c87f1c" stroke="#c87f1c"></path><path d="M519 559.3L519.3 523.3L485.5 539.3Z" fill="#1c1917" stroke="#1c1917"></path><path d="M491.5 329L452.8 305L467.8 385.7Z" fill="#1c1917" stroke="#1c1917"></path><path d="M128.8 466L113 515L130.3 518Z" fill="#c87f1c" stroke="#c87f1c"></path><path d="M96 571.3L127 593L156.8 529.3Z" fill="#704820" stroke="#704820"></path><path d="M86.5 478L113 515L128.8 466Z" fill="#1c1917" stroke="#1c1917"></path><path d="M240.5 679.7L249 666L232.3 645.7Z" fill="#9c6321" stroke="#9c6321"></path><path d="M232.3 645.7L249 666L253 627.3Z" fill="#1c1917" stroke="#1c1917"></path><path d="M309.8 699.3L322.8 694.7L329.5 671Z" fill="#5b3b1f" stroke="#5b3b1f"></path><path d="M414 283L381.3 261L411.8 286.7Z" fill="#1c1917" stroke="#1c1917"></path><path d="M370 269.7L341.3 227L316.8 260Z" fill="#c87f1c" stroke="#c87f1c"></path><path d="M375.5 253.3L381.3 261L386 221Z" fill="#865521" stroke="#865521"></path><path d="M408.8 666L414 658.7L391 644.3Z" fill="#865521" stroke="#865521"></path><path d="M391 644.3L414 658.7L446.8 607.3Z" fill="#704820" stroke="#704820"></path><path d="M518 592.7L485.5 539.3L441.5 580.7Z" fill="#9c6321" stroke="#9c6321"></path><path d="M408.8 666L391 644.3L351.3 663.3Z" fill="#c87f1c" stroke="#c87f1c"></path><path d="M118.3 378L154.8 396.7L141.8 372.3Z" fill="#c87f1c" stroke="#c87f1c"></path><path d="M98 375L118.3 378L99.5 351.7Z" fill="#865521" stroke="#865521"></path><path d="M136 363.7L118.3 378L141.8 372.3Z" fill="#452f1d" stroke="#452f1d"></path><path d="M427 694.3L408.8 666L359.3 730Z" fill="#9c6321" stroke="#9c6321"></path><path d="M493.5 619L441.5 580.7L446.8 607.3Z" fill="#5b3b1f" stroke="#5b3b1f"></path><path d="M120 304L141.8 333L179.5 328.7Z" fill="#9c6321" stroke="#9c6321"></path><path d="M425 242.3L381.3 261L414 283Z" fill="#704820" stroke="#704820"></path><path d="M381.3 261L375.5 253.3L370 269.7Z" fill="#452f1d" stroke="#452f1d"></path><path d="M263.3 215.3L260 251.3L285.8 267.7Z" fill="#5b3b1f" stroke="#5b3b1f"></path><path d="M127 593L153.8 614.3L167.8 588Z" fill="#f59e0b" stroke="#f59e0b"></path><path d="M165.5 609.3L164.5 675L232.3 645.7Z" fill="#f59e0b" stroke="#f59e0b"></path><path d="M499.5 362L491.5 329L467.8 385.7Z" fill="#865521" stroke="#865521"></path><path d="M452.8 305L456.5 277.7L414 283Z" fill="#f59e0b" stroke="#f59e0b"></path><path d="M517.3 325L491.5 329L523.3 330.7Z" fill="#c87f1c" stroke="#c87f1c"></path><path d="M478.5 630.7L446.8 607.3L441.5 671Z" fill="#b2711f" stroke="#b2711f"></path><path d="M263.3 215.3L285.8 267.7L309.5 207Z" fill="#452f1d" stroke="#452f1d"></path><path d="M272 264.7L260 251.3L267.8 270.3Z" fill="#5b3b1f" stroke="#5b3b1f"></path><path d="M198.5 297L120 304L179.5 328.7Z" fill="#31241a" stroke="#31241a"></path><path d="M491.5 329L478.5 308.3L452.8 305Z" fill="#704820" stroke="#704820"></path><path d="M198.8 703.7L240.5 679.7L232.3 645.7Z" fill="#31241a" stroke="#31241a"></path><path d="M249 666L240.5 679.7L271.8 666Z" fill="#c87f1c" stroke="#c87f1c"></path><path d="M329.5 671L322.8 694.7L351.3 663.3Z" fill="#704820" stroke="#704820"></path><path d="M309.8 699.3L329.5 671L271.8 666Z" fill="#b2711f" stroke="#b2711f"></path><path d="M107 589.7L127 593L96 571.3Z" fill="#31241a" stroke="#31241a"></path><path d="M569.5 438.7L545.3 442.7L577 460Z" fill="#704820" stroke="#704820"></path><path d="M514.3 412L543.3 421.3L510 392Z" fill="#c87f1c" stroke="#c87f1c"></path><path d="M523.3 330.7L491.5 329L499.5 362Z" fill="#b2711f" stroke="#b2711f"></path><path d="M545.3 442.7L515.3 484L577 460Z" fill="#c87f1c" stroke="#c87f1c"></path><path d="M545.3 442.7L543.3 421.3L514.3 412Z" fill="#865521" stroke="#865521"></path><path d="M441.5 671L446.8 607.3L414 658.7Z" fill="#c87f1c" stroke="#c87f1c"></path><path d="M62.5 440.7L86.5 478L101.5 442.3Z" fill="#df8e16" stroke="#df8e16"></path><path d="M101.5 442.3L86.5 478L128.8 466Z" fill="#865521" stroke="#865521"></path><path d="M96 571.3L156.8 529.3L130.3 518Z" fill="#9c6321" stroke="#9c6321"></path><path d="M478.5 630.7L493.5 619L446.8 607.3Z" fill="#c87f1c" stroke="#c87f1c"></path><path d="M236.5 717.3L309.8 699.3L271.8 666Z" fill="#b2711f" stroke="#b2711f"></path><path d="M432 689L441.5 671L408.8 666Z" fill="#31241a" stroke="#31241a"></path><path d="M478.5 308.3L456.5 277.7L452.8 305Z" fill="#865521" stroke="#865521"></path><path d="M518 592.7L527 571L519 559.3Z" fill="#704820" stroke="#704820"></path><path d="M519 559.3L545.3 575L519.3 523.3Z" fill="#704820" stroke="#704820"></path><path d="M237.3 220L235.5 245.3L260 251.3Z" fill="#c87f1c" stroke="#c87f1c"></path><path d="M260 251.3L235.5 245.3L267.8 270.3Z" fill="#df8e16" stroke="#df8e16"></path><path d="M235.5 245.3L227.5 247.7L253 298Z" fill="#9c6321" stroke="#9c6321"></path><path d="M227.5 247.7L214.3 252.7L253 298Z" fill="#704820" stroke="#704820"></path><path d="M493.5 619L518 592.7L441.5 580.7Z" fill="#f59e0b" stroke="#f59e0b"></path><path d="M99.5 351.7L118.3 378L136 363.7Z" fill="#704820" stroke="#704820"></path><path d="M118.3 378L76.3 405.7L101.5 442.3Z" fill="#704820" stroke="#704820"></path><path d="M99.5 351.7L136 363.7L141.8 333Z" fill="#c87f1c" stroke="#c87f1c"></path><path d="M432 689L408.8 666L427 694.3Z" fill="#9c6321" stroke="#9c6321"></path><path d="M408.8 666L441.5 671L414 658.7Z" fill="#df8e16" stroke="#df8e16"></path><path d="M510.5 630.3L517.3 605.7L493.5 619Z" fill="#704820" stroke="#704820"></path><path d="M368.3 209.3L341.3 227L375.5 253.3Z" fill="#c87f1c" stroke="#c87f1c"></path><path d="M375.5 253.3L341.3 227L370 269.7Z" fill="#b2711f" stroke="#b2711f"></path><path d="M510.5 630.3L493.5 619L478.5 630.7Z" fill="#865521" stroke="#865521"></path><path d="M493.5 619L517.3 605.7L518 592.7Z" fill="#b2711f" stroke="#b2711f"></path><path d="M518 592.7L545.3 575L527 571Z" fill="#b2711f" stroke="#b2711f"></path><path d="M96 571.3L130.3 518L113 515Z" fill="#df8e16" stroke="#df8e16"></path><path d="M106.3 629.3L141 648.3L153.8 614.3Z" fill="#9c6321" stroke="#9c6321"></path><path d="M153.8 614.3L141 648.3L165.5 609.3Z" fill="#704820" stroke="#704820"></path><path d="M491.5 329L517.3 325L478.5 308.3Z" fill="#5b3b1f" stroke="#5b3b1f"></path><path d="M478.5 308.3L511 275L456.5 277.7Z" fill="#df8e16" stroke="#df8e16"></path><path d="M523.3 330.7L499.5 362L543.3 359.3Z" fill="#c87f1c" stroke="#c87f1c"></path><path d="M73.3 550.7L96 571.3L113 515Z" fill="#f59e0b" stroke="#f59e0b"></path><path d="M120 304L99.5 351.7L141.8 333Z" fill="#1c1917" stroke="#1c1917"></path><path d="M98 375L76.3 405.7L118.3 378Z" fill="#9c6321" stroke="#9c6321"></path><path d="M543.3 359.3L499.5 362L510 392Z" fill="#704820" stroke="#704820"></path><path d="M444.5 249.3L414 283L456.5 277.7Z" fill="#c87f1c" stroke="#c87f1c"></path><path d="M444.5 249.3L425 242.3L414 283Z" fill="#31241a" stroke="#31241a"></path><path d="M63.3 408.3L76.3 405.7L58.8 372.3Z" fill="#9c6321" stroke="#9c6321"></path><path d="M61.8 505.7L71.3 539.3L113 515Z" fill="#f59e0b" stroke="#f59e0b"></path><path d="M543.3 421.3L543.3 359.3L510 392Z" fill="#df8e16" stroke="#df8e16"></path><path d="M553 359.7L543.3 359.3L573 401.3Z" fill="#f59e0b" stroke="#f59e0b"></path><path d="M408.8 666L351.3 663.3L359.3 730Z" fill="#865521" stroke="#865521"></path><path d="M470.3 671L510.5 630.3L478.5 630.7Z" fill="#c87f1c" stroke="#c87f1c"></path><path d="M511 275L444.5 249.3L456.5 277.7Z" fill="#31241a" stroke="#31241a"></path><path d="M519 290.7L478.5 308.3L517.3 325Z" fill="#df8e16" stroke="#df8e16"></path><path d="M551.8 585.7L545.3 575L518 592.7Z" fill="#704820" stroke="#704820"></path><path d="M527 571L545.3 575L519 559.3Z" fill="#9c6321" stroke="#9c6321"></path><path d="M359.3 730L351.3 663.3L322.8 694.7Z" fill="#452f1d" stroke="#452f1d"></path><path d="M470.3 671L478.5 630.7L441.5 671Z" fill="#b2711f" stroke="#b2711f"></path><path d="M577 460L515.3 484L578.8 507Z" fill="#704820" stroke="#704820"></path><path d="M545.3 442.7L569.5 438.7L543.3 421.3Z" fill="#452f1d" stroke="#452f1d"></path><path d="M470.3 671L441.5 671L473.3 684.7Z" fill="#865521" stroke="#865521"></path><path d="M517.3 605.7L551.8 585.7L518 592.7Z" fill="#1c1917" stroke="#1c1917"></path><path d="M106.3 629.3L127 593L107 589.7Z" fill="#df8e16" stroke="#df8e16"></path><path d="M106.3 629.3L153.8 614.3L127 593Z" fill="#b2711f" stroke="#b2711f"></path><path d="M443.8 224.3L386 221L425 242.3Z" fill="#1c1917" stroke="#1c1917"></path><path d="M425 242.3L386 221L381.3 261Z" fill="#865521" stroke="#865521"></path><path d="M173.8 227.3L120 304L198.5 297Z" fill="#f59e0b" stroke="#f59e0b"></path><path d="M58.8 372.3L76.3 405.7L98 375Z" fill="#704820" stroke="#704820"></path><path d="M473.3 684.7L441.5 671L454.8 701.7Z" fill="#452f1d" stroke="#452f1d"></path><path d="M76.3 405.7L62.5 440.7L101.5 442.3Z" fill="#9c6321" stroke="#9c6321"></path><path d="M309.5 207L316.8 260L341.3 227Z" fill="#865521" stroke="#865521"></path><path d="M309.5 207L285.8 267.7L316.8 260Z" fill="#c87f1c" stroke="#c87f1c"></path><path d="M235.5 245.3L237.3 220L227.5 247.7Z" fill="#31241a" stroke="#31241a"></path><path d="M227.5 247.7L237.3 220L214.3 252.7Z" fill="#452f1d" stroke="#452f1d"></path><path d="M214.3 252.7L173.8 227.3L198.5 297Z" fill="#f59e0b" stroke="#f59e0b"></path><path d="M61.8 505.7L113 515L86.5 478Z" fill="#c87f1c" stroke="#c87f1c"></path><path d="M66.5 596L106.3 629.3L107 589.7Z" fill="#f59e0b" stroke="#f59e0b"></path><path d="M543.3 359.3L542.8 338L523.3 330.7Z" fill="#f59e0b" stroke="#f59e0b"></path><path d="M537.3 301.7L519 290.7L517.3 325Z" fill="#704820" stroke="#704820"></path><path d="M573 401.3L543.3 359.3L543.3 421.3Z" fill="#df8e16" stroke="#df8e16"></path><path d="M71.3 539.3L73.3 550.7L113 515Z" fill="#c87f1c" stroke="#c87f1c"></path><path d="M263.3 215.3L237.3 220L260 251.3Z" fill="#1c1917" stroke="#1c1917"></path><path d="M35.8 489L61.8 505.7L86.5 478Z" fill="#b2711f" stroke="#b2711f"></path><path d="M71.3 539.3L66.5 565.3L73.3 550.7Z" fill="#31241a" stroke="#31241a"></path><path d="M141 648.3L164.5 675L165.5 609.3Z" fill="#31241a" stroke="#31241a"></path><path d="M240.5 679.7L236.5 717.3L271.8 666Z" fill="#b2711f" stroke="#b2711f"></path><path d="M320.8 189.7L309.5 207L335.8 188Z" fill="#b2711f" stroke="#b2711f"></path><path d="M263.3 215.3L254 184L237.3 220Z" fill="#1c1917" stroke="#1c1917"></path><path d="M553 359.7L542.8 338L543.3 359.3Z" fill="#704820" stroke="#704820"></path><path d="M198.8 703.7L233 711.3L240.5 679.7Z" fill="#452f1d" stroke="#452f1d"></path><path d="M309.8 699.3L359.3 730L322.8 694.7Z" fill="#5b3b1f" stroke="#5b3b1f"></path><path d="M578.8 507L515.3 484L519.3 523.3Z" fill="#b2711f" stroke="#b2711f"></path><path d="M569.5 438.7L573 401.3L543.3 421.3Z" fill="#df8e16" stroke="#df8e16"></path><path d="M64.3 361.3L98 375L99.5 351.7Z" fill="#704820" stroke="#704820"></path><path d="M76.3 405.7L63.3 408.3L62.5 440.7Z" fill="#c87f1c" stroke="#c87f1c"></path><path d="M389.3 186.7L368.3 209.3L386 221Z" fill="#c87f1c" stroke="#c87f1c"></path><path d="M386 221L368.3 209.3L375.5 253.3Z" fill="#865521" stroke="#865521"></path><path d="M536.8 645.7L551.8 585.7L517.3 605.7Z" fill="#865521" stroke="#865521"></path><path d="M583.8 514.3L578.8 507L519.3 523.3Z" fill="#df8e16" stroke="#df8e16"></path><path d="M589.8 436.7L573 401.3L569.5 438.7Z" fill="#452f1d" stroke="#452f1d"></path><path d="M554 299.3L537.3 301.7L555.8 300.3Z" fill="#5b3b1f" stroke="#5b3b1f"></path><path d="M198.3 728.3L236.5 717.3L233 711.3Z" fill="#31241a" stroke="#31241a"></path><path d="M233 711.3L236.5 717.3L240.5 679.7Z" fill="#df8e16" stroke="#df8e16"></path><path d="M583.8 514.3L519.3 523.3L545.3 575Z" fill="#f59e0b" stroke="#f59e0b"></path><path d="M164.5 675L198.8 703.7L232.3 645.7Z" fill="#b2711f" stroke="#b2711f"></path><path d="M66.5 596L107 589.7L96 571.3Z" fill="#b2711f" stroke="#b2711f"></path><path d="M141 648.3L161.8 691L164.5 675Z" fill="#704820" stroke="#704820"></path><path d="M164.5 675L161.8 691L198.8 703.7Z" fill="#704820" stroke="#704820"></path><path d="M537.3 301.7L517.3 325L523.3 330.7Z" fill="#704820" stroke="#704820"></path><path d="M326.8 759.7L359.3 730L309.8 699.3Z" fill="#5b3b1f" stroke="#5b3b1f"></path><path d="M454.8 701.7L432 689L427 694.3Z" fill="#c87f1c" stroke="#c87f1c"></path><path d="M454.8 701.7L441.5 671L432 689Z" fill="#5b3b1f" stroke="#5b3b1f"></path><path d="M515 685L536.8 645.7L510.5 630.3Z" fill="#31241a" stroke="#31241a"></path><path d="M510.5 630.3L536.8 645.7L517.3 605.7Z" fill="#5b3b1f" stroke="#5b3b1f"></path><path d="M35.5 580.7L66.5 565.3L71.3 539.3Z" fill="#9c6321" stroke="#9c6321"></path><path d="M73.3 550.7L66.5 565.3L96 571.3Z" fill="#865521" stroke="#865521"></path><path d="M590.8 573L583.8 514.3L545.3 575Z" fill="#f59e0b" stroke="#f59e0b"></path><path d="M578.8 507L601.3 502.3L577 460Z" fill="#31241a" stroke="#31241a"></path><path d="M577 460L589.8 436.7L569.5 438.7Z" fill="#b2711f" stroke="#b2711f"></path><path d="M519 290.7L511 275L478.5 308.3Z" fill="#9c6321" stroke="#9c6321"></path><path d="M444.5 249.3L443.8 224.3L425 242.3Z" fill="#452f1d" stroke="#452f1d"></path><path d="M480.3 201.7L443.8 224.3L444.5 249.3Z" fill="#865521" stroke="#865521"></path><path d="M400 751.7L454.8 701.7L427 694.3Z" fill="#704820" stroke="#704820"></path><path d="M161 697L161.8 691L130 708.3Z" fill="#865521" stroke="#865521"></path><path d="M198.3 728.3L250.3 736L236.5 717.3Z" fill="#865521" stroke="#865521"></path><path d="M621.3 465L589.8 436.7L577 460Z" fill="#452f1d" stroke="#452f1d"></path><path d="M54.5 315.3L64.3 361.3L99.5 351.7Z" fill="#452f1d" stroke="#452f1d"></path><path d="M63.3 408.3L46.8 404.7L62.5 440.7Z" fill="#f59e0b" stroke="#f59e0b"></path><path d="M519 290.7L548.8 254.3L511 275Z" fill="#b2711f" stroke="#b2711f"></path><path d="M542.8 338L537.3 301.7L523.3 330.7Z" fill="#704820" stroke="#704820"></path><path d="M561.8 339.7L542.8 338L553 359.7Z" fill="#704820" stroke="#704820"></path><path d="M561.8 339.7L553 359.7L601.5 356.3Z" fill="#704820" stroke="#704820"></path><path d="M602.8 386L553 359.7L573 401.3Z" fill="#704820" stroke="#704820"></path><path d="M64.3 361.3L58.8 372.3L98 375Z" fill="#31241a" stroke="#31241a"></path><path d="M62.5 440.7L35.8 489L86.5 478Z" fill="#1c1917" stroke="#1c1917"></path><path d="M335.8 188L309.5 207L341.3 227Z" fill="#5b3b1f" stroke="#5b3b1f"></path><path d="M309.5 207L254 184L263.3 215.3Z" fill="#5b3b1f" stroke="#5b3b1f"></path><path d="M335.8 188L341.3 227L368.3 209.3Z" fill="#f59e0b" stroke="#f59e0b"></path><path d="M58.8 372.3L46.8 404.7L63.3 408.3Z" fill="#9c6321" stroke="#9c6321"></path><path d="M35.5 580.7L64.3 590L66.5 565.3Z" fill="#9c6321" stroke="#9c6321"></path><path d="M198.3 728.3L233 711.3L198.8 703.7Z" fill="#5b3b1f" stroke="#5b3b1f"></path><path d="M236.5 717.3L250.3 736L309.8 699.3Z" fill="#1c1917" stroke="#1c1917"></path><path d="M389.3 186.7L335.8 188L368.3 209.3Z" fill="#452f1d" stroke="#452f1d"></path><path d="M173 213.3L173.8 227.3L184.5 204Z" fill="#9c6321" stroke="#9c6321"></path><path d="M187.5 203.7L173.8 227.3L214.3 252.7Z" fill="#b2711f" stroke="#b2711f"></path><path d="M120 304L54.5 315.3L99.5 351.7Z" fill="#b2711f" stroke="#b2711f"></path><path d="M130 708.3L161.8 691L141 648.3Z" fill="#1c1917" stroke="#1c1917"></path><path d="M161.8 691L167 702.7L198.8 703.7Z" fill="#5b3b1f" stroke="#5b3b1f"></path><path d="M161 697L167 702.7L161.8 691Z" fill="#452f1d" stroke="#452f1d"></path><path d="M66.5 565.3L64.3 590L96 571.3Z" fill="#df8e16" stroke="#df8e16"></path><path d="M106.3 629.3L104.5 658.3L141 648.3Z" fill="#f59e0b" stroke="#f59e0b"></path><path d="M1.8 531.7L71.3 539.3L61.8 505.7Z" fill="#c87f1c" stroke="#c87f1c"></path><path d="M0 468L35.8 489L0 442.7Z" fill="#865521" stroke="#865521"></path><path d="M64.3 590L66.5 596L96 571.3Z" fill="#452f1d" stroke="#452f1d"></path><path d="M167 702.7L188.8 718.3L198.8 703.7Z" fill="#1c1917" stroke="#1c1917"></path><path d="M515 685L470.3 671L473.3 684.7Z" fill="#452f1d" stroke="#452f1d"></path><path d="M515 685L510.5 630.3L470.3 671Z" fill="#452f1d" stroke="#452f1d"></path><path d="M614.5 538.3L601.3 502.3L583.8 514.3Z" fill="#865521" stroke="#865521"></path><path d="M590.8 573L545.3 575L551.8 585.7Z" fill="#452f1d" stroke="#452f1d"></path><path d="M583.8 514.3L601.3 502.3L578.8 507Z" fill="#f59e0b" stroke="#f59e0b"></path><path d="M97.3 661L104.5 658.3L106.3 629.3Z" fill="#b2711f" stroke="#b2711f"></path><path d="M161 697L130 708.3L167 702.7Z" fill="#b2711f" stroke="#b2711f"></path><path d="M184.5 757.7L198.3 728.3L188.8 718.3Z" fill="#865521" stroke="#865521"></path><path d="M107 266.7L94.3 284.7L120 304Z" fill="#452f1d" stroke="#452f1d"></path><path d="M31.5 365L31.8 375L58.8 372.3Z" fill="#452f1d" stroke="#452f1d"></path><path d="M184.5 757.7L188.8 718.3L167 702.7Z" fill="#865521" stroke="#865521"></path><path d="M188.8 718.3L198.3 728.3L198.8 703.7Z" fill="#1c1917" stroke="#1c1917"></path><path d="M443.8 224.3L389.3 186.7L386 221Z" fill="#1c1917" stroke="#1c1917"></path><path d="M271 163.7L309.5 207L320.8 189.7Z" fill="#df8e16" stroke="#df8e16"></path><path d="M271 163.7L254 184L309.5 207Z" fill="#5b3b1f" stroke="#5b3b1f"></path><path d="M271 163.7L320.8 189.7L291.8 143.3Z" fill="#b2711f" stroke="#b2711f"></path><path d="M555.8 300.3L537.3 301.7L542.8 338Z" fill="#5b3b1f" stroke="#5b3b1f"></path><path d="M537.3 301.7L548.8 254.3L519 290.7Z" fill="#9c6321" stroke="#9c6321"></path><path d="M511 275L480.3 201.7L444.5 249.3Z" fill="#452f1d" stroke="#452f1d"></path><path d="M447.8 174L400 164.7L389.3 186.7Z" fill="#9c6321" stroke="#9c6321"></path><path d="M555.8 300.3L542.8 338L561.8 339.7Z" fill="#1c1917" stroke="#1c1917"></path><path d="M173.8 227.3L107 266.7L120 304Z" fill="#5b3b1f" stroke="#5b3b1f"></path><path d="M601.5 356.3L555.8 300.3L561.8 339.7Z" fill="#df8e16" stroke="#df8e16"></path><path d="M541.3 236L480.3 201.7L511 275Z" fill="#f59e0b" stroke="#f59e0b"></path><path d="M187.5 203.7L214.3 252.7L237.3 220Z" fill="#5b3b1f" stroke="#5b3b1f"></path><path d="M173.8 227.3L105.5 242.7L107 266.7Z" fill="#9c6321" stroke="#9c6321"></path><path d="M360.5 756.7L394.3 747.3L359.3 730Z" fill="#452f1d" stroke="#452f1d"></path><path d="M359.3 730L394.3 747.3L427 694.3Z" fill="#c87f1c" stroke="#c87f1c"></path><path d="M516.3 737.3L515 685L473.3 684.7Z" fill="#704820" stroke="#704820"></path><path d="M621.3 465L606.8 423.3L589.8 436.7Z" fill="#9c6321" stroke="#9c6321"></path><path d="M589.8 436.7L606.8 423.3L573 401.3Z" fill="#f59e0b" stroke="#f59e0b"></path><path d="M188.8 186L187.5 203.7L237.3 220Z" fill="#704820" stroke="#704820"></path><path d="M615.5 592L590.8 573L618.3 613.3Z" fill="#1c1917" stroke="#1c1917"></path><path d="M188.8 186L184.5 204L187.5 203.7Z" fill="#f59e0b" stroke="#f59e0b"></path><path d="M187.5 203.7L184.5 204L173.8 227.3Z" fill="#865521" stroke="#865521"></path><path d="M67.5 268.3L94.3 284.7L107 266.7Z" fill="#452f1d" stroke="#452f1d"></path><path d="M280.8 760L309.8 699.3L250.3 736Z" fill="#5b3b1f" stroke="#5b3b1f"></path><path d="M280.8 760L326.8 759.7L309.8 699.3Z" fill="#704820" stroke="#704820"></path><path d="M352.5 761.3L360.5 756.7L359.3 730Z" fill="#f59e0b" stroke="#f59e0b"></path><path d="M75.3 662.7L97.3 661L106.3 629.3Z" fill="#865521" stroke="#865521"></path><path d="M98.5 680.7L130 708.3L141 648.3Z" fill="#f59e0b" stroke="#f59e0b"></path><path d="M203.8 779.7L254.3 753.7L250.3 736Z" fill="#f59e0b" stroke="#f59e0b"></path><path d="M496.5 748.7L473.3 684.7L454.8 701.7Z" fill="#9c6321" stroke="#9c6321"></path><path d="M536.8 645.7L587.8 661.3L551.8 585.7Z" fill="#452f1d" stroke="#452f1d"></path><path d="M629.5 429L608.3 413.3L606.8 423.3Z" fill="#704820" stroke="#704820"></path><path d="M606.8 423.3L608.3 413.3L573 401.3Z" fill="#704820" stroke="#704820"></path><path d="M608.3 413.3L602.8 386L573 401.3Z" fill="#704820" stroke="#704820"></path><path d="M254.3 753.7L280.8 760L250.3 736Z" fill="#c87f1c" stroke="#c87f1c"></path><path d="M385 764L400 751.7L394.3 747.3Z" fill="#f59e0b" stroke="#f59e0b"></path><path d="M394.3 747.3L400 751.7L427 694.3Z" fill="#df8e16" stroke="#df8e16"></path><path d="M360.5 775L352.5 761.3L326.8 759.7Z" fill="#31241a" stroke="#31241a"></path><path d="M326.8 759.7L352.5 761.3L359.3 730Z" fill="#c87f1c" stroke="#c87f1c"></path><path d="M360.5 756.7L385 764L394.3 747.3Z" fill="#865521" stroke="#865521"></path><path d="M58.8 372.3L31.8 375L46.8 404.7Z" fill="#b2711f" stroke="#b2711f"></path><path d="M0 442.7L35.8 489L62.5 440.7Z" fill="#9c6321" stroke="#9c6321"></path><path d="M31.5 365L58.8 372.3L64.3 361.3Z" fill="#704820" stroke="#704820"></path><path d="M515 685L537.3 670.3L536.8 645.7Z" fill="#31241a" stroke="#31241a"></path><path d="M67.3 289L54.5 315.3L94.3 284.7Z" fill="#452f1d" stroke="#452f1d"></path><path d="M94.3 284.7L54.5 315.3L120 304Z" fill="#31241a" stroke="#31241a"></path><path d="M54.5 315.3L31.5 365L64.3 361.3Z" fill="#31241a" stroke="#31241a"></path><path d="M638.5 467L621.3 465L601.3 502.3Z" fill="#df8e16" stroke="#df8e16"></path><path d="M601.3 502.3L621.3 465L577 460Z" fill="#9c6321" stroke="#9c6321"></path><path d="M638.5 348.7L601.5 356.3L602.8 386Z" fill="#b2711f" stroke="#b2711f"></path><path d="M1.8 531.7L61.8 505.7L35.8 489Z" fill="#c87f1c" stroke="#c87f1c"></path><path d="M1.8 531.7L35.5 580.7L71.3 539.3Z" fill="#df8e16" stroke="#df8e16"></path><path d="M64.3 590L32.8 614L66.5 596Z" fill="#865521" stroke="#865521"></path><path d="M45.8 641.3L75.3 662.7L106.3 629.3Z" fill="#452f1d" stroke="#452f1d"></path><path d="M62.5 440.7L46.8 404.7L0 442.7Z" fill="#9c6321" stroke="#9c6321"></path><path d="M631.5 404.3L602.8 386L608.3 413.3Z" fill="#452f1d" stroke="#452f1d"></path><path d="M602.8 386L601.5 356.3L553 359.7Z" fill="#5b3b1f" stroke="#5b3b1f"></path><path d="M548.8 712.3L537.3 670.3L515 685Z" fill="#9c6321" stroke="#9c6321"></path><path d="M548.8 712.3L546 668.3L537.3 670.3Z" fill="#df8e16" stroke="#df8e16"></path><path d="M537.3 670.3L546 668.3L536.8 645.7Z" fill="#c87f1c" stroke="#c87f1c"></path><path d="M360.5 775L385 764L360.5 756.7Z" fill="#b2711f" stroke="#b2711f"></path><path d="M400 751.7L471.8 749.3L454.8 701.7Z" fill="#31241a" stroke="#31241a"></path><path d="M360.5 775L360.5 756.7L352.5 761.3Z" fill="#b2711f" stroke="#b2711f"></path><path d="M615.5 592L614.5 538.3L590.8 573Z" fill="#452f1d" stroke="#452f1d"></path><path d="M590.8 573L614.5 538.3L583.8 514.3Z" fill="#c87f1c" stroke="#c87f1c"></path><path d="M291.8 143.3L320.8 189.7L337.5 139.7Z" fill="#704820" stroke="#704820"></path><path d="M239.3 166.7L188.8 186L237.3 220Z" fill="#865521" stroke="#865521"></path><path d="M546 668.3L554 660.7L536.8 645.7Z" fill="#9c6321" stroke="#9c6321"></path><path d="M98.5 680.7L104.5 658.3L97.3 661Z" fill="#865521" stroke="#865521"></path><path d="M98.5 680.7L141 648.3L104.5 658.3Z" fill="#9c6321" stroke="#9c6321"></path><path d="M198.3 728.3L203.8 779.7L250.3 736Z" fill="#865521" stroke="#865521"></path><path d="M67.5 268.3L67.3 289L94.3 284.7Z" fill="#5b3b1f" stroke="#5b3b1f"></path><path d="M105.5 242.7L173.8 227.3L173 213.3Z" fill="#df8e16" stroke="#df8e16"></path><path d="M75.3 662.7L98.5 680.7L97.3 661Z" fill="#9c6321" stroke="#9c6321"></path><path d="M96.3 237L105.5 242.7L94.3 228.3Z" fill="#31241a" stroke="#31241a"></path><path d="M239.3 166.7L237.3 220L254 184Z" fill="#865521" stroke="#865521"></path><path d="M184.5 204L174 167.3L173 213.3Z" fill="#f59e0b" stroke="#f59e0b"></path><path d="M271 163.7L239.3 166.7L254 184Z" fill="#1c1917" stroke="#1c1917"></path><path d="M42.5 297L56.8 298.7L67.3 289Z" fill="#b2711f" stroke="#b2711f"></path><path d="M67.3 289L56.8 298.7L54.5 315.3Z" fill="#f59e0b" stroke="#f59e0b"></path><path d="M0 355.3L0 361L31.5 365Z" fill="#31241a" stroke="#31241a"></path><path d="M548.8 254.3L554 299.3L567.5 267.7Z" fill="#f59e0b" stroke="#f59e0b"></path><path d="M548.8 254.3L537.3 301.7L554 299.3Z" fill="#c87f1c" stroke="#c87f1c"></path><path d="M389.3 186.7L337.5 139.7L335.8 188Z" fill="#c87f1c" stroke="#c87f1c"></path><path d="M333.3 820.3L360.5 775L326.8 759.7Z" fill="#c87f1c" stroke="#c87f1c"></path><path d="M45.8 641.3L106.3 629.3L66.5 596Z" fill="#b2711f" stroke="#b2711f"></path><path d="M98.5 680.7L79.3 694.3L130 708.3Z" fill="#865521" stroke="#865521"></path><path d="M447.8 174L389.3 186.7L443.8 224.3Z" fill="#452f1d" stroke="#452f1d"></path><path d="M567.5 267.7L554 299.3L555.8 300.3Z" fill="#f59e0b" stroke="#f59e0b"></path><path d="M638.5 467L629.5 429L621.3 465Z" fill="#1c1917" stroke="#1c1917"></path><path d="M621.3 465L629.5 429L606.8 423.3Z" fill="#704820" stroke="#704820"></path><path d="M487.5 175L480.3 194.3L497.3 172.3Z" fill="#5b3b1f" stroke="#5b3b1f"></path><path d="M466.5 176.7L447.8 174L443.8 224.3Z" fill="#df8e16" stroke="#df8e16"></path><path d="M0 442.7L46.8 404.7L31.8 375Z" fill="#865521" stroke="#865521"></path><path d="M0 468L0 469.3L35.8 489Z" fill="#5b3b1f" stroke="#5b3b1f"></path><path d="M0 361L31.8 375L31.5 365Z" fill="#452f1d" stroke="#452f1d"></path><path d="M0 361L0 442.7L31.8 375Z" fill="#1c1917" stroke="#1c1917"></path><path d="M94.3 228.3L105.5 242.7L173 213.3Z" fill="#c87f1c" stroke="#c87f1c"></path><path d="M105.5 242.7L96.3 237L107 266.7Z" fill="#df8e16" stroke="#df8e16"></path><path d="M96.3 237L67.5 268.3L107 266.7Z" fill="#5b3b1f" stroke="#5b3b1f"></path><path d="M56.8 298.7L42.5 297L54.5 315.3Z" fill="#c87f1c" stroke="#c87f1c"></path><path d="M0 442.7L-1.2 467.3L0 468Z" fill="#31241a" stroke="#31241a"></path><path d="M0 468L-1.2 467.3L0 469.3Z" fill="#9c6321" stroke="#9c6321"></path><path d="M0 594.7L32.8 614L35.5 580.7Z" fill="#31241a" stroke="#31241a"></path><path d="M637.5 285L567.5 267.7L555.8 300.3Z" fill="#865521" stroke="#865521"></path><path d="M548.8 254.3L541.3 236L511 275Z" fill="#df8e16" stroke="#df8e16"></path><path d="M564.8 236.7L567.5 267.7L602.3 230.7Z" fill="#f59e0b" stroke="#f59e0b"></path><path d="M466.5 176.7L443.8 224.3L480.3 201.7Z" fill="#704820" stroke="#704820"></path><path d="M629.5 429L631.5 404.3L608.3 413.3Z" fill="#c87f1c" stroke="#c87f1c"></path><path d="M120 731.7L167 702.7L130 708.3Z" fill="#b2711f" stroke="#b2711f"></path><path d="M120 731.7L184.5 757.7L167 702.7Z" fill="#865521" stroke="#865521"></path><path d="M254.3 753.7L275.3 798L280.8 760Z" fill="#df8e16" stroke="#df8e16"></path><path d="M280.8 760L303 809L326.8 759.7Z" fill="#b2711f" stroke="#b2711f"></path><path d="M564.8 236.7L541.3 236L548.8 254.3Z" fill="#704820" stroke="#704820"></path><path d="M35.5 580.7L32.8 614L64.3 590Z" fill="#f59e0b" stroke="#f59e0b"></path><path d="M1.8 531.7L35.8 489L0 529.3Z" fill="#865521" stroke="#865521"></path><path d="M643.5 527.7L638.5 467L601.3 502.3Z" fill="#c87f1c" stroke="#c87f1c"></path><path d="M629.5 429L671.3 404.7L631.5 404.3Z" fill="#452f1d" stroke="#452f1d"></path><path d="M-4.2 493.3L35.8 489L0 469.3Z" fill="#c87f1c" stroke="#c87f1c"></path><path d="M405.3 783.7L400 751.7L385 764Z" fill="#f59e0b" stroke="#f59e0b"></path><path d="M405.3 783.7L471.8 749.3L400 751.7Z" fill="#df8e16" stroke="#df8e16"></path><path d="M546 668.3L587.8 661.3L554 660.7Z" fill="#704820" stroke="#704820"></path><path d="M67.5 268.3L42.5 297L67.3 289Z" fill="#704820" stroke="#704820"></path><path d="M0 442.7L-4.2 493.3L-1.2 467.3Z" fill="#5b3b1f" stroke="#5b3b1f"></path><path d="M-1.2 467.3L-4.2 493.3L0 469.3Z" fill="#f59e0b" stroke="#f59e0b"></path><path d="M32.8 614L45.8 641.3L66.5 596Z" fill="#b2711f" stroke="#b2711f"></path><path d="M75.3 662.7L79.3 694.3L98.5 680.7Z" fill="#9c6321" stroke="#9c6321"></path><path d="M618.3 613.3L590.8 573L551.8 585.7Z" fill="#865521" stroke="#865521"></path><path d="M614.5 538.3L643.5 527.7L601.3 502.3Z" fill="#b2711f" stroke="#b2711f"></path><path d="M337.5 139.7L320.8 189.7L335.8 188Z" fill="#df8e16" stroke="#df8e16"></path><path d="M238.5 137.3L220.3 143.3L239.3 166.7Z" fill="#452f1d" stroke="#452f1d"></path><path d="M220.3 143.3L174 167.3L188.8 186Z" fill="#31241a" stroke="#31241a"></path><path d="M337.5 139.7L389.3 186.7L400 164.7Z" fill="#df8e16" stroke="#df8e16"></path><path d="M-4.2 493.3L0 529.3L35.8 489Z" fill="#df8e16" stroke="#df8e16"></path><path d="M1.8 531.7L0 594.7L35.5 580.7Z" fill="#452f1d" stroke="#452f1d"></path><path d="M480.3 194.3L466.5 176.7L480.3 201.7Z" fill="#df8e16" stroke="#df8e16"></path><path d="M377.3 124L337.5 139.7L400 164.7Z" fill="#1c1917" stroke="#1c1917"></path><path d="M487.5 175L466.5 176.7L480.3 194.3Z" fill="#704820" stroke="#704820"></path><path d="M132 165L94.3 228.3L173 213.3Z" fill="#1c1917" stroke="#1c1917"></path><path d="M96.3 237L94.3 228.3L67.5 268.3Z" fill="#865521" stroke="#865521"></path><path d="M0 278.7L0 327.7L42.5 297Z" fill="#c87f1c" stroke="#c87f1c"></path><path d="M377.3 124L400 164.7L430.8 137.3Z" fill="#c87f1c" stroke="#c87f1c"></path><path d="M399.8 803.3L385 764L360.5 775Z" fill="#704820" stroke="#704820"></path><path d="M399.8 803.3L405.3 783.7L385 764Z" fill="#5b3b1f" stroke="#5b3b1f"></path><path d="M62.5 681L79.3 694.3L75.3 662.7Z" fill="#704820" stroke="#704820"></path><path d="M79.3 694.3L120 731.7L130 708.3Z" fill="#b2711f" stroke="#b2711f"></path><path d="M220.3 143.3L188.8 186L239.3 166.7Z" fill="#1c1917" stroke="#1c1917"></path><path d="M188.8 186L174 167.3L184.5 204Z" fill="#5b3b1f" stroke="#5b3b1f"></path><path d="M654.3 534.7L643.5 527.7L614.5 538.3Z" fill="#31241a" stroke="#31241a"></path><path d="M548.8 712.3L587.8 661.3L546 668.3Z" fill="#5b3b1f" stroke="#5b3b1f"></path><path d="M554 660.7L587.8 661.3L536.8 645.7Z" fill="#c87f1c" stroke="#c87f1c"></path><path d="M615.5 592L654.3 534.7L614.5 538.3Z" fill="#31241a" stroke="#31241a"></path><path d="M20.8 672L62.5 681L45.8 641.3Z" fill="#704820" stroke="#704820"></path><path d="M45.8 641.3L62.5 681L75.3 662.7Z" fill="#f59e0b" stroke="#f59e0b"></path><path d="M79.3 694.3L63.8 734.7L120 731.7Z" fill="#f59e0b" stroke="#f59e0b"></path><path d="M140 826.3L196.8 777L184.5 757.7Z" fill="#f59e0b" stroke="#f59e0b"></path><path d="M184.5 757.7L203.8 779.7L198.3 728.3Z" fill="#c87f1c" stroke="#c87f1c"></path><path d="M196.8 777L203.8 779.7L184.5 757.7Z" fill="#452f1d" stroke="#452f1d"></path><path d="M0 355.3L31.5 365L1.8 335Z" fill="#31241a" stroke="#31241a"></path><path d="M0 442.7L0 361L-4.2 493.3Z" fill="#df8e16" stroke="#df8e16"></path><path d="M484.5 764.3L496.5 748.7L471.8 749.3Z" fill="#31241a" stroke="#31241a"></path><path d="M471.8 749.3L496.5 748.7L454.8 701.7Z" fill="#452f1d" stroke="#452f1d"></path><path d="M261 803.7L275.3 798L254.3 753.7Z" fill="#c87f1c" stroke="#c87f1c"></path><path d="M587.8 661.3L618.3 613.3L551.8 585.7Z" fill="#704820" stroke="#704820"></path><path d="M1.8 335L31.5 365L54.5 315.3Z" fill="#1c1917" stroke="#1c1917"></path><path d="M0 361L0 355.3L-4.2 493.3Z" fill="#452f1d" stroke="#452f1d"></path><path d="M496.5 748.7L516.3 737.3L473.3 684.7Z" fill="#c87f1c" stroke="#c87f1c"></path><path d="M238.5 137.3L239.3 166.7L271 163.7Z" fill="#452f1d" stroke="#452f1d"></path><path d="M238.5 137.3L271 163.7L242 129Z" fill="#c87f1c" stroke="#c87f1c"></path><path d="M497.3 172.3L480.3 194.3L480.3 201.7Z" fill="#1c1917" stroke="#1c1917"></path><path d="M455.8 138.7L430.8 137.3L447.8 174Z" fill="#1c1917" stroke="#1c1917"></path><path d="M567.5 267.7L564.8 236.7L548.8 254.3Z" fill="#1c1917" stroke="#1c1917"></path><path d="M548 193.3L497.3 172.3L480.3 201.7Z" fill="#5b3b1f" stroke="#5b3b1f"></path><path d="M637.5 285L555.8 300.3L601.5 356.3Z" fill="#df8e16" stroke="#df8e16"></path><path d="M533 731.7L548.8 712.3L515 685Z" fill="#f59e0b" stroke="#f59e0b"></path><path d="M242 129L271 163.7L291.8 143.3Z" fill="#452f1d" stroke="#452f1d"></path><path d="M642.3 342.3L638.5 348.7L675 371.7Z" fill="#31241a" stroke="#31241a"></path><path d="M631.5 404.3L638.5 348.7L602.8 386Z" fill="#f59e0b" stroke="#f59e0b"></path><path d="M638.5 348.7L631.5 404.3L675 384Z" fill="#c87f1c" stroke="#c87f1c"></path><path d="M0 327.7L1.8 335L54.5 315.3Z" fill="#b2711f" stroke="#b2711f"></path><path d="M0 327.7L54.5 315.3L42.5 297Z" fill="#1c1917" stroke="#1c1917"></path><path d="M496.5 748.7L502 756.3L516.3 737.3Z" fill="#452f1d" stroke="#452f1d"></path><path d="M516.3 737.3L533 731.7L515 685Z" fill="#df8e16" stroke="#df8e16"></path><path d="M467.3 792L484.5 764.3L471.8 749.3Z" fill="#f59e0b" stroke="#f59e0b"></path><path d="M542.8 766L533 731.7L516.3 737.3Z" fill="#865521" stroke="#865521"></path><path d="M235 813.3L261 803.7L254.3 753.7Z" fill="#452f1d" stroke="#452f1d"></path><path d="M275.3 798L303 809L280.8 760Z" fill="#9c6321" stroke="#9c6321"></path><path d="M235 813.3L254.3 753.7L203.8 779.7Z" fill="#704820" stroke="#704820"></path><path d="M-4.2 493.3L0 594.7L0 529.3Z" fill="#9c6321" stroke="#9c6321"></path><path d="M0 529.3L0 594.7L1.8 531.7Z" fill="#1c1917" stroke="#1c1917"></path><path d="M0 642.7L20.8 672L45.8 641.3Z" fill="#704820" stroke="#704820"></path><path d="M269.3 838.7L303 809L275.3 798Z" fill="#1c1917" stroke="#1c1917"></path><path d="M405.3 783.7L426.8 799.7L471.8 749.3Z" fill="#704820" stroke="#704820"></path><path d="M675 550.3L654.3 534.7L675 562Z" fill="#31241a" stroke="#31241a"></path><path d="M675 476L675 473.7L638.5 467Z" fill="#1c1917" stroke="#1c1917"></path><path d="M587.8 661.3L619.5 630.7L618.3 613.3Z" fill="#b2711f" stroke="#b2711f"></path><path d="M618.3 613.3L634.3 614L615.5 592Z" fill="#b2711f" stroke="#b2711f"></path><path d="M606.5 671L619.5 630.7L587.8 661.3Z" fill="#865521" stroke="#865521"></path><path d="M606.5 671L587.8 661.3L607.3 704.7Z" fill="#c87f1c" stroke="#c87f1c"></path><path d="M484.5 764.3L502 756.3L496.5 748.7Z" fill="#5b3b1f" stroke="#5b3b1f"></path><path d="M548 193.3L480.3 201.7L541.3 236Z" fill="#1c1917" stroke="#1c1917"></path><path d="M455.8 138.7L447.8 174L466.5 176.7Z" fill="#5b3b1f" stroke="#5b3b1f"></path><path d="M-4.2 493.3L0 601.3L0 594.7Z" fill="#f59e0b" stroke="#f59e0b"></path><path d="M0 594.7L0 601.3L32.8 614Z" fill="#1c1917" stroke="#1c1917"></path><path d="M297.5 105L242 129L291.8 143.3Z" fill="#1c1917" stroke="#1c1917"></path><path d="M238.5 137.3L242 129L220.3 143.3Z" fill="#b2711f" stroke="#b2711f"></path><path d="M139.8 150.7L132 165L174 167.3Z" fill="#1c1917" stroke="#1c1917"></path><path d="M0 278.7L42.5 297L0 276Z" fill="#704820" stroke="#704820"></path><path d="M1.8 335L0 327.7L0 355.3Z" fill="#9c6321" stroke="#9c6321"></path><path d="M0 355.3L0 327.7L-4.2 493.3Z" fill="#452f1d" stroke="#452f1d"></path><path d="M-4.2 493.3L0 605L0 601.3Z" fill="#b2711f" stroke="#b2711f"></path><path d="M0 601.3L0 605L32.8 614Z" fill="#f59e0b" stroke="#f59e0b"></path><path d="M430.8 137.3L400 164.7L447.8 174Z" fill="#df8e16" stroke="#df8e16"></path><path d="M337.5 139.7L302 113.3L291.8 143.3Z" fill="#5b3b1f" stroke="#5b3b1f"></path><path d="M379 816.3L399.8 803.3L360.5 775Z" fill="#31241a" stroke="#31241a"></path><path d="M520 793L524.3 785.7L502 756.3Z" fill="#1c1917" stroke="#1c1917"></path><path d="M345.5 115.3L333.8 119L337.5 139.7Z" fill="#704820" stroke="#704820"></path><path d="M675 439.3L629.5 429L638.5 467Z" fill="#c87f1c" stroke="#c87f1c"></path><path d="M638.5 348.7L642.3 342.3L601.5 356.3Z" fill="#5b3b1f" stroke="#5b3b1f"></path><path d="M455.8 138.7L466.5 176.7L481.5 133.3Z" fill="#c87f1c" stroke="#c87f1c"></path><path d="M675 600.3L634.3 614L644.5 670.3Z" fill="#704820" stroke="#704820"></path><path d="M619.5 630.7L634.3 614L618.3 613.3Z" fill="#865521" stroke="#865521"></path><path d="M140 826.3L205.5 798.3L196.8 777Z" fill="#df8e16" stroke="#df8e16"></path><path d="M196.8 777L205.5 798.3L203.8 779.7Z" fill="#704820" stroke="#704820"></path><path d="M303.5 854.3L333.3 820.3L303 809Z" fill="#865521" stroke="#865521"></path><path d="M399.8 803.3L426.8 799.7L405.3 783.7Z" fill="#df8e16" stroke="#df8e16"></path><path d="M377.3 124L345.5 115.3L337.5 139.7Z" fill="#9c6321" stroke="#9c6321"></path><path d="M333.8 119L302 113.3L337.5 139.7Z" fill="#452f1d" stroke="#452f1d"></path><path d="M328.8 104.7L345.5 115.3L329.5 78.7Z" fill="#704820" stroke="#704820"></path><path d="M328.8 104.7L302 113.3L333.8 119Z" fill="#b2711f" stroke="#b2711f"></path><path d="M174 167.3L132 165L173 213.3Z" fill="#c87f1c" stroke="#c87f1c"></path><path d="M0 276L42.5 297L0 256.3Z" fill="#452f1d" stroke="#452f1d"></path><path d="M139.8 150.7L174 167.3L178.8 120.3Z" fill="#df8e16" stroke="#df8e16"></path><path d="M607.3 704.7L587.8 661.3L548.8 712.3Z" fill="#1c1917" stroke="#1c1917"></path><path d="M264.3 834.3L275.3 798L261 803.7Z" fill="#9c6321" stroke="#9c6321"></path><path d="M303 809L333.3 820.3L326.8 759.7Z" fill="#f59e0b" stroke="#f59e0b"></path><path d="M399.8 803.3L443.5 845.7L426.8 799.7Z" fill="#452f1d" stroke="#452f1d"></path><path d="M481.5 133.3L466.5 176.7L487.5 175Z" fill="#31241a" stroke="#31241a"></path><path d="M430.8 137.3L411 108.3L377.3 124Z" fill="#b2711f" stroke="#b2711f"></path><path d="M333.3 820.3L379 816.3L360.5 775Z" fill="#5b3b1f" stroke="#5b3b1f"></path><path d="M548 190L548 193.3L594.8 191Z" fill="#1c1917" stroke="#1c1917"></path><path d="M564.8 236.7L548 193.3L541.3 236Z" fill="#31241a" stroke="#31241a"></path><path d="M497.3 172.3L481.5 133.3L487.5 175Z" fill="#9c6321" stroke="#9c6321"></path><path d="M205.5 798.3L235 813.3L203.8 779.7Z" fill="#f59e0b" stroke="#f59e0b"></path><path d="M675 476L643.5 527.7L654.3 534.7Z" fill="#9c6321" stroke="#9c6321"></path><path d="M675 476L638.5 467L643.5 527.7Z" fill="#f59e0b" stroke="#f59e0b"></path><path d="M675 537.7L675 476L654.3 534.7Z" fill="#c87f1c" stroke="#c87f1c"></path><path d="M675 473.7L675 439.3L638.5 467Z" fill="#452f1d" stroke="#452f1d"></path><path d="M476.8 816L462.5 794L443.5 845.7Z" fill="#452f1d" stroke="#452f1d"></path><path d="M426.8 799.7L462.5 794L471.8 749.3Z" fill="#5b3b1f" stroke="#5b3b1f"></path><path d="M502 756.3L542.8 766L516.3 737.3Z" fill="#704820" stroke="#704820"></path><path d="M533 731.7L592.8 730L548.8 712.3Z" fill="#df8e16" stroke="#df8e16"></path><path d="M462.5 794L467.3 792L471.8 749.3Z" fill="#31241a" stroke="#31241a"></path><path d="M676.3 429.7L671.3 404.7L629.5 429Z" fill="#5b3b1f" stroke="#5b3b1f"></path><path d="M594.8 191L548 193.3L564.8 236.7Z" fill="#9c6321" stroke="#9c6321"></path><path d="M548 193.3L548 190L497.3 172.3Z" fill="#452f1d" stroke="#452f1d"></path><path d="M675 439.3L676.3 429.7L629.5 429Z" fill="#5b3b1f" stroke="#5b3b1f"></path><path d="M675 473.7L676.3 429.7L675 439.3Z" fill="#704820" stroke="#704820"></path><path d="M675 476L676.3 429.7L675 473.7Z" fill="#df8e16" stroke="#df8e16"></path><path d="M0 642.7L45.8 641.3L32.8 614Z" fill="#b2711f" stroke="#b2711f"></path><path d="M28.8 705.7L63.8 734.7L79.3 694.3Z" fill="#1c1917" stroke="#1c1917"></path><path d="M120 731.7L92.5 787L184.5 757.7Z" fill="#5b3b1f" stroke="#5b3b1f"></path><path d="M371.3 98.3L345.5 115.3L377.3 124Z" fill="#452f1d" stroke="#452f1d"></path><path d="M345.5 115.3L328.8 104.7L333.8 119Z" fill="#9c6321" stroke="#9c6321"></path><path d="M302 113.3L297.5 105L291.8 143.3Z" fill="#f59e0b" stroke="#f59e0b"></path><path d="M328.8 104.7L297.5 105L302 113.3Z" fill="#31241a" stroke="#31241a"></path><path d="M178.8 120.3L174 167.3L220.3 143.3Z" fill="#b2711f" stroke="#b2711f"></path><path d="M178.8 120.3L220.3 143.3L242 129Z" fill="#452f1d" stroke="#452f1d"></path><path d="M42.5 297L67.5 268.3L0 256.3Z" fill="#b2711f" stroke="#b2711f"></path><path d="M0 605L0 642.7L32.8 614Z" fill="#5b3b1f" stroke="#5b3b1f"></path><path d="M-4.2 493.3L0 642.7L0 605Z" fill="#df8e16" stroke="#df8e16"></path><path d="M654.3 534.7L615.5 592L675 562Z" fill="#b2711f" stroke="#b2711f"></path><path d="M675 550.3L675 537.7L654.3 534.7Z" fill="#b2711f" stroke="#b2711f"></path><path d="M675 476L675 537.7L676.3 429.7Z" fill="#c87f1c" stroke="#c87f1c"></path><path d="M676.3 429.7L675 384L671.3 404.7Z" fill="#b2711f" stroke="#b2711f"></path><path d="M671.3 404.7L675 384L631.5 404.3Z" fill="#704820" stroke="#704820"></path><path d="M642.3 342.3L637.5 285L601.5 356.3Z" fill="#f59e0b" stroke="#f59e0b"></path><path d="M675 562L615.5 592L675 600.3Z" fill="#704820" stroke="#704820"></path><path d="M675 537.7L675 550.3L676.3 429.7Z" fill="#31241a" stroke="#31241a"></path><path d="M668.3 331L637.5 285L642.3 342.3Z" fill="#452f1d" stroke="#452f1d"></path><path d="M67.5 268.3L94.3 228.3L37.8 218.3Z" fill="#df8e16" stroke="#df8e16"></path><path d="M0 327.7L0 278.7L-4.2 493.3Z" fill="#452f1d" stroke="#452f1d"></path><path d="M633.3 249.3L602.3 230.7L567.5 267.7Z" fill="#b2711f" stroke="#b2711f"></path><path d="M28.8 705.7L62.5 681L20.8 672Z" fill="#704820" stroke="#704820"></path><path d="M28.8 705.7L79.3 694.3L62.5 681Z" fill="#df8e16" stroke="#df8e16"></path><path d="M236.5 852.7L264.3 834.3L235 813.3Z" fill="#f59e0b" stroke="#f59e0b"></path><path d="M418.8 104L430.8 137.3L455.8 138.7Z" fill="#452f1d" stroke="#452f1d"></path><path d="M418.8 104L411 108.3L430.8 137.3Z" fill="#1c1917" stroke="#1c1917"></path><path d="M676.3 371L675 371.7L675 384Z" fill="#704820" stroke="#704820"></path><path d="M675 384L675 371.7L638.5 348.7Z" fill="#c87f1c" stroke="#c87f1c"></path><path d="M92.5 170.3L94.3 228.3L132 165Z" fill="#1c1917" stroke="#1c1917"></path><path d="M0 278.7L0 276L-4.2 493.3Z" fill="#704820" stroke="#704820"></path><path d="M675 600.3L615.5 592L634.3 614Z" fill="#1c1917" stroke="#1c1917"></path><path d="M675 550.3L675 562L676.3 429.7Z" fill="#865521" stroke="#865521"></path><path d="M534.8 144.7L497.3 172.3L548 190Z" fill="#df8e16" stroke="#df8e16"></path><path d="M534.8 144.7L481.5 133.3L497.3 172.3Z" fill="#1c1917" stroke="#1c1917"></path><path d="M676.3 429.7L676.3 371L675 384Z" fill="#df8e16" stroke="#df8e16"></path><path d="M675 371.7L668.3 331L642.3 342.3Z" fill="#c87f1c" stroke="#c87f1c"></path><path d="M107 129.7L92.5 170.3L132 165Z" fill="#df8e16" stroke="#df8e16"></path><path d="M411 108.3L371.3 98.3L377.3 124Z" fill="#704820" stroke="#704820"></path><path d="M315.8 71.3L257.3 89L297.5 105Z" fill="#b2711f" stroke="#b2711f"></path><path d="M269.3 838.7L264.3 834.3L236.5 852.7Z" fill="#452f1d" stroke="#452f1d"></path><path d="M235 813.3L264.3 834.3L261 803.7Z" fill="#f59e0b" stroke="#f59e0b"></path><path d="M333.3 820.3L374.3 835L379 816.3Z" fill="#c87f1c" stroke="#c87f1c"></path><path d="M212.5 70.3L178.8 120.3L242 129Z" fill="#31241a" stroke="#31241a"></path><path d="M66.3 155.3L71.3 174.7L92.5 170.3Z" fill="#865521" stroke="#865521"></path><path d="M380 852.7L374.3 835L355.5 866.7Z" fill="#452f1d" stroke="#452f1d"></path><path d="M379 816.3L374.3 835L399.8 803.3Z" fill="#df8e16" stroke="#df8e16"></path><path d="M502 756.3L484.5 764.3L520 793Z" fill="#865521" stroke="#865521"></path><path d="M49.5 204L37.8 218.3L94.3 228.3Z" fill="#f59e0b" stroke="#f59e0b"></path><path d="M71.3 174.7L49.5 204L94.3 228.3Z" fill="#f59e0b" stroke="#f59e0b"></path><path d="M484.5 764.3L467.3 792L520 793Z" fill="#f59e0b" stroke="#f59e0b"></path><path d="M524.3 785.7L542.8 766L502 756.3Z" fill="#f59e0b" stroke="#f59e0b"></path><path d="M0 690L28.8 705.7L20.8 672Z" fill="#1c1917" stroke="#1c1917"></path><path d="M592.8 730L607.3 704.7L548.8 712.3Z" fill="#1c1917" stroke="#1c1917"></path><path d="M606.5 671L644.5 670.3L619.5 630.7Z" fill="#df8e16" stroke="#df8e16"></path><path d="M220.5 837L235 813.3L205.5 798.3Z" fill="#df8e16" stroke="#df8e16"></path><path d="M264.3 834.3L269.3 838.7L275.3 798Z" fill="#31241a" stroke="#31241a"></path><path d="M676.3 371L668.3 331L675 371.7Z" fill="#df8e16" stroke="#df8e16"></path><path d="M637.5 285L633.3 249.3L567.5 267.7Z" fill="#c87f1c" stroke="#c87f1c"></path><path d="M470.8 77.7L418.8 104L455.8 138.7Z" fill="#452f1d" stroke="#452f1d"></path><path d="M411 108.3L379 83L371.3 98.3Z" fill="#452f1d" stroke="#452f1d"></path><path d="M32.8 204.7L0 256.3L37.8 218.3Z" fill="#704820" stroke="#704820"></path><path d="M37.8 218.3L0 256.3L67.5 268.3Z" fill="#865521" stroke="#865521"></path><path d="M0 276L0 256.3L-4.2 493.3Z" fill="#1c1917" stroke="#1c1917"></path><path d="M648.3 730L619.5 697.3L607.3 704.7Z" fill="#452f1d" stroke="#452f1d"></path><path d="M607.3 704.7L619.5 697.3L606.5 671Z" fill="#b2711f" stroke="#b2711f"></path><path d="M476.8 816L467.3 792L462.5 794Z" fill="#9c6321" stroke="#9c6321"></path><path d="M542.8 766L592.8 730L533 731.7Z" fill="#df8e16" stroke="#df8e16"></path><path d="M92.5 170.3L71.3 174.7L94.3 228.3Z" fill="#31241a" stroke="#31241a"></path><path d="M49.5 204L32.8 204.7L37.8 218.3Z" fill="#df8e16" stroke="#df8e16"></path><path d="M107 129.7L132 165L139.8 150.7Z" fill="#5b3b1f" stroke="#5b3b1f"></path><path d="M600.8 752.7L592.8 730L542.8 766Z" fill="#31241a" stroke="#31241a"></path><path d="M315.8 71.3L297.5 105L328.8 104.7Z" fill="#f59e0b" stroke="#f59e0b"></path><path d="M297.5 105L257.3 89L242 129Z" fill="#865521" stroke="#865521"></path><path d="M644.5 670.3L634.3 614L619.5 630.7Z" fill="#1c1917" stroke="#1c1917"></path><path d="M675 562L675 600.3L676.3 429.7Z" fill="#5b3b1f" stroke="#5b3b1f"></path><path d="M675 282L633.3 249.3L637.5 285Z" fill="#b2711f" stroke="#b2711f"></path><path d="M602.3 230.7L601.5 202.3L564.8 236.7Z" fill="#9c6321" stroke="#9c6321"></path><path d="M140 826.3L220.5 837L205.5 798.3Z" fill="#31241a" stroke="#31241a"></path><path d="M443.5 845.7L462.5 794L426.8 799.7Z" fill="#9c6321" stroke="#9c6321"></path><path d="M476.8 816L520 793L467.3 792Z" fill="#b2711f" stroke="#b2711f"></path><path d="M572 809.3L600.8 752.7L542.8 766Z" fill="#b2711f" stroke="#b2711f"></path><path d="M619.5 697.3L644.5 670.3L606.5 671Z" fill="#865521" stroke="#865521"></path><path d="M675 702.7L644.5 670.3L619.5 697.3Z" fill="#c87f1c" stroke="#c87f1c"></path><path d="M27.5 729.3L56.8 750.3L63.8 734.7Z" fill="#b2711f" stroke="#b2711f"></path><path d="M63.8 734.7L92.5 787L120 731.7Z" fill="#704820" stroke="#704820"></path><path d="M41.5 193.7L32.8 204.7L49.5 204Z" fill="#b2711f" stroke="#b2711f"></path><path d="M379 83L329.5 78.7L371.3 98.3Z" fill="#704820" stroke="#704820"></path><path d="M371.3 98.3L329.5 78.7L345.5 115.3Z" fill="#1c1917" stroke="#1c1917"></path><path d="M633.3 249.3L601.5 202.3L602.3 230.7Z" fill="#704820" stroke="#704820"></path><path d="M71.3 174.7L41.5 193.7L49.5 204Z" fill="#31241a" stroke="#31241a"></path><path d="M568.5 139.7L534.8 144.7L548 190Z" fill="#df8e16" stroke="#df8e16"></path><path d="M481.5 133.3L470.8 77.7L455.8 138.7Z" fill="#704820" stroke="#704820"></path><path d="M407.3 59.7L379 83L418.8 104Z" fill="#5b3b1f" stroke="#5b3b1f"></path><path d="M418.8 104L379 83L411 108.3Z" fill="#31241a" stroke="#31241a"></path><path d="M0 642.7L0 690L20.8 672Z" fill="#c87f1c" stroke="#c87f1c"></path><path d="M28.8 705.7L27.5 729.3L63.8 734.7Z" fill="#1c1917" stroke="#1c1917"></path><path d="M-4.2 794.3L0 690L0 642.7Z" fill="#9c6321" stroke="#9c6321"></path><path d="M283 873.7L303.5 854.3L269.3 838.7Z" fill="#9c6321" stroke="#9c6321"></path><path d="M269.3 838.7L303.5 854.3L303 809Z" fill="#5b3b1f" stroke="#5b3b1f"></path><path d="M374.3 835L380 852.7L399.8 803.3Z" fill="#df8e16" stroke="#df8e16"></path><path d="M615.3 162L594.8 191L601.5 202.3Z" fill="#5b3b1f" stroke="#5b3b1f"></path><path d="M601.5 202.3L594.8 191L564.8 236.7Z" fill="#5b3b1f" stroke="#5b3b1f"></path><path d="M0 719.3L27.5 729.3L28.8 705.7Z" fill="#865521" stroke="#865521"></path><path d="M341.8 862.7L374.3 835L333.3 820.3Z" fill="#1c1917" stroke="#1c1917"></path><path d="M88.3 792.7L92.5 787L61.5 792.7Z" fill="#865521" stroke="#865521"></path><path d="M56.8 750.3L92.5 787L63.8 734.7Z" fill="#865521" stroke="#865521"></path><path d="M676.3 371L675 299.7L668.3 331Z" fill="#b2711f" stroke="#b2711f"></path><path d="M668.3 331L675 299.7L637.5 285Z" fill="#452f1d" stroke="#452f1d"></path><path d="M633.3 249.3L675 235.3L601.5 202.3Z" fill="#9c6321" stroke="#9c6321"></path><path d="M299.5 13.3L315.8 71.3L341.3 12.3Z" fill="#1c1917" stroke="#1c1917"></path><path d="M329.5 78.7L315.8 71.3L328.8 104.7Z" fill="#c87f1c" stroke="#c87f1c"></path><path d="M234 900L236.5 852.7L202.5 900Z" fill="#5b3b1f" stroke="#5b3b1f"></path><path d="M220.5 837L236.5 852.7L235 813.3Z" fill="#31241a" stroke="#31241a"></path><path d="M676.3 371L675 297.3L675 299.7Z" fill="#452f1d" stroke="#452f1d"></path><path d="M675 299.7L675 297.3L637.5 285Z" fill="#c87f1c" stroke="#c87f1c"></path><path d="M283 873.7L311.8 861.3L303.5 854.3Z" fill="#31241a" stroke="#31241a"></path><path d="M303.5 854.3L311.8 861.3L333.3 820.3Z" fill="#c87f1c" stroke="#c87f1c"></path><path d="M128.8 109L107 129.7L139.8 150.7Z" fill="#5b3b1f" stroke="#5b3b1f"></path><path d="M71.3 174.7L66.3 155.3L41.5 193.7Z" fill="#c87f1c" stroke="#c87f1c"></path><path d="M139.8 105.7L139.8 150.7L178.8 120.3Z" fill="#b2711f" stroke="#b2711f"></path><path d="M139.8 105.7L178.8 120.3L179.5 69Z" fill="#f59e0b" stroke="#f59e0b"></path><path d="M311.8 861.3L341.8 862.7L333.3 820.3Z" fill="#865521" stroke="#865521"></path><path d="M558.8 113.3L530 128.7L534.8 144.7Z" fill="#31241a" stroke="#31241a"></path><path d="M534.8 144.7L530 128.7L481.5 133.3Z" fill="#c87f1c" stroke="#c87f1c"></path><path d="M61.5 792.7L92.5 787L56.8 750.3Z" fill="#f59e0b" stroke="#f59e0b"></path><path d="M92.5 787L140 826.3L184.5 757.7Z" fill="#1c1917" stroke="#1c1917"></path><path d="M107 129.7L66.3 155.3L92.5 170.3Z" fill="#f59e0b" stroke="#f59e0b"></path><path d="M41.5 193.7L27.8 187L32.8 204.7Z" fill="#1c1917" stroke="#1c1917"></path><path d="M439.5 869.3L443.5 845.7L380 852.7Z" fill="#c87f1c" stroke="#c87f1c"></path><path d="M380 852.7L443.5 845.7L399.8 803.3Z" fill="#1c1917" stroke="#1c1917"></path><path d="M476.8 816L531.3 815.3L520 793Z" fill="#704820" stroke="#704820"></path><path d="M137.8 826.3L140 826.3L92.5 787Z" fill="#df8e16" stroke="#df8e16"></path><path d="M224.3 67.7L242 129L257.3 89Z" fill="#c87f1c" stroke="#c87f1c"></path><path d="M107 129.7L64.3 123L66.3 155.3Z" fill="#1c1917" stroke="#1c1917"></path><path d="M676.3 371L675 282L675 297.3Z" fill="#f59e0b" stroke="#f59e0b"></path><path d="M675 297.3L675 282L637.5 285Z" fill="#5b3b1f" stroke="#5b3b1f"></path><path d="M66.3 155.3L27.8 187L41.5 193.7Z" fill="#865521" stroke="#865521"></path><path d="M32.8 204.7L0 180.7L0 256.3Z" fill="#c87f1c" stroke="#c87f1c"></path><path d="M335.5 900L355.5 866.7L341.8 862.7Z" fill="#865521" stroke="#865521"></path><path d="M341.8 862.7L355.5 866.7L374.3 835Z" fill="#b2711f" stroke="#b2711f"></path><path d="M320.8 900L341.8 862.7L311.8 861.3Z" fill="#865521" stroke="#865521"></path><path d="M120 836L137.8 826.3L112.3 832Z" fill="#9c6321" stroke="#9c6321"></path><path d="M140 826.3L147 859.7L220.5 837Z" fill="#865521" stroke="#865521"></path><path d="M572 809.3L542.8 766L524.3 785.7Z" fill="#f59e0b" stroke="#f59e0b"></path><path d="M592.8 730L648.3 730L607.3 704.7Z" fill="#df8e16" stroke="#df8e16"></path><path d="M531.3 815.3L524.3 785.7L520 793Z" fill="#1c1917" stroke="#1c1917"></path><path d="M139.8 105.7L128.8 109L139.8 150.7Z" fill="#31241a" stroke="#31241a"></path><path d="M0 690L0 719.3L28.8 705.7Z" fill="#5b3b1f" stroke="#5b3b1f"></path><path d="M27.5 729.3L0 761L56.8 750.3Z" fill="#df8e16" stroke="#df8e16"></path><path d="M-4.2 794.3L0 719.3L0 690Z" fill="#b2711f" stroke="#b2711f"></path><path d="M235.5 56.7L224.3 67.7L257.3 89Z" fill="#865521" stroke="#865521"></path><path d="M139.8 105.7L137 86L128.8 109Z" fill="#b2711f" stroke="#b2711f"></path><path d="M242.3 900L283 873.7L236.5 852.7Z" fill="#452f1d" stroke="#452f1d"></path><path d="M236.5 852.7L283 873.7L269.3 838.7Z" fill="#31241a" stroke="#31241a"></path><path d="M224.3 67.7L212.5 70.3L242 129Z" fill="#9c6321" stroke="#9c6321"></path><path d="M531.3 847.7L531.3 815.3L476.8 816Z" fill="#f59e0b" stroke="#f59e0b"></path><path d="M558.8 113.3L509 102.7L530 128.7Z" fill="#452f1d" stroke="#452f1d"></path><path d="M530 128.7L509 102.7L481.5 133.3Z" fill="#5b3b1f" stroke="#5b3b1f"></path><path d="M379 83L341.3 12.3L329.5 78.7Z" fill="#b2711f" stroke="#b2711f"></path><path d="M509 102.7L496.3 96L481.5 133.3Z" fill="#704820" stroke="#704820"></path><path d="M594.8 191L568.5 139.7L548 190Z" fill="#704820" stroke="#704820"></path><path d="M570 136L568.5 139.7L614.3 133.3Z" fill="#5b3b1f" stroke="#5b3b1f"></path><path d="M-4.2 794.3L0 730.7L0 719.3Z" fill="#5b3b1f" stroke="#5b3b1f"></path><path d="M0 719.3L0 730.7L27.5 729.3Z" fill="#31241a" stroke="#31241a"></path><path d="M0 761L61.5 792.7L56.8 750.3Z" fill="#5b3b1f" stroke="#5b3b1f"></path><path d="M112.3 832L137.8 826.3L92.5 787Z" fill="#c87f1c" stroke="#c87f1c"></path><path d="M494.5 72L501 93.3L523.3 70.7Z" fill="#865521" stroke="#865521"></path><path d="M509 102.7L501 93.3L496.3 96Z" fill="#31241a" stroke="#31241a"></path><path d="M453.5 55.3L407.3 59.7L418.8 104Z" fill="#1c1917" stroke="#1c1917"></path><path d="M615.3 162L568.5 139.7L594.8 191Z" fill="#df8e16" stroke="#df8e16"></path><path d="M568.5 139.7L558.8 113.3L534.8 144.7Z" fill="#5b3b1f" stroke="#5b3b1f"></path><path d="M470.8 77.7L481.5 133.3L496.3 96Z" fill="#31241a" stroke="#31241a"></path><path d="M245 41.3L235.5 56.7L257.3 89Z" fill="#1c1917" stroke="#1c1917"></path><path d="M285 41.7L257.3 89L315.8 71.3Z" fill="#865521" stroke="#865521"></path><path d="M224.3 67.7L211.3 22.3L212.5 70.3Z" fill="#c87f1c" stroke="#c87f1c"></path><path d="M212.5 70.3L179.5 69L178.8 120.3Z" fill="#b2711f" stroke="#b2711f"></path><path d="M494.5 72L470.8 77.7L496.3 96Z" fill="#865521" stroke="#865521"></path><path d="M112.3 832L92.5 787L92.3 821.3Z" fill="#df8e16" stroke="#df8e16"></path><path d="M137.8 855.7L147 859.7L140 826.3Z" fill="#b2711f" stroke="#b2711f"></path><path d="M92.3 821.3L92.5 787L88.3 792.7Z" fill="#df8e16" stroke="#df8e16"></path><path d="M180.8 27.3L179.5 69L212.5 70.3Z" fill="#b2711f" stroke="#b2711f"></path><path d="M91.5 101L64.3 123L107 129.7Z" fill="#452f1d" stroke="#452f1d"></path><path d="M179.5 69L137 86L139.8 105.7Z" fill="#5b3b1f" stroke="#5b3b1f"></path><path d="M0 160L0 180.7L27.8 187Z" fill="#df8e16" stroke="#df8e16"></path><path d="M60.5 806.3L92.3 821.3L88.3 792.7Z" fill="#5b3b1f" stroke="#5b3b1f"></path><path d="M407.3 900L439.5 869.3L380 852.7Z" fill="#865521" stroke="#865521"></path><path d="M443.5 845.7L469.8 869.7L476.8 816Z" fill="#1c1917" stroke="#1c1917"></path><path d="M407.3 900L380 852.7L355.5 866.7Z" fill="#704820" stroke="#704820"></path><path d="M648.3 730.3L592.8 730L600.8 752.7Z" fill="#452f1d" stroke="#452f1d"></path><path d="M648.3 730.3L648.3 730L592.8 730Z" fill="#f59e0b" stroke="#f59e0b"></path><path d="M644.5 670.3L675 702.7L675 600.3Z" fill="#9c6321" stroke="#9c6321"></path><path d="M616.5 785.7L648.3 730.3L600.8 752.7Z" fill="#f59e0b" stroke="#f59e0b"></path><path d="M648.3 730L675 702.7L619.5 697.3Z" fill="#df8e16" stroke="#df8e16"></path><path d="M676.3 371L675 235.3L675 282Z" fill="#31241a" stroke="#31241a"></path><path d="M675 282L675 235.3L633.3 249.3Z" fill="#452f1d" stroke="#452f1d"></path><path d="M633.5 161L615.3 162L601.5 202.3Z" fill="#704820" stroke="#704820"></path><path d="M570 136L558.8 113.3L568.5 139.7Z" fill="#df8e16" stroke="#df8e16"></path><path d="M299.5 13.3L285 41.7L315.8 71.3Z" fill="#452f1d" stroke="#452f1d"></path><path d="M235.5 56.7L211.3 22.3L224.3 67.7Z" fill="#9c6321" stroke="#9c6321"></path><path d="M91.5 101L107 129.7L128.8 109Z" fill="#865521" stroke="#865521"></path><path d="M32.8 823L60.5 806.3L61.5 792.7Z" fill="#452f1d" stroke="#452f1d"></path><path d="M61.5 792.7L60.5 806.3L88.3 792.7Z" fill="#1c1917" stroke="#1c1917"></path><path d="M137.8 855.7L120 836L91.3 894.7Z" fill="#31241a" stroke="#31241a"></path><path d="M137.8 855.7L137.8 826.3L120 836Z" fill="#704820" stroke="#704820"></path><path d="M0 160L27.8 187L7.8 132.3Z" fill="#9c6321" stroke="#9c6321"></path><path d="M27.8 187L0 180.7L32.8 204.7Z" fill="#704820" stroke="#704820"></path><path d="M0 256.3L0 180.7L-4.2 493.3Z" fill="#1c1917" stroke="#1c1917"></path><path d="M575.5 89L558.8 113.3L570 136Z" fill="#f59e0b" stroke="#f59e0b"></path><path d="M501 93.3L494.5 72L496.3 96Z" fill="#c87f1c" stroke="#c87f1c"></path><path d="M568.5 825L572 809.3L531.3 815.3Z" fill="#31241a" stroke="#31241a"></path><path d="M531.3 815.3L572 809.3L524.3 785.7Z" fill="#865521" stroke="#865521"></path><path d="M675 722.3L648.3 730L675 729Z" fill="#df8e16" stroke="#df8e16"></path><path d="M675 722.3L675 702.7L648.3 730Z" fill="#df8e16" stroke="#df8e16"></path><path d="M675 600.3L678.3 839.3L676.3 429.7Z" fill="#5b3b1f" stroke="#5b3b1f"></path><path d="M120 836L112.3 832L79.5 844.7Z" fill="#1c1917" stroke="#1c1917"></path><path d="M137.8 855.7L140 826.3L137.8 826.3Z" fill="#9c6321" stroke="#9c6321"></path><path d="M79.5 844.7L112.3 832L92.3 821.3Z" fill="#c87f1c" stroke="#c87f1c"></path><path d="M111 76.7L91.5 101L128.8 109Z" fill="#df8e16" stroke="#df8e16"></path><path d="M111 76.7L128.8 109L137 86Z" fill="#df8e16" stroke="#df8e16"></path><path d="M285 41.7L245 41.3L257.3 89Z" fill="#31241a" stroke="#31241a"></path><path d="M179.5 69L140.3 68.3L137 86Z" fill="#9c6321" stroke="#9c6321"></path><path d="M437.8 900L469.8 869.7L439.5 869.3Z" fill="#1c1917" stroke="#1c1917"></path><path d="M439.5 869.3L469.8 869.7L443.5 845.7Z" fill="#b2711f" stroke="#b2711f"></path><path d="M523.3 70.7L501 93.3L509 102.7Z" fill="#df8e16" stroke="#df8e16"></path><path d="M425 41.7L408 43.3L407.3 59.7Z" fill="#31241a" stroke="#31241a"></path><path d="M407.3 59.7L408 43.3L379 83Z" fill="#31241a" stroke="#31241a"></path><path d="M453.5 55.3L418.8 104L470.8 77.7Z" fill="#865521" stroke="#865521"></path><path d="M494.5 72L453.5 55.3L470.8 77.7Z" fill="#b2711f" stroke="#b2711f"></path><path d="M0 730.7L0 761L27.5 729.3Z" fill="#865521" stroke="#865521"></path><path d="M-4.2 794.3L0 761L0 730.7Z" fill="#b2711f" stroke="#b2711f"></path><path d="M242.3 900L320.8 900L283 873.7Z" fill="#865521" stroke="#865521"></path><path d="M283 873.7L320.8 900L311.8 861.3Z" fill="#865521" stroke="#865521"></path><path d="M320.8 900L335.5 900L341.8 862.7Z" fill="#704820" stroke="#704820"></path><path d="M136.3 33.7L140.3 68.3L179.5 69Z" fill="#704820" stroke="#704820"></path><path d="M469.8 869.7L531.3 847.7L476.8 816Z" fill="#c87f1c" stroke="#c87f1c"></path><path d="M439.5 26.7L425 41.7L453.5 55.3Z" fill="#f59e0b" stroke="#f59e0b"></path><path d="M453.5 55.3L425 41.7L407.3 59.7Z" fill="#865521" stroke="#865521"></path><path d="M341.3 12.3L315.8 71.3L329.5 78.7Z" fill="#704820" stroke="#704820"></path><path d="M285 41.7L262 0L245 41.3Z" fill="#704820" stroke="#704820"></path><path d="M592.5 807.3L600.8 752.7L572 809.3Z" fill="#865521" stroke="#865521"></path><path d="M592.5 807.3L616.5 785.7L600.8 752.7Z" fill="#31241a" stroke="#31241a"></path><path d="M531.3 847.7L568.5 825L531.3 815.3Z" fill="#452f1d" stroke="#452f1d"></path><path d="M575.8 825.3L592.5 807.3L572 809.3Z" fill="#c87f1c" stroke="#c87f1c"></path><path d="M675 173L633.5 161L601.5 202.3Z" fill="#5b3b1f" stroke="#5b3b1f"></path><path d="M615.3 162L614.3 133.3L568.5 139.7Z" fill="#1c1917" stroke="#1c1917"></path><path d="M558.8 113.3L523.3 70.7L509 102.7Z" fill="#31241a" stroke="#31241a"></path><path d="M675 729L648.3 730L648.3 730.3Z" fill="#31241a" stroke="#31241a"></path><path d="M675 702.7L678.3 839.3L675 600.3Z" fill="#1c1917" stroke="#1c1917"></path><path d="M234 900L242.3 900L236.5 852.7Z" fill="#9c6321" stroke="#9c6321"></path><path d="M439.5 26.7L410.8 35.3L425 41.7Z" fill="#1c1917" stroke="#1c1917"></path><path d="M425 41.7L410.8 35.3L408 43.3Z" fill="#1c1917" stroke="#1c1917"></path><path d="M140.3 68.3L111 76.7L137 86Z" fill="#df8e16" stroke="#df8e16"></path><path d="M41.8 97.7L7.8 132.3L64.3 123Z" fill="#5b3b1f" stroke="#5b3b1f"></path><path d="M7.8 132.3L27.8 187L66.3 155.3Z" fill="#c87f1c" stroke="#c87f1c"></path><path d="M7.8 132.3L66.3 155.3L64.3 123Z" fill="#452f1d" stroke="#452f1d"></path><path d="M0 180.7L0 160L-4.2 493.3Z" fill="#5b3b1f" stroke="#5b3b1f"></path><path d="M202.5 900L236.5 852.7L220.5 837Z" fill="#1c1917" stroke="#1c1917"></path><path d="M202.5 900L220.5 837L147 859.7Z" fill="#df8e16" stroke="#df8e16"></path><path d="M582.5 847.7L575.8 825.3L568.5 825Z" fill="#704820" stroke="#704820"></path><path d="M568.5 825L575.8 825.3L572 809.3Z" fill="#5b3b1f" stroke="#5b3b1f"></path><path d="M592.5 807.3L656.3 791L616.5 785.7Z" fill="#31241a" stroke="#31241a"></path><path d="M335.5 900L407.3 900L355.5 866.7Z" fill="#865521" stroke="#865521"></path><path d="M469.8 869.7L510.5 900L531.3 847.7Z" fill="#1c1917" stroke="#1c1917"></path><path d="M656.3 791L648.3 730.3L616.5 785.7Z" fill="#452f1d" stroke="#452f1d"></path><path d="M675 780.7L675 729L648.3 730.3Z" fill="#865521" stroke="#865521"></path><path d="M675 722.3L678.3 839.3L675 702.7Z" fill="#5b3b1f" stroke="#5b3b1f"></path><path d="M566.8 92L523.3 70.7L558.8 113.3Z" fill="#865521" stroke="#865521"></path><path d="M501.3 0L439.5 26.7L453.5 55.3Z" fill="#df8e16" stroke="#df8e16"></path><path d="M633.5 161L614.3 133.3L615.3 162Z" fill="#c87f1c" stroke="#c87f1c"></path><path d="M335.5 900L409.3 902.7L407.3 900Z" fill="#704820" stroke="#704820"></path><path d="M407.3 900L437 900L439.5 869.3Z" fill="#1c1917" stroke="#1c1917"></path><path d="M320.8 900L409.3 902.7L335.5 900Z" fill="#9c6321" stroke="#9c6321"></path><path d="M242.3 900L409.3 902.7L320.8 900Z" fill="#df8e16" stroke="#df8e16"></path><path d="M234 900L409.3 902.7L242.3 900Z" fill="#df8e16" stroke="#df8e16"></path><path d="M614.3 133.3L609.3 127.7L570 136Z" fill="#704820" stroke="#704820"></path><path d="M32.8 823L79.5 844.7L60.5 806.3Z" fill="#31241a" stroke="#31241a"></path><path d="M60.5 806.3L79.5 844.7L92.3 821.3Z" fill="#f59e0b" stroke="#f59e0b"></path><path d="M143 900L156.8 900L147 859.7Z" fill="#31241a" stroke="#31241a"></path><path d="M156.8 900L202.5 900L147 859.7Z" fill="#704820" stroke="#704820"></path><path d="M234 900L202.5 900L409.3 902.7Z" fill="#9c6321" stroke="#9c6321"></path><path d="M575.5 89L566.8 92L558.8 113.3Z" fill="#c87f1c" stroke="#c87f1c"></path><path d="M409.3 902.7L437 900L407.3 900Z" fill="#1c1917" stroke="#1c1917"></path><path d="M531.3 847.7L582.5 847.7L568.5 825Z" fill="#865521" stroke="#865521"></path><path d="M409.3 902.7L437.8 900L437 900Z" fill="#b2711f" stroke="#b2711f"></path><path d="M437 900L437.8 900L439.5 869.3Z" fill="#704820" stroke="#704820"></path><path d="M341.3 12.3L379 83L408 43.3Z" fill="#9c6321" stroke="#9c6321"></path><path d="M245 41.3L211.3 22.3L235.5 56.7Z" fill="#9c6321" stroke="#9c6321"></path><path d="M140.3 68.3L136.3 33.7L111 76.7Z" fill="#c87f1c" stroke="#c87f1c"></path><path d="M362.5 0L341.3 12.3L366.3 0Z" fill="#452f1d" stroke="#452f1d"></path><path d="M341.3 12.3L408 43.3L366.3 0Z" fill="#df8e16" stroke="#df8e16"></path><path d="M41.8 97.7L64.3 123L91.5 101Z" fill="#31241a" stroke="#31241a"></path><path d="M453.5 55.3L494.5 72L501.3 0Z" fill="#9c6321" stroke="#9c6321"></path><path d="M440.8 0L439.5 26.7L501.3 0Z" fill="#9c6321" stroke="#9c6321"></path><path d="M255.3 0L211.3 22.3L245 41.3Z" fill="#f59e0b" stroke="#f59e0b"></path><path d="M42.8 60.3L41.8 97.7L91.5 101Z" fill="#1c1917" stroke="#1c1917"></path><path d="M-4.2 794.3L32.8 823L61.5 792.7Z" fill="#5b3b1f" stroke="#5b3b1f"></path><path d="M609.3 127.7L575.5 89L570 136Z" fill="#704820" stroke="#704820"></path><path d="M566.8 92L570.8 69.7L523.3 70.7Z" fill="#31241a" stroke="#31241a"></path><path d="M570.8 69.7L575.5 89L639.5 61.7Z" fill="#31241a" stroke="#31241a"></path><path d="M211.3 22.3L180.8 27.3L212.5 70.3Z" fill="#1c1917" stroke="#1c1917"></path><path d="M-4.2 493.3L-4.2 794.3L0 642.7Z" fill="#1c1917" stroke="#1c1917"></path><path d="M0 761L-4.2 794.3L61.5 792.7Z" fill="#865521" stroke="#865521"></path><path d="M42.8 60.3L91.5 101L111 76.7Z" fill="#865521" stroke="#865521"></path><path d="M0 123L0 131.3L7.8 132.3Z" fill="#704820" stroke="#704820"></path><path d="M7.8 132.3L0 131.3L0 160Z" fill="#704820" stroke="#704820"></path><path d="M0 160L0 131.3L-4.2 493.3Z" fill="#452f1d" stroke="#452f1d"></path><path d="M633.5 161L644.5 112.3L614.3 133.3Z" fill="#5b3b1f" stroke="#5b3b1f"></path><path d="M614.3 133.3L644.5 112.3L609.3 127.7Z" fill="#1c1917" stroke="#1c1917"></path><path d="M675 235.3L675 173L601.5 202.3Z" fill="#5b3b1f" stroke="#5b3b1f"></path><path d="M676.3 371L675 173L675 235.3Z" fill="#452f1d" stroke="#452f1d"></path><path d="M143 900L147 859.7L137.8 855.7Z" fill="#df8e16" stroke="#df8e16"></path><path d="M202.5 900L156.8 900L409.3 902.7Z" fill="#b2711f" stroke="#b2711f"></path><path d="M143 900L137.8 855.7L117.3 900Z" fill="#1c1917" stroke="#1c1917"></path><path d="M551 884.7L582.5 847.7L531.3 847.7Z" fill="#df8e16" stroke="#df8e16"></path><path d="M575.8 825.3L582.5 847.7L592.5 807.3Z" fill="#c87f1c" stroke="#c87f1c"></path><path d="M299.5 13.3L283.8 0L285 41.7Z" fill="#5b3b1f" stroke="#5b3b1f"></path><path d="M211.3 22.3L178.5 0L180.8 27.3Z" fill="#704820" stroke="#704820"></path><path d="M341.3 12.3L283.8 0L299.5 13.3Z" fill="#704820" stroke="#704820"></path><path d="M362.5 0L283.8 0L341.3 12.3Z" fill="#f59e0b" stroke="#f59e0b"></path><path d="M9.8 109L0 123L7.8 132.3Z" fill="#31241a" stroke="#31241a"></path><path d="M0 131.3L0 123L-4.2 493.3Z" fill="#f59e0b" stroke="#f59e0b"></path><path d="M117.3 900L137.8 855.7L91.3 894.7Z" fill="#31241a" stroke="#31241a"></path><path d="M156.8 900L143 900L409.3 902.7Z" fill="#b2711f" stroke="#b2711f"></path><path d="M366.3 0L408 43.3L374 0Z" fill="#704820" stroke="#704820"></path><path d="M374 0L408 43.3L410.8 35.3Z" fill="#704820" stroke="#704820"></path><path d="M119 22.3L136.3 33.7L151.8 0Z" fill="#1c1917" stroke="#1c1917"></path><path d="M180.8 27.3L136.3 33.7L179.5 69Z" fill="#31241a" stroke="#31241a"></path><path d="M41.8 97.7L9.8 109L7.8 132.3Z" fill="#b2711f" stroke="#b2711f"></path><path d="M676.3 371L675 162.7L675 173Z" fill="#452f1d" stroke="#452f1d"></path><path d="M675 173L675 162.7L633.5 161Z" fill="#5b3b1f" stroke="#5b3b1f"></path><path d="M283.8 0L262 0L285 41.7Z" fill="#865521" stroke="#865521"></path><path d="M440.8 0L374 0L410.8 35.3Z" fill="#865521" stroke="#865521"></path><path d="M667.3 799.7L656.3 791L678.3 839.3Z" fill="#9c6321" stroke="#9c6321"></path><path d="M262 0L255.3 0L245 41.3Z" fill="#1c1917" stroke="#1c1917"></path><path d="M651.3 89L575.5 89L609.3 127.7Z" fill="#f59e0b" stroke="#f59e0b"></path><path d="M575.5 89L570.8 69.7L566.8 92Z" fill="#9c6321" stroke="#9c6321"></path><path d="M439.5 26.7L440.8 0L410.8 35.3Z" fill="#c87f1c" stroke="#c87f1c"></path><path d="M0 105.7L9.8 109L0 50.3Z" fill="#f59e0b" stroke="#f59e0b"></path><path d="M437.8 900L510.5 900L469.8 869.7Z" fill="#5b3b1f" stroke="#5b3b1f"></path><path d="M409.3 902.7L510.5 900L437.8 900Z" fill="#5b3b1f" stroke="#5b3b1f"></path><path d="M667.3 799.7L675 780.7L656.3 791Z" fill="#865521" stroke="#865521"></path><path d="M656.3 791L675 780.7L648.3 730.3Z" fill="#df8e16" stroke="#df8e16"></path><path d="M675 729L678.3 839.3L675 722.3Z" fill="#1c1917" stroke="#1c1917"></path><path d="M667.3 799.7L678.3 839.3L675 810.3Z" fill="#31241a" stroke="#31241a"></path><path d="M91.3 894.7L120 836L79.5 844.7Z" fill="#c87f1c" stroke="#c87f1c"></path><path d="M143 900L117.3 900L409.3 902.7Z" fill="#9c6321" stroke="#9c6321"></path><path d="M91.3 894.7L79.5 844.7L55.8 875.7Z" fill="#865521" stroke="#865521"></path><path d="M510.5 900L551 884.7L531.3 847.7Z" fill="#df8e16" stroke="#df8e16"></path><path d="M42.8 60.3L9.8 109L41.8 97.7Z" fill="#9c6321" stroke="#9c6321"></path><path d="M9.8 109L0 105.7L0 123Z" fill="#df8e16" stroke="#df8e16"></path><path d="M0 123L0 105.7L-4.2 493.3Z" fill="#31241a" stroke="#31241a"></path><path d="M675 162.7L644.5 112.3L633.5 161Z" fill="#1c1917" stroke="#1c1917"></path><path d="M533.3 14.3L494.5 72L523.3 70.7Z" fill="#452f1d" stroke="#452f1d"></path><path d="M675 800L667.3 799.7L675 810.3Z" fill="#9c6321" stroke="#9c6321"></path><path d="M55.8 875.7L79.5 844.7L32.8 823Z" fill="#df8e16" stroke="#df8e16"></path><path d="M151.8 0L136.3 33.7L180.8 27.3Z" fill="#5b3b1f" stroke="#5b3b1f"></path><path d="M136.3 33.7L119 22.3L111 76.7Z" fill="#df8e16" stroke="#df8e16"></path><path d="M0 853.3L55.8 875.7L32.8 823Z" fill="#9c6321" stroke="#9c6321"></path><path d="M255.3 0L178.5 0L211.3 22.3Z" fill="#704820" stroke="#704820"></path><path d="M-4.2 794.3L0 835.7L32.8 823Z" fill="#704820" stroke="#704820"></path><path d="M510.5 900L540 900L551 884.7Z" fill="#df8e16" stroke="#df8e16"></path><path d="M678.3 839.3L592.5 807.3L677.3 844.7Z" fill="#31241a" stroke="#31241a"></path><path d="M409.3 902.7L540 900L510.5 900Z" fill="#452f1d" stroke="#452f1d"></path><path d="M409.3 902.7L542.3 900L540 900Z" fill="#9c6321" stroke="#9c6321"></path><path d="M540 900L542.3 900L551 884.7Z" fill="#5b3b1f" stroke="#5b3b1f"></path><path d="M656.3 791L592.5 807.3L678.3 839.3Z" fill="#1c1917" stroke="#1c1917"></path><path d="M667.3 799.7L675 800L675 780.7Z" fill="#c87f1c" stroke="#c87f1c"></path><path d="M675 780.7L678.3 839.3L675 729Z" fill="#31241a" stroke="#31241a"></path><path d="M42.5 54.7L42.8 60.3L111 76.7Z" fill="#31241a" stroke="#31241a"></path><path d="M178.5 0L151.8 0L180.8 27.3Z" fill="#704820" stroke="#704820"></path><path d="M119 22.3L42.5 54.7L111 76.7Z" fill="#5b3b1f" stroke="#5b3b1f"></path><path d="M35.5 51.3L42.5 54.7L63.5 0Z" fill="#df8e16" stroke="#df8e16"></path><path d="M42.8 60.3L0 50.3L9.8 109Z" fill="#704820" stroke="#704820"></path><path d="M595.8 890.7L582.5 847.7L551 884.7Z" fill="#b2711f" stroke="#b2711f"></path><path d="M675 800L678.3 839.3L675 780.7Z" fill="#f59e0b" stroke="#f59e0b"></path><path d="M548 0.3L533.3 14.3L557.8 0Z" fill="#9c6321" stroke="#9c6321"></path><path d="M570.8 69.7L533.3 14.3L523.3 70.7Z" fill="#9c6321" stroke="#9c6321"></path><path d="M-4.2 794.3L0 853.3L0 835.7Z" fill="#31241a" stroke="#31241a"></path><path d="M0 835.7L0 853.3L32.8 823Z" fill="#865521" stroke="#865521"></path><path d="M55.8 875.7L54.5 900L91.3 894.7Z" fill="#f59e0b" stroke="#f59e0b"></path><path d="M533.3 14.3L501.3 0L494.5 72Z" fill="#1c1917" stroke="#1c1917"></path><path d="M67.8 0L42.5 54.7L119 22.3Z" fill="#5b3b1f" stroke="#5b3b1f"></path><path d="M42.5 54.7L35.5 51.3L42.8 60.3Z" fill="#c87f1c" stroke="#c87f1c"></path><path d="M675 109.3L651.3 89L644.5 112.3Z" fill="#df8e16" stroke="#df8e16"></path><path d="M644.5 112.3L651.3 89L609.3 127.7Z" fill="#704820" stroke="#704820"></path><path d="M533.3 14.3L509.5 0L501.3 0Z" fill="#f59e0b" stroke="#f59e0b"></path><path d="M676.3 371L675 109.3L675 162.7Z" fill="#452f1d" stroke="#452f1d"></path><path d="M675 162.7L675 109.3L644.5 112.3Z" fill="#452f1d" stroke="#452f1d"></path><path d="M0 900L54.5 900L55.8 875.7Z" fill="#704820" stroke="#704820"></path><path d="M91.3 894.7L54.5 900L117.3 900Z" fill="#865521" stroke="#865521"></path><path d="M117.3 900L54.5 900L409.3 902.7Z" fill="#1c1917" stroke="#1c1917"></path><path d="M581.8 900L595.8 890.7L551 884.7Z" fill="#1c1917" stroke="#1c1917"></path><path d="M409.3 902.7L581.8 900L542.3 900Z" fill="#452f1d" stroke="#452f1d"></path><path d="M542.3 900L581.8 900L551 884.7Z" fill="#865521" stroke="#865521"></path><path d="M151.8 0L110.3 0L119 22.3Z" fill="#9c6321" stroke="#9c6321"></path><path d="M110.3 0L97 0L119 22.3Z" fill="#31241a" stroke="#31241a"></path><path d="M675 88.7L639.5 61.7L651.3 89Z" fill="#452f1d" stroke="#452f1d"></path><path d="M651.3 89L639.5 61.7L575.5 89Z" fill="#f59e0b" stroke="#f59e0b"></path><path d="M533.3 14.3L548 0.3L509.5 0Z" fill="#df8e16" stroke="#df8e16"></path><path d="M676.3 371L675 92L675 109.3Z" fill="#df8e16" stroke="#df8e16"></path><path d="M675 109.3L675 92L651.3 89Z" fill="#9c6321" stroke="#9c6321"></path><path d="M677.3 844.7L592.5 807.3L582.5 847.7Z" fill="#5b3b1f" stroke="#5b3b1f"></path><path d="M675 810.3L678.3 839.3L675 800Z" fill="#5b3b1f" stroke="#5b3b1f"></path><path d="M676.3 429.7L678.3 839.3L676.3 371Z" fill="#c87f1c" stroke="#c87f1c"></path><path d="M677.3 844.7L582.5 847.7L648.3 900Z" fill="#9c6321" stroke="#9c6321"></path><path d="M557.8 0L533.3 14.3L559 0Z" fill="#f59e0b" stroke="#f59e0b"></path><path d="M675 92L675 88.7L651.3 89Z" fill="#df8e16" stroke="#df8e16"></path><path d="M676.3 371L675 88.7L675 92Z" fill="#5b3b1f" stroke="#5b3b1f"></path><path d="M409.3 902.7L606.5 900L581.8 900Z" fill="#c87f1c" stroke="#c87f1c"></path><path d="M581.8 900L606.5 900L595.8 890.7Z" fill="#f59e0b" stroke="#f59e0b"></path><path d="M648.3 900L582.5 847.7L595.8 890.7Z" fill="#c87f1c" stroke="#c87f1c"></path><path d="M0 0L0 50.3L35.5 51.3Z" fill="#865521" stroke="#865521"></path><path d="M35.5 51.3L0 50.3L42.8 60.3Z" fill="#9c6321" stroke="#9c6321"></path><path d="M0 105.7L0 50.3L-4.2 493.3Z" fill="#31241a" stroke="#31241a"></path><path d="M559 0L533.3 14.3L570.8 69.7Z" fill="#1c1917" stroke="#1c1917"></path><path d="M548 0.3L563.8 -6.7L509.5 0Z" fill="#df8e16" stroke="#df8e16"></path><path d="M588.5 0L559 0L570.8 69.7Z" fill="#31241a" stroke="#31241a"></path><path d="M563.8 -6.7L559 0L588.5 0Z" fill="#452f1d" stroke="#452f1d"></path><path d="M97 0L67.8 0L119 22.3Z" fill="#31241a" stroke="#31241a"></path><path d="M67.8 0L63.5 0L42.5 54.7Z" fill="#31241a" stroke="#31241a"></path><path d="M630.3 30.7L570.8 69.7L639.5 61.7Z" fill="#c87f1c" stroke="#c87f1c"></path><path d="M559 0L563.8 -6.7L557.8 0Z" fill="#df8e16" stroke="#df8e16"></path><path d="M557.8 0L563.8 -6.7L548 0.3Z" fill="#c87f1c" stroke="#c87f1c"></path><path d="M509.5 0L563.8 -6.7L501.3 0Z" fill="#9c6321" stroke="#9c6321"></path><path d="M501.3 0L563.8 -6.7L440.8 0Z" fill="#df8e16" stroke="#df8e16"></path><path d="M440.8 0L563.8 -6.7L374 0Z" fill="#9c6321" stroke="#9c6321"></path><path d="M374 0L563.8 -6.7L366.3 0Z" fill="#704820" stroke="#704820"></path><path d="M366.3 0L563.8 -6.7L362.5 0Z" fill="#865521" stroke="#865521"></path><path d="M362.5 0L563.8 -6.7L283.8 0Z" fill="#b2711f" stroke="#b2711f"></path><path d="M283.8 0L563.8 -6.7L262 0Z" fill="#452f1d" stroke="#452f1d"></path><path d="M262 0L563.8 -6.7L255.3 0Z" fill="#31241a" stroke="#31241a"></path><path d="M255.3 0L563.8 -6.7L178.5 0Z" fill="#df8e16" stroke="#df8e16"></path><path d="M178.5 0L563.8 -6.7L151.8 0Z" fill="#df8e16" stroke="#df8e16"></path><path d="M151.8 0L563.8 -6.7L110.3 0Z" fill="#5b3b1f" stroke="#5b3b1f"></path><path d="M110.3 0L563.8 -6.7L97 0Z" fill="#f59e0b" stroke="#f59e0b"></path><path d="M97 0L563.8 -6.7L67.8 0Z" fill="#f59e0b" stroke="#f59e0b"></path><path d="M67.8 0L563.8 -6.7L63.5 0Z" fill="#b2711f" stroke="#b2711f"></path><path d="M640.5 23.3L630.3 30.7L639.5 61.7Z" fill="#f59e0b" stroke="#f59e0b"></path><path d="M-2.2 900L0 900L0 853.3Z" fill="#5b3b1f" stroke="#5b3b1f"></path><path d="M0 853.3L0 900L55.8 875.7Z" fill="#b2711f" stroke="#b2711f"></path><path d="M54.5 900L0 900L409.3 902.7Z" fill="#c87f1c" stroke="#c87f1c"></path><path d="M630.3 30.7L588.5 0L570.8 69.7Z" fill="#865521" stroke="#865521"></path><path d="M-4.2 794.3L-2.2 900L0 853.3Z" fill="#b2711f" stroke="#b2711f"></path><path d="M0 900L-2.2 900L409.3 902.7Z" fill="#452f1d" stroke="#452f1d"></path><path d="M409.3 902.7L648.3 900L606.5 900Z" fill="#b2711f" stroke="#b2711f"></path><path d="M606.5 900L648.3 900L595.8 890.7Z" fill="#9c6321" stroke="#9c6321"></path><path d="M656.3 19.3L640.5 23.3L639.5 61.7Z" fill="#452f1d" stroke="#452f1d"></path><path d="M630.3 30.7L619.3 0L588.5 0Z" fill="#865521" stroke="#865521"></path><path d="M648.3 900L675 883.7L677.3 844.7Z" fill="#1c1917" stroke="#1c1917"></path><path d="M677.3 844.7L675 883.7L678.3 839.3Z" fill="#9c6321" stroke="#9c6321"></path><path d="M640.5 23.3L619.3 0L630.3 30.7Z" fill="#704820" stroke="#704820"></path><path d="M588.5 0L619.3 0L563.8 -6.7Z" fill="#c87f1c" stroke="#c87f1c"></path><path d="M675 88.7L656.3 19.3L639.5 61.7Z" fill="#452f1d" stroke="#452f1d"></path><path d="M640.5 23.3L656.3 19.3L619.3 0Z" fill="#b2711f" stroke="#b2711f"></path><path d="M648.3 900L675 900L675 883.7Z" fill="#df8e16" stroke="#df8e16"></path><path d="M675 883.7L675 900L678.3 839.3Z" fill="#b2711f" stroke="#b2711f"></path><path d="M409.3 902.7L675 900L648.3 900Z" fill="#f59e0b" stroke="#f59e0b"></path><path d="M63.5 0L0 0L35.5 51.3Z" fill="#b2711f" stroke="#b2711f"></path><path d="M0 50.3L0 0L-4.2 493.3Z" fill="#5b3b1f" stroke="#5b3b1f"></path><path d="M563.8 -6.7L0 0L63.5 0Z" fill="#5b3b1f" stroke="#5b3b1f"></path><path d="M619.3 0L675 -6.7L563.8 -6.7Z" fill="#1c1917" stroke="#1c1917"></path><path d="M656.3 19.3L675 -6.7L619.3 0Z" fill="#b2711f" stroke="#b2711f"></path><path d="M675 88.7L675 0L656.3 19.3Z" fill="#b2711f" stroke="#b2711f"></path><path d="M676.3 371L675 0L675 88.7Z" fill="#865521" stroke="#865521"></path><path d="M675 -6.7L675 0L676.3 371Z" fill="#452f1d" stroke="#452f1d"></path><path d="M678.3 839.3L675 -6.7L676.3 371Z" fill="#1c1917" stroke="#1c1917"></path><path d="M675 0L675 -6.7L656.3 19.3Z" fill="#704820" stroke="#704820"></path></g></svg>