<svg id="visual" viewBox="0 0 1800 1200" width="1800" height="1200" xmlns="http://www.w3.org/2000/svg" xmlns:xlink="http://www.w3.org/1999/xlink" version="1.1"><g stroke-width="1" stroke-linejoin="bevel"><path d="M938 572L955 515.3L938 527.3Z" fill="#171311" stroke="#171311"></path><path d="M938 572L1024 602L955 515.3Z" fill="#191513" stroke="#191513"></path><path d="M1024 602L1043 513.3L955 515.3Z" fill="#110c09" stroke="#110c09"></path><path d="M1043 513.3L967 456.6L955 515.3Z" fill="#0e0905" stroke="#0e0905"></path><path d="M955 515.3L901 441.6L938 527.3Z" fill="#1a1715" stroke="#1a1715"></path><path d="M967 456.6L901 441.6L955 515.3Z" fill="#171311" stroke="#171311"></path><path d="M802 524.3L836 628L938 572Z" fill="#1a1715" stroke="#1a1715"></path><path d="M836 628L938 688.7L938 572Z" fill="#000000" stroke="#000000"></path><path d="M938 572L938 688.7L1024 602Z" fill="#1c1917" stroke="#1c1917"></path><path d="M1040 688.7L1084 634L1024 602Z" fill="#1c1917" stroke="#1c1917"></path><path d="M1024 602L1084 634L1043 513.3Z" fill="#15110f" stroke="#15110f"></path><path d="M938 688.7L990 699.7L1024 602Z" fill="#080200" stroke="#080200"></path><path d="M802 524.3L938 572L938 527.3Z" fill="#080200" stroke="#080200"></path><path d="M990 699.7L1040 688.7L1024 602Z" fill="#1a1715" stroke="#1a1715"></path><path d="M901 441.6L802 524.3L938 527.3Z" fill="#1a1715" stroke="#1a1715"></path><path d="M1095 390.6L987 377.9L967 456.6Z" fill="#1c1917" stroke="#1c1917"></path><path d="M967 456.6L987 377.9L901 441.6Z" fill="#1a1715" stroke="#1a1715"></path><path d="M1084 634L1148 527.3L1043 513.3Z" fill="#191513" stroke="#191513"></path><path d="M1043 513.3L1095 390.6L967 456.6Z" fill="#080200" stroke="#080200"></path><path d="M723 589L800 652.7L836 628Z" fill="#000000" stroke="#000000"></path><path d="M836 628L800 652.7L938 688.7Z" fill="#1a1715" stroke="#1a1715"></path><path d="M938 349.9L832 405.6L901 441.6Z" fill="#171311" stroke="#171311"></path><path d="M901 441.6L832 405.6L802 524.3Z" fill="#15110f" stroke="#15110f"></path><path d="M987 377.9L938 349.9L901 441.6Z" fill="#000000" stroke="#000000"></path><path d="M800 652.7L939 751.4L938 688.7Z" fill="#191513" stroke="#191513"></path><path d="M938 688.7L939 751.4L990 699.7Z" fill="#15110f" stroke="#15110f"></path><path d="M1013 791.4L1088 739.4L1040 688.7Z" fill="#171311" stroke="#171311"></path><path d="M1148 527.3L1095 390.6L1043 513.3Z" fill="#110c09" stroke="#110c09"></path><path d="M987 377.9L971 252.1L938 349.9Z" fill="#15110f" stroke="#15110f"></path><path d="M1013 791.4L1040 688.7L990 699.7Z" fill="#1a1715" stroke="#1a1715"></path><path d="M1040 688.7L1088 739.4L1084 634Z" fill="#191513" stroke="#191513"></path><path d="M1084 634L1204 615L1148 527.3Z" fill="#110c09" stroke="#110c09"></path><path d="M832 405.6L747 489.3L802 524.3Z" fill="#0e0905" stroke="#0e0905"></path><path d="M802 524.3L723 589L836 628Z" fill="#15110f" stroke="#15110f"></path><path d="M1164 318.9L1094 353.9L1095 390.6Z" fill="#0b0602" stroke="#0b0602"></path><path d="M1095 390.6L1094 353.9L987 377.9Z" fill="#0b0602" stroke="#0b0602"></path><path d="M939 751.4L1013 791.4L990 699.7Z" fill="#0e0905" stroke="#0e0905"></path><path d="M1194 691.7L1204 615L1084 634Z" fill="#0e0905" stroke="#0e0905"></path><path d="M1148 527.3L1181 421.6L1095 390.6Z" fill="#000000" stroke="#000000"></path><path d="M747 489.3L723 589L802 524.3Z" fill="#191513" stroke="#191513"></path><path d="M1221 424.6L1181 421.6L1148 527.3Z" fill="#110c09" stroke="#110c09"></path><path d="M1170 757.4L1194 691.7L1088 739.4Z" fill="#1a1715" stroke="#1a1715"></path><path d="M1088 739.4L1194 691.7L1084 634Z" fill="#110c09" stroke="#110c09"></path><path d="M938 349.9L790 328.9L832 405.6Z" fill="#0e0905" stroke="#0e0905"></path><path d="M832 405.6L745 366.9L747 489.3Z" fill="#15110f" stroke="#15110f"></path><path d="M878 234.1L790 328.9L938 349.9Z" fill="#080200" stroke="#080200"></path><path d="M1299 517.3L1221 424.6L1148 527.3Z" fill="#110c09" stroke="#110c09"></path><path d="M1181 421.6L1164 318.9L1095 390.6Z" fill="#130f0c" stroke="#130f0c"></path><path d="M790 328.9L745 366.9L832 405.6Z" fill="#0e0905" stroke="#0e0905"></path><path d="M747 489.3L668 499.3L723 589Z" fill="#000000" stroke="#000000"></path><path d="M745 366.9L694 450.6L747 489.3Z" fill="#130f0c" stroke="#130f0c"></path><path d="M1145 849.1L1170 757.4L1088 739.4Z" fill="#080200" stroke="#080200"></path><path d="M791 806.4L885 831.1L939 751.4Z" fill="#1a1715" stroke="#1a1715"></path><path d="M939 751.4L885 831.1L1013 791.4Z" fill="#191513" stroke="#191513"></path><path d="M1013 791.4L1145 849.1L1088 739.4Z" fill="#110c09" stroke="#110c09"></path><path d="M791 806.4L939 751.4L800 652.7Z" fill="#1a1715" stroke="#1a1715"></path><path d="M1170 757.4L1228 687.7L1194 691.7Z" fill="#080200" stroke="#080200"></path><path d="M1194 691.7L1228 687.7L1204 615Z" fill="#171311" stroke="#171311"></path><path d="M1204 615L1299 517.3L1148 527.3Z" fill="#000000" stroke="#000000"></path><path d="M1087 270.1L987 377.9L1094 353.9Z" fill="#1c1917" stroke="#1c1917"></path><path d="M1087 270.1L971 252.1L987 377.9Z" fill="#191513" stroke="#191513"></path><path d="M629 673.7L694 675.7L605 623Z" fill="#1a1715" stroke="#1a1715"></path><path d="M723 589L694 675.7L800 652.7Z" fill="#1a1715" stroke="#1a1715"></path><path d="M694 450.6L668 499.3L747 489.3Z" fill="#130f0c" stroke="#130f0c"></path><path d="M1241 377.9L1164 318.9L1181 421.6Z" fill="#1c1917" stroke="#1c1917"></path><path d="M1164 318.9L1087 270.1L1094 353.9Z" fill="#1a1715" stroke="#1a1715"></path><path d="M694 675.7L791 806.4L800 652.7Z" fill="#191513" stroke="#191513"></path><path d="M1367 407.6L1241 377.9L1221 424.6Z" fill="#080200" stroke="#080200"></path><path d="M1221 424.6L1241 377.9L1181 421.6Z" fill="#15110f" stroke="#15110f"></path><path d="M995 955.9L1024 871.1L919 959.9Z" fill="#15110f" stroke="#15110f"></path><path d="M885 831.1L1024 871.1L1013 791.4Z" fill="#1c1917" stroke="#1c1917"></path><path d="M958 209.4L878 234.1L971 252.1Z" fill="#080200" stroke="#080200"></path><path d="M971 252.1L878 234.1L938 349.9Z" fill="#0b0602" stroke="#0b0602"></path><path d="M628 319.9L636 424.6L745 366.9Z" fill="#15110f" stroke="#15110f"></path><path d="M1228 687.7L1288 615L1204 615Z" fill="#0e0905" stroke="#0e0905"></path><path d="M1288 615L1299 517.3L1204 615Z" fill="#130f0c" stroke="#130f0c"></path><path d="M720 895.1L831 861.1L791 806.4Z" fill="#0b0602" stroke="#0b0602"></path><path d="M791 806.4L831 861.1L885 831.1Z" fill="#1c1917" stroke="#1c1917"></path><path d="M1087 270.1L958 209.4L971 252.1Z" fill="#15110f" stroke="#15110f"></path><path d="M1024 871.1L1145 849.1L1013 791.4Z" fill="#0b0602" stroke="#0b0602"></path><path d="M1170 757.4L1237 800.4L1228 687.7Z" fill="#191513" stroke="#191513"></path><path d="M1343 681.7L1325 614L1288 615Z" fill="#1c1917" stroke="#1c1917"></path><path d="M694 675.7L731 808.4L791 806.4Z" fill="#080200" stroke="#080200"></path><path d="M745 366.9L636 424.6L694 450.6Z" fill="#191513" stroke="#191513"></path><path d="M694 450.6L636 424.6L668 499.3Z" fill="#130f0c" stroke="#130f0c"></path><path d="M605 623L694 675.7L723 589Z" fill="#15110f" stroke="#15110f"></path><path d="M716 268.1L745 366.9L790 328.9Z" fill="#191513" stroke="#191513"></path><path d="M898 178.4L835 217.1L878 234.1Z" fill="#1a1715" stroke="#1a1715"></path><path d="M878 234.1L835 217.1L790 328.9Z" fill="#1a1715" stroke="#1a1715"></path><path d="M1325 614L1321 499.3L1299 517.3Z" fill="#191513" stroke="#191513"></path><path d="M1299 517.3L1321 499.3L1221 424.6Z" fill="#000000" stroke="#000000"></path><path d="M1226 230.1L1158 246.1L1164 318.9Z" fill="#000000" stroke="#000000"></path><path d="M1164 318.9L1158 246.1L1087 270.1Z" fill="#0b0602" stroke="#0b0602"></path><path d="M1087 270.1L1103 139.4L958 209.4Z" fill="#191513" stroke="#191513"></path><path d="M1226 230.1L1164 318.9L1241 377.9Z" fill="#130f0c" stroke="#130f0c"></path><path d="M605 623L723 589L668 499.3Z" fill="#0b0602" stroke="#0b0602"></path><path d="M694 675.7L665 767.4L731 808.4Z" fill="#080200" stroke="#080200"></path><path d="M1343 681.7L1288 615L1228 687.7Z" fill="#080200" stroke="#080200"></path><path d="M1288 615L1325 614L1299 517.3Z" fill="#171311" stroke="#171311"></path><path d="M1145 849.1L1237 800.4L1170 757.4Z" fill="#0e0905" stroke="#0e0905"></path><path d="M533 573L605 623L668 499.3Z" fill="#1c1917" stroke="#1c1917"></path><path d="M570 775.4L665 767.4L629 673.7Z" fill="#0b0602" stroke="#0b0602"></path><path d="M629 673.7L665 767.4L694 675.7Z" fill="#1c1917" stroke="#1c1917"></path><path d="M1092 978.9L1118 893.1L1024 871.1Z" fill="#0e0905" stroke="#0e0905"></path><path d="M1024 871.1L1118 893.1L1145 849.1Z" fill="#080200" stroke="#080200"></path><path d="M1145 849.1L1227 882.1L1237 800.4Z" fill="#000000" stroke="#000000"></path><path d="M835 217.1L716 268.1L790 328.9Z" fill="#1c1917" stroke="#1c1917"></path><path d="M958 209.4L898 178.4L878 234.1Z" fill="#1c1917" stroke="#1c1917"></path><path d="M835 217.1L735 160.4L716 268.1Z" fill="#080200" stroke="#080200"></path><path d="M908 70.7L898 178.4L958 209.4Z" fill="#1c1917" stroke="#1c1917"></path><path d="M1356 765.4L1343 681.7L1228 687.7Z" fill="#0b0602" stroke="#0b0602"></path><path d="M1407 429.6L1367 407.6L1321 499.3Z" fill="#130f0c" stroke="#130f0c"></path><path d="M919 959.9L885 831.1L831 861.1Z" fill="#191513" stroke="#191513"></path><path d="M919 959.9L1024 871.1L885 831.1Z" fill="#0e0905" stroke="#0e0905"></path><path d="M1118 893.1L1154 911.9L1145 849.1Z" fill="#0e0905" stroke="#0e0905"></path><path d="M1237 800.4L1356 765.4L1228 687.7Z" fill="#0b0602" stroke="#0b0602"></path><path d="M1092 978.9L1154 911.9L1118 893.1Z" fill="#15110f" stroke="#15110f"></path><path d="M716 268.1L628 319.9L745 366.9Z" fill="#191513" stroke="#191513"></path><path d="M533 573L570 673.7L605 623Z" fill="#130f0c" stroke="#130f0c"></path><path d="M1354 328.9L1226 230.1L1241 377.9Z" fill="#171311" stroke="#171311"></path><path d="M1158 246.1L1103 139.4L1087 270.1Z" fill="#080200" stroke="#080200"></path><path d="M841 981.9L919 959.9L831 861.1Z" fill="#000000" stroke="#000000"></path><path d="M720 895.1L791 806.4L731 808.4Z" fill="#0b0602" stroke="#0b0602"></path><path d="M811 99.7L816 163.4L898 178.4Z" fill="#0e0905" stroke="#0e0905"></path><path d="M898 178.4L816 163.4L835 217.1Z" fill="#1c1917" stroke="#1c1917"></path><path d="M716 268.1L602 262.1L628 319.9Z" fill="#110c09" stroke="#110c09"></path><path d="M605 623L570 673.7L629 673.7Z" fill="#0b0602" stroke="#0b0602"></path><path d="M516 477.3L668 499.3L636 424.6Z" fill="#0e0905" stroke="#0e0905"></path><path d="M1154 911.9L1227 882.1L1145 849.1Z" fill="#110c09" stroke="#110c09"></path><path d="M628 319.9L568 408.6L636 424.6Z" fill="#0b0602" stroke="#0b0602"></path><path d="M651 834.1L731 808.4L665 767.4Z" fill="#1c1917" stroke="#1c1917"></path><path d="M651 834.1L720 895.1L731 808.4Z" fill="#0e0905" stroke="#0e0905"></path><path d="M570 775.4L651 834.1L665 767.4Z" fill="#1c1917" stroke="#1c1917"></path><path d="M1407 429.6L1321 499.3L1419 475.3Z" fill="#130f0c" stroke="#130f0c"></path><path d="M1321 499.3L1367 407.6L1221 424.6Z" fill="#130f0c" stroke="#130f0c"></path><path d="M1207 131.4L1103 139.4L1158 246.1Z" fill="#191513" stroke="#191513"></path><path d="M516 477.3L533 573L668 499.3Z" fill="#191513" stroke="#191513"></path><path d="M1368 885.1L1356 765.4L1237 800.4Z" fill="#110c09" stroke="#110c09"></path><path d="M1419 475.3L1321 499.3L1440 568Z" fill="#000000" stroke="#000000"></path><path d="M1367 407.6L1354 328.9L1241 377.9Z" fill="#0b0602" stroke="#0b0602"></path><path d="M1086 1027.6L1092 978.9L1020 1050.6Z" fill="#080200" stroke="#080200"></path><path d="M995 955.9L1092 978.9L1024 871.1Z" fill="#191513" stroke="#191513"></path><path d="M1154 911.9L1225 943.9L1227 882.1Z" fill="#1c1917" stroke="#1c1917"></path><path d="M758 965.9L841 981.9L831 861.1Z" fill="#000000" stroke="#000000"></path><path d="M919 959.9L895 1029.6L995 955.9Z" fill="#171311" stroke="#171311"></path><path d="M811 99.7L735 160.4L816 163.4Z" fill="#191513" stroke="#191513"></path><path d="M816 163.4L735 160.4L835 217.1Z" fill="#130f0c" stroke="#130f0c"></path><path d="M628 319.9L564 336.9L568 408.6Z" fill="#0b0602" stroke="#0b0602"></path><path d="M602 262.1L564 336.9L628 319.9Z" fill="#0e0905" stroke="#0e0905"></path><path d="M568 408.6L516 477.3L636 424.6Z" fill="#130f0c" stroke="#130f0c"></path><path d="M460 429.6L516 477.3L568 408.6Z" fill="#000000" stroke="#000000"></path><path d="M484 733.4L570 775.4L570 673.7Z" fill="#1c1917" stroke="#1c1917"></path><path d="M570 673.7L570 775.4L629 673.7Z" fill="#15110f" stroke="#15110f"></path><path d="M614 976.9L758 965.9L720 895.1Z" fill="#171311" stroke="#171311"></path><path d="M1321 499.3L1325 614L1440 568Z" fill="#0e0905" stroke="#0e0905"></path><path d="M1367 407.6L1447 335.9L1354 328.9Z" fill="#15110f" stroke="#15110f"></path><path d="M1440 568L1325 614L1451 678.7Z" fill="#130f0c" stroke="#130f0c"></path><path d="M1354 328.9L1265 195.4L1226 230.1Z" fill="#0b0602" stroke="#0b0602"></path><path d="M1226 230.1L1207 131.4L1158 246.1Z" fill="#080200" stroke="#080200"></path><path d="M735 160.4L602 262.1L716 268.1Z" fill="#191513" stroke="#191513"></path><path d="M773 1010.6L758 965.9L687 1064.6Z" fill="#15110f" stroke="#15110f"></path><path d="M720 895.1L758 965.9L831 861.1Z" fill="#130f0c" stroke="#130f0c"></path><path d="M1140 1000.6L1225 943.9L1154 911.9Z" fill="#1c1917" stroke="#1c1917"></path><path d="M1368 885.1L1418 781.4L1356 765.4Z" fill="#15110f" stroke="#15110f"></path><path d="M1451 678.7L1325 614L1343 681.7Z" fill="#130f0c" stroke="#130f0c"></path><path d="M908 70.7L811 99.7L898 178.4Z" fill="#0b0602" stroke="#0b0602"></path><path d="M608 132.4L564 264.1L602 262.1Z" fill="#130f0c" stroke="#130f0c"></path><path d="M1265 195.4L1207 131.4L1226 230.1Z" fill="#171311" stroke="#171311"></path><path d="M994 56.7L908 70.7L958 209.4Z" fill="#0b0602" stroke="#0b0602"></path><path d="M994 56.7L958 209.4L1103 139.4Z" fill="#130f0c" stroke="#130f0c"></path><path d="M1086 1027.6L1140 1000.6L1092 978.9Z" fill="#1c1917" stroke="#1c1917"></path><path d="M1092 978.9L1140 1000.6L1154 911.9Z" fill="#15110f" stroke="#15110f"></path><path d="M844 1109.3L895 1029.6L841 981.9Z" fill="#0e0905" stroke="#0e0905"></path><path d="M841 981.9L895 1029.6L919 959.9Z" fill="#1a1715" stroke="#1a1715"></path><path d="M460 429.6L480 512.3L516 477.3Z" fill="#1a1715" stroke="#1a1715"></path><path d="M516 477.3L480 512.3L533 573Z" fill="#080200" stroke="#080200"></path><path d="M533 573L469 675.7L570 673.7Z" fill="#110c09" stroke="#110c09"></path><path d="M1020 1050.6L1092 978.9L995 955.9Z" fill="#000000" stroke="#000000"></path><path d="M602 262.1L564 264.1L564 336.9Z" fill="#0b0602" stroke="#0b0602"></path><path d="M460 379.9L460 429.6L568 408.6Z" fill="#191513" stroke="#191513"></path><path d="M608 132.4L602 262.1L735 160.4Z" fill="#0b0602" stroke="#0b0602"></path><path d="M1092 64.7L994 56.7L1103 139.4Z" fill="#000000" stroke="#000000"></path><path d="M758 965.9L773 1010.6L841 981.9Z" fill="#15110f" stroke="#15110f"></path><path d="M614 976.9L720 895.1L651 834.1Z" fill="#1a1715" stroke="#1a1715"></path><path d="M1172 82.7L1092 64.7L1103 139.4Z" fill="#1a1715" stroke="#1a1715"></path><path d="M1356 765.4L1451 678.7L1343 681.7Z" fill="#1a1715" stroke="#1a1715"></path><path d="M1418 781.4L1451 678.7L1356 765.4Z" fill="#171311" stroke="#171311"></path><path d="M1024 1075.3L1020 1050.6L905 1075.3Z" fill="#110c09" stroke="#110c09"></path><path d="M895 1029.6L1020 1050.6L995 955.9Z" fill="#191513" stroke="#191513"></path><path d="M1368 885.1L1237 800.4L1227 882.1Z" fill="#191513" stroke="#191513"></path><path d="M1207 131.4L1172 82.7L1103 139.4Z" fill="#0e0905" stroke="#0e0905"></path><path d="M1290 60.7L1172 82.7L1207 131.4Z" fill="#171311" stroke="#171311"></path><path d="M484 733.4L557 856.1L570 775.4Z" fill="#000000" stroke="#000000"></path><path d="M570 775.4L557 856.1L651 834.1Z" fill="#171311" stroke="#171311"></path><path d="M420 613L469 675.7L533 573Z" fill="#0b0602" stroke="#0b0602"></path><path d="M1354 328.9L1362 218.1L1265 195.4Z" fill="#15110f" stroke="#15110f"></path><path d="M1265 195.4L1290 60.7L1207 131.4Z" fill="#110c09" stroke="#110c09"></path><path d="M1413 232.1L1362 218.1L1354 328.9Z" fill="#191513" stroke="#191513"></path><path d="M1447 335.9L1367 407.6L1407 429.6Z" fill="#0e0905" stroke="#0e0905"></path><path d="M1447 335.9L1407 429.6L1562 423.6Z" fill="#1a1715" stroke="#1a1715"></path><path d="M469 675.7L484 733.4L570 673.7Z" fill="#191513" stroke="#191513"></path><path d="M460 379.9L568 408.6L564 336.9Z" fill="#110c09" stroke="#110c09"></path><path d="M480 512.3L420 613L533 573Z" fill="#1a1715" stroke="#1a1715"></path><path d="M1338 981.9L1368 885.1L1225 943.9Z" fill="#1c1917" stroke="#1c1917"></path><path d="M1225 943.9L1368 885.1L1227 882.1Z" fill="#0b0602" stroke="#0b0602"></path><path d="M1553 514.3L1419 475.3L1440 568Z" fill="#0e0905" stroke="#0e0905"></path><path d="M1562 423.6L1407 429.6L1419 475.3Z" fill="#110c09" stroke="#110c09"></path><path d="M905 1075.3L1020 1050.6L895 1029.6Z" fill="#191513" stroke="#191513"></path><path d="M1020 1050.6L1024 1075.3L1086 1027.6Z" fill="#080200" stroke="#080200"></path><path d="M1168 1117.3L1228 1018.6L1140 1000.6Z" fill="#110c09" stroke="#110c09"></path><path d="M1140 1000.6L1228 1018.6L1225 943.9Z" fill="#110c09" stroke="#110c09"></path><path d="M844 1109.3L905 1075.3L895 1029.6Z" fill="#080200" stroke="#080200"></path><path d="M1498 659.7L1493 629L1451 678.7Z" fill="#1c1917" stroke="#1c1917"></path><path d="M1451 678.7L1493 629L1440 568Z" fill="#080200" stroke="#080200"></path><path d="M1498 659.7L1451 678.7L1496 746.4Z" fill="#1a1715" stroke="#1a1715"></path><path d="M441 265.1L460 379.9L564 336.9Z" fill="#080200" stroke="#080200"></path><path d="M1168 1117.3L1140 1000.6L1086 1027.6Z" fill="#000000" stroke="#000000"></path><path d="M1496 746.4L1451 678.7L1418 781.4Z" fill="#0b0602" stroke="#0b0602"></path><path d="M1493 629L1553 514.3L1440 568Z" fill="#110c09" stroke="#110c09"></path><path d="M1447 335.9L1413 232.1L1354 328.9Z" fill="#130f0c" stroke="#130f0c"></path><path d="M1362 218.1L1383 168.4L1265 195.4Z" fill="#1c1917" stroke="#1c1917"></path><path d="M752 0L725 56.7L811 99.7Z" fill="#1a1715" stroke="#1a1715"></path><path d="M811 99.7L725 56.7L735 160.4Z" fill="#0b0602" stroke="#0b0602"></path><path d="M564 264.1L441 265.1L564 336.9Z" fill="#0b0602" stroke="#0b0602"></path><path d="M823 0L811 99.7L908 70.7Z" fill="#0b0602" stroke="#0b0602"></path><path d="M1099 0L984 0L994 56.7Z" fill="#191513" stroke="#191513"></path><path d="M994 56.7L984 0L908 70.7Z" fill="#0e0905" stroke="#0e0905"></path><path d="M1099 0L994 56.7L1092 64.7Z" fill="#110c09" stroke="#110c09"></path><path d="M656 82.7L608 132.4L735 160.4Z" fill="#0e0905" stroke="#0e0905"></path><path d="M362 495.3L420 613L480 512.3Z" fill="#1c1917" stroke="#1c1917"></path><path d="M469 675.7L327 784.4L484 733.4Z" fill="#080200" stroke="#080200"></path><path d="M368 454.6L480 512.3L460 429.6Z" fill="#130f0c" stroke="#130f0c"></path><path d="M984 0L905 0L908 70.7Z" fill="#15110f" stroke="#15110f"></path><path d="M607 1006.6L614 976.9L523 940.9Z" fill="#171311" stroke="#171311"></path><path d="M557 856.1L614 976.9L651 834.1Z" fill="#0e0905" stroke="#0e0905"></path><path d="M773 1010.6L844 1109.3L841 981.9Z" fill="#171311" stroke="#171311"></path><path d="M725 56.7L656 82.7L735 160.4Z" fill="#080200" stroke="#080200"></path><path d="M952 1200L1042 1106.3L1024 1075.3Z" fill="#080200" stroke="#080200"></path><path d="M1024 1075.3L1042 1106.3L1086 1027.6Z" fill="#171311" stroke="#171311"></path><path d="M1413 232.1L1383 168.4L1362 218.1Z" fill="#1c1917" stroke="#1c1917"></path><path d="M1172 82.7L1099 0L1092 64.7Z" fill="#130f0c" stroke="#130f0c"></path><path d="M1459 867.1L1496 746.4L1418 781.4Z" fill="#0b0602" stroke="#0b0602"></path><path d="M1195 0L1099 0L1172 82.7Z" fill="#000000" stroke="#000000"></path><path d="M905 0L823 0L908 70.7Z" fill="#0b0602" stroke="#0b0602"></path><path d="M725 56.7L646 0L656 82.7Z" fill="#110c09" stroke="#110c09"></path><path d="M1228 1018.6L1338 981.9L1225 943.9Z" fill="#130f0c" stroke="#130f0c"></path><path d="M1368 885.1L1459 867.1L1418 781.4Z" fill="#130f0c" stroke="#130f0c"></path><path d="M1417 1004.6L1338 981.9L1373 1062.6Z" fill="#15110f" stroke="#15110f"></path><path d="M755 1130.3L844 1109.3L773 1010.6Z" fill="#1c1917" stroke="#1c1917"></path><path d="M905 1075.3L952 1200L1024 1075.3Z" fill="#080200" stroke="#080200"></path><path d="M523 940.9L614 976.9L557 856.1Z" fill="#191513" stroke="#191513"></path><path d="M614 976.9L687 1064.6L758 965.9Z" fill="#171311" stroke="#171311"></path><path d="M523 940.9L557 856.1L433 883.1Z" fill="#0e0905" stroke="#0e0905"></path><path d="M1338 981.9L1429 907.9L1368 885.1Z" fill="#191513" stroke="#191513"></path><path d="M607 1006.6L687 1064.6L614 976.9Z" fill="#000000" stroke="#000000"></path><path d="M1429 907.9L1459 867.1L1368 885.1Z" fill="#15110f" stroke="#15110f"></path><path d="M1383 168.4L1290 60.7L1265 195.4Z" fill="#191513" stroke="#191513"></path><path d="M1588 550.3L1493 629L1582 696.7Z" fill="#15110f" stroke="#15110f"></path><path d="M1588 550.3L1553 514.3L1493 629Z" fill="#080200" stroke="#080200"></path><path d="M1447 335.9L1544 243.1L1413 232.1Z" fill="#080200" stroke="#080200"></path><path d="M1413 232.1L1448 138.4L1383 168.4Z" fill="#080200" stroke="#080200"></path><path d="M823 0L752 0L811 99.7Z" fill="#1c1917" stroke="#1c1917"></path><path d="M509 112.7L608 132.4L561 0Z" fill="#0e0905" stroke="#0e0905"></path><path d="M509 112.7L508 176.4L608 132.4Z" fill="#0b0602" stroke="#0b0602"></path><path d="M608 132.4L508 176.4L564 264.1Z" fill="#0e0905" stroke="#0e0905"></path><path d="M433 883.1L557 856.1L484 733.4Z" fill="#130f0c" stroke="#130f0c"></path><path d="M1290 60.7L1195 0L1172 82.7Z" fill="#191513" stroke="#191513"></path><path d="M508 176.4L441 265.1L564 264.1Z" fill="#171311" stroke="#171311"></path><path d="M381 367.9L368 454.6L460 429.6Z" fill="#191513" stroke="#191513"></path><path d="M1054 1200L1168 1117.3L1042 1106.3Z" fill="#000000" stroke="#000000"></path><path d="M1042 1106.3L1168 1117.3L1086 1027.6Z" fill="#080200" stroke="#080200"></path><path d="M381 367.9L460 429.6L460 379.9Z" fill="#080200" stroke="#080200"></path><path d="M327 784.4L433 883.1L484 733.4Z" fill="#171311" stroke="#171311"></path><path d="M368 454.6L362 495.3L480 512.3Z" fill="#191513" stroke="#191513"></path><path d="M1553 514.3L1562 423.6L1419 475.3Z" fill="#0e0905" stroke="#0e0905"></path><path d="M441 265.1L381 367.9L460 379.9Z" fill="#110c09" stroke="#110c09"></path><path d="M687 1064.6L755 1130.3L773 1010.6Z" fill="#191513" stroke="#191513"></path><path d="M915 1200L952 1200L905 1075.3Z" fill="#0b0602" stroke="#0b0602"></path><path d="M648 1116.3L755 1130.3L687 1064.6Z" fill="#1a1715" stroke="#1a1715"></path><path d="M648 1116.3L687 1064.6L607 1006.6Z" fill="#0e0905" stroke="#0e0905"></path><path d="M1582 696.7L1498 659.7L1496 746.4Z" fill="#130f0c" stroke="#130f0c"></path><path d="M1582 696.7L1493 629L1498 659.7Z" fill="#000000" stroke="#000000"></path><path d="M1553 514.3L1632 415.6L1562 423.6Z" fill="#15110f" stroke="#15110f"></path><path d="M1603 325.9L1553 330.9L1562 423.6Z" fill="#130f0c" stroke="#130f0c"></path><path d="M1562 423.6L1553 330.9L1447 335.9Z" fill="#191513" stroke="#191513"></path><path d="M1337 0L1275 0L1290 60.7Z" fill="#0b0602" stroke="#0b0602"></path><path d="M322 663.7L469 675.7L420 613Z" fill="#0b0602" stroke="#0b0602"></path><path d="M551 1050.6L648 1116.3L607 1006.6Z" fill="#0b0602" stroke="#0b0602"></path><path d="M1357 53.7L1290 60.7L1383 168.4Z" fill="#080200" stroke="#080200"></path><path d="M1290 60.7L1275 0L1195 0Z" fill="#000000" stroke="#000000"></path><path d="M1448 138.4L1357 53.7L1383 168.4Z" fill="#171311" stroke="#171311"></path><path d="M561 0L608 132.4L656 82.7Z" fill="#0b0602" stroke="#0b0602"></path><path d="M508 176.4L483 133.4L441 265.1Z" fill="#15110f" stroke="#15110f"></path><path d="M441 265.1L376 259.1L381 367.9Z" fill="#000000" stroke="#000000"></path><path d="M1604 742.4L1582 696.7L1496 746.4Z" fill="#110c09" stroke="#110c09"></path><path d="M1544 243.1L1448 138.4L1413 232.1Z" fill="#130f0c" stroke="#130f0c"></path><path d="M752 0L646 0L725 56.7Z" fill="#171311" stroke="#171311"></path><path d="M322 663.7L335 633L267 608Z" fill="#130f0c" stroke="#130f0c"></path><path d="M362 495.3L335 633L420 613Z" fill="#0e0905" stroke="#0e0905"></path><path d="M335 633L362 495.3L267 608Z" fill="#15110f" stroke="#15110f"></path><path d="M449 107.7L483 133.4L509 112.7Z" fill="#15110f" stroke="#15110f"></path><path d="M509 112.7L483 133.4L508 176.4Z" fill="#1a1715" stroke="#1a1715"></path><path d="M1294 1109.3L1338 981.9L1228 1018.6Z" fill="#171311" stroke="#171311"></path><path d="M1338 981.9L1417 1004.6L1429 907.9Z" fill="#000000" stroke="#000000"></path><path d="M1539 932.9L1534 858.1L1459 867.1Z" fill="#110c09" stroke="#110c09"></path><path d="M1459 867.1L1534 858.1L1496 746.4Z" fill="#15110f" stroke="#15110f"></path><path d="M1539 932.9L1459 867.1L1429 907.9Z" fill="#110c09" stroke="#110c09"></path><path d="M1168 1117.3L1294 1109.3L1228 1018.6Z" fill="#0e0905" stroke="#0e0905"></path><path d="M551 1050.6L607 1006.6L523 940.9Z" fill="#110c09" stroke="#110c09"></path><path d="M915 1200L844 1109.3L841 1200Z" fill="#130f0c" stroke="#130f0c"></path><path d="M915 1200L905 1075.3L844 1109.3Z" fill="#15110f" stroke="#15110f"></path><path d="M1168 1117.3L1209 1200L1294 1109.3Z" fill="#000000" stroke="#000000"></path><path d="M514 1077.3L551 1050.6L488 1063.6Z" fill="#1c1917" stroke="#1c1917"></path><path d="M841 1200L844 1109.3L755 1130.3Z" fill="#1c1917" stroke="#1c1917"></path><path d="M1613 272.1L1544 243.1L1553 330.9Z" fill="#000000" stroke="#000000"></path><path d="M1553 330.9L1544 243.1L1447 335.9Z" fill="#000000" stroke="#000000"></path><path d="M1294 1109.3L1373 1062.6L1338 981.9Z" fill="#0e0905" stroke="#0e0905"></path><path d="M1417 1004.6L1539 932.9L1429 907.9Z" fill="#000000" stroke="#000000"></path><path d="M294 435.6L362 495.3L368 454.6Z" fill="#1a1715" stroke="#1a1715"></path><path d="M335 633L322 663.7L420 613Z" fill="#171311" stroke="#171311"></path><path d="M952 1200L1054 1200L1042 1106.3Z" fill="#0b0602" stroke="#0b0602"></path><path d="M338 190.4L376 259.1L441 265.1Z" fill="#15110f" stroke="#15110f"></path><path d="M381 367.9L294 435.6L368 454.6Z" fill="#080200" stroke="#080200"></path><path d="M738 1200L841 1200L755 1130.3Z" fill="#0e0905" stroke="#0e0905"></path><path d="M1472 79.7L1357 53.7L1448 138.4Z" fill="#080200" stroke="#080200"></path><path d="M1434 0L1337 0L1357 53.7Z" fill="#000000" stroke="#000000"></path><path d="M1357 53.7L1337 0L1290 60.7Z" fill="#191513" stroke="#191513"></path><path d="M1534 858.1L1604 742.4L1496 746.4Z" fill="#000000" stroke="#000000"></path><path d="M1582 696.7L1634 567L1588 550.3Z" fill="#000000" stroke="#000000"></path><path d="M1700 570L1634 567L1737 659.7Z" fill="#0b0602" stroke="#0b0602"></path><path d="M1588 550.3L1632 415.6L1553 514.3Z" fill="#1c1917" stroke="#1c1917"></path><path d="M1632 415.6L1603 325.9L1562 423.6Z" fill="#0b0602" stroke="#0b0602"></path><path d="M1634 567L1632 415.6L1588 550.3Z" fill="#1c1917" stroke="#1c1917"></path><path d="M474 0L449 107.7L509 112.7Z" fill="#130f0c" stroke="#130f0c"></path><path d="M483 133.4L338 190.4L441 265.1Z" fill="#171311" stroke="#171311"></path><path d="M322 663.7L327 784.4L469 675.7Z" fill="#110c09" stroke="#110c09"></path><path d="M433 883.1L419 976.9L523 940.9Z" fill="#171311" stroke="#171311"></path><path d="M293 315.9L294 435.6L381 367.9Z" fill="#000000" stroke="#000000"></path><path d="M322 663.7L268 678.7L327 784.4Z" fill="#130f0c" stroke="#130f0c"></path><path d="M646 0L561 0L656 82.7Z" fill="#0e0905" stroke="#0e0905"></path><path d="M1534 858.1L1582 869.1L1604 742.4Z" fill="#0b0602" stroke="#0b0602"></path><path d="M1541 996.6L1539 932.9L1417 1004.6Z" fill="#191513" stroke="#191513"></path><path d="M648 1116.3L738 1200L755 1130.3Z" fill="#171311" stroke="#171311"></path><path d="M644 1200L738 1200L648 1116.3Z" fill="#0b0602" stroke="#0b0602"></path><path d="M1539 148.4L1472 79.7L1448 138.4Z" fill="#1a1715" stroke="#1a1715"></path><path d="M1539 148.4L1448 138.4L1544 243.1Z" fill="#130f0c" stroke="#130f0c"></path><path d="M1539 932.9L1582 869.1L1534 858.1Z" fill="#191513" stroke="#191513"></path><path d="M1054 1200L1209 1200L1168 1117.3Z" fill="#0e0905" stroke="#0e0905"></path><path d="M1294 1109.3L1361 1121.3L1373 1062.6Z" fill="#15110f" stroke="#15110f"></path><path d="M1547 1075.3L1541 996.6L1417 1004.6Z" fill="#000000" stroke="#000000"></path><path d="M369 959.9L419 976.9L433 883.1Z" fill="#000000" stroke="#000000"></path><path d="M551 1050.6L514 1077.3L648 1116.3Z" fill="#000000" stroke="#000000"></path><path d="M1327 1200L1361 1121.3L1294 1109.3Z" fill="#130f0c" stroke="#130f0c"></path><path d="M488 1063.6L551 1050.6L523 940.9Z" fill="#191513" stroke="#191513"></path><path d="M294 435.6L272 491.3L362 495.3Z" fill="#0e0905" stroke="#0e0905"></path><path d="M1595 147.4L1539 148.4L1544 243.1Z" fill="#15110f" stroke="#15110f"></path><path d="M272 491.3L267 608L362 495.3Z" fill="#130f0c" stroke="#130f0c"></path><path d="M419 976.9L488 1063.6L523 940.9Z" fill="#171311" stroke="#171311"></path><path d="M539 1200L644 1200L648 1116.3Z" fill="#080200" stroke="#080200"></path><path d="M1671 343.9L1613 272.1L1603 325.9Z" fill="#171311" stroke="#171311"></path><path d="M1603 325.9L1613 272.1L1553 330.9Z" fill="#110c09" stroke="#110c09"></path><path d="M327 784.4L328 856.1L433 883.1Z" fill="#000000" stroke="#000000"></path><path d="M266 865.1L328 856.1L327 784.4Z" fill="#15110f" stroke="#15110f"></path><path d="M267 608L268 678.7L322 663.7Z" fill="#0e0905" stroke="#0e0905"></path><path d="M303 244.1L293 315.9L376 259.1Z" fill="#110c09" stroke="#110c09"></path><path d="M376 259.1L293 315.9L381 367.9Z" fill="#0e0905" stroke="#0e0905"></path><path d="M294 435.6L212 466.6L272 491.3Z" fill="#080200" stroke="#080200"></path><path d="M1209 1200L1262 1200L1294 1109.3Z" fill="#0e0905" stroke="#0e0905"></path><path d="M1540 56.7L1434 0L1472 79.7Z" fill="#191513" stroke="#191513"></path><path d="M1472 79.7L1434 0L1357 53.7Z" fill="#000000" stroke="#000000"></path><path d="M449 107.7L338 190.4L483 133.4Z" fill="#171311" stroke="#171311"></path><path d="M383 109.7L338 190.4L449 107.7Z" fill="#1a1715" stroke="#1a1715"></path><path d="M328 856.1L369 959.9L433 883.1Z" fill="#1c1917" stroke="#1c1917"></path><path d="M419 976.9L440 1086.3L488 1063.6Z" fill="#171311" stroke="#171311"></path><path d="M539 1200L648 1116.3L514 1077.3Z" fill="#0b0602" stroke="#0b0602"></path><path d="M440 1086.3L514 1077.3L488 1063.6Z" fill="#191513" stroke="#191513"></path><path d="M1479 1124.3L1417 1004.6L1373 1062.6Z" fill="#15110f" stroke="#15110f"></path><path d="M1539 932.9L1647 941.9L1582 869.1Z" fill="#000000" stroke="#000000"></path><path d="M1479 1124.3L1373 1062.6L1361 1121.3Z" fill="#0e0905" stroke="#0e0905"></path><path d="M338 190.4L303 244.1L376 259.1Z" fill="#000000" stroke="#000000"></path><path d="M474 0L383 109.7L449 107.7Z" fill="#0e0905" stroke="#0e0905"></path><path d="M338 190.4L269 163.4L303 244.1Z" fill="#0e0905" stroke="#0e0905"></path><path d="M1737 659.7L1634 567L1582 696.7Z" fill="#000000" stroke="#000000"></path><path d="M1634 567L1707 543.3L1632 415.6Z" fill="#130f0c" stroke="#130f0c"></path><path d="M1632 415.6L1671 343.9L1603 325.9Z" fill="#110c09" stroke="#110c09"></path><path d="M1684 739.4L1582 696.7L1604 742.4Z" fill="#080200" stroke="#080200"></path><path d="M1684 739.4L1604 742.4L1696 829.1Z" fill="#080200" stroke="#080200"></path><path d="M1613 272.1L1595 147.4L1544 243.1Z" fill="#0b0602" stroke="#0b0602"></path><path d="M1749 448.6L1671 343.9L1632 415.6Z" fill="#0b0602" stroke="#0b0602"></path><path d="M561 0L474 0L509 112.7Z" fill="#1a1715" stroke="#1a1715"></path><path d="M1700 570L1707 543.3L1634 567Z" fill="#1a1715" stroke="#1a1715"></path><path d="M1696 829.1L1604 742.4L1582 869.1Z" fill="#1a1715" stroke="#1a1715"></path><path d="M1800 565L1800 549.3L1707 543.3Z" fill="#1c1917" stroke="#1c1917"></path><path d="M1262 1200L1327 1200L1294 1109.3Z" fill="#171311" stroke="#171311"></path><path d="M1701 204.4L1595 147.4L1613 272.1Z" fill="#110c09" stroke="#110c09"></path><path d="M1539 148.4L1540 56.7L1472 79.7Z" fill="#080200" stroke="#080200"></path><path d="M368 1075.3L440 1086.3L419 976.9Z" fill="#080200" stroke="#080200"></path><path d="M187 545.3L219 638L267 608Z" fill="#191513" stroke="#191513"></path><path d="M267 608L219 638L268 678.7Z" fill="#191513" stroke="#191513"></path><path d="M268 678.7L241 791.4L327 784.4Z" fill="#110c09" stroke="#110c09"></path><path d="M328 856.1L277 971.9L369 959.9Z" fill="#0b0602" stroke="#0b0602"></path><path d="M187 545.3L267 608L272 491.3Z" fill="#0b0602" stroke="#0b0602"></path><path d="M212 466.6L294 435.6L185 363.9Z" fill="#0b0602" stroke="#0b0602"></path><path d="M1595 147.4L1540 56.7L1539 148.4Z" fill="#171311" stroke="#171311"></path><path d="M185 363.9L294 435.6L293 315.9Z" fill="#171311" stroke="#171311"></path><path d="M217 791.4L241 791.4L268 678.7Z" fill="#191513" stroke="#191513"></path><path d="M369 959.9L336 1009.6L419 976.9Z" fill="#000000" stroke="#000000"></path><path d="M1671 343.9L1681 269.1L1613 272.1Z" fill="#0b0602" stroke="#0b0602"></path><path d="M1643 54.7L1563 0L1540 56.7Z" fill="#0e0905" stroke="#0e0905"></path><path d="M1800 379.9L1681 269.1L1671 343.9Z" fill="#171311" stroke="#171311"></path><path d="M241 791.4L266 865.1L327 784.4Z" fill="#000000" stroke="#000000"></path><path d="M1410 1200L1479 1124.3L1361 1121.3Z" fill="#110c09" stroke="#110c09"></path><path d="M1800 650.7L1737 659.7L1800 797.4Z" fill="#080200" stroke="#080200"></path><path d="M456 1200L539 1200L514 1077.3Z" fill="#15110f" stroke="#15110f"></path><path d="M1696 829.1L1582 869.1L1647 941.9Z" fill="#130f0c" stroke="#130f0c"></path><path d="M1684 739.4L1737 659.7L1582 696.7Z" fill="#1c1917" stroke="#1c1917"></path><path d="M1707 543.3L1749 448.6L1632 415.6Z" fill="#0e0905" stroke="#0e0905"></path><path d="M212 466.6L187 545.3L272 491.3Z" fill="#110c09" stroke="#110c09"></path><path d="M173 657.7L217 791.4L268 678.7Z" fill="#130f0c" stroke="#130f0c"></path><path d="M277 971.9L336 1009.6L369 959.9Z" fill="#191513" stroke="#191513"></path><path d="M440 1086.3L456 1200L514 1077.3Z" fill="#15110f" stroke="#15110f"></path><path d="M1647 941.9L1539 932.9L1629 989.6Z" fill="#110c09" stroke="#110c09"></path><path d="M1479 1124.3L1547 1075.3L1417 1004.6Z" fill="#0e0905" stroke="#0e0905"></path><path d="M1629 989.6L1539 932.9L1541 996.6Z" fill="#0e0905" stroke="#0e0905"></path><path d="M1513 1200L1604 1090.3L1547 1075.3Z" fill="#191513" stroke="#191513"></path><path d="M1327 1200L1410 1200L1361 1121.3Z" fill="#1a1715" stroke="#1a1715"></path><path d="M241 791.4L218 869.1L266 865.1Z" fill="#0e0905" stroke="#0e0905"></path><path d="M266 865.1L277 971.9L328 856.1Z" fill="#0b0602" stroke="#0b0602"></path><path d="M173 657.7L268 678.7L219 638Z" fill="#15110f" stroke="#15110f"></path><path d="M1800 549.3L1749 448.6L1707 543.3Z" fill="#0b0602" stroke="#0b0602"></path><path d="M1547 1075.3L1629 989.6L1541 996.6Z" fill="#0b0602" stroke="#0b0602"></path><path d="M1647 941.9L1706 925.9L1696 829.1Z" fill="#110c09" stroke="#110c09"></path><path d="M276 1095.3L368 1075.3L336 1009.6Z" fill="#1a1715" stroke="#1a1715"></path><path d="M336 1009.6L368 1075.3L419 976.9Z" fill="#191513" stroke="#191513"></path><path d="M383 109.7L269 163.4L338 190.4Z" fill="#0e0905" stroke="#0e0905"></path><path d="M156 229.1L185 363.9L293 315.9Z" fill="#191513" stroke="#191513"></path><path d="M212 466.6L67 497.3L187 545.3Z" fill="#1c1917" stroke="#1c1917"></path><path d="M280 54.7L269 163.4L383 109.7Z" fill="#080200" stroke="#080200"></path><path d="M187 545.3L173 657.7L219 638Z" fill="#191513" stroke="#191513"></path><path d="M156 229.1L293 315.9L303 244.1Z" fill="#15110f" stroke="#15110f"></path><path d="M187 545.3L121 618L173 657.7Z" fill="#1a1715" stroke="#1a1715"></path><path d="M218 869.1L277 971.9L266 865.1Z" fill="#0b0602" stroke="#0b0602"></path><path d="M1643 54.7L1540 56.7L1595 147.4Z" fill="#110c09" stroke="#110c09"></path><path d="M1540 56.7L1563 0L1434 0Z" fill="#0b0602" stroke="#0b0602"></path><path d="M1800 230.1L1701 204.4L1681 269.1Z" fill="#1c1917" stroke="#1c1917"></path><path d="M1681 269.1L1701 204.4L1613 272.1Z" fill="#15110f" stroke="#15110f"></path><path d="M92 819.1L218 869.1L217 791.4Z" fill="#130f0c" stroke="#130f0c"></path><path d="M217 791.4L218 869.1L241 791.4Z" fill="#080200" stroke="#080200"></path><path d="M326 1200L456 1200L368 1075.3Z" fill="#171311" stroke="#171311"></path><path d="M368 1075.3L456 1200L440 1086.3Z" fill="#171311" stroke="#171311"></path><path d="M474 0L348 0L383 109.7Z" fill="#1a1715" stroke="#1a1715"></path><path d="M1685 1056.6L1706 925.9L1629 989.6Z" fill="#1c1917" stroke="#1c1917"></path><path d="M1629 989.6L1706 925.9L1647 941.9Z" fill="#1a1715" stroke="#1a1715"></path><path d="M1800 797.4L1737 659.7L1684 739.4Z" fill="#0b0602" stroke="#0b0602"></path><path d="M1800 565L1707 543.3L1700 570Z" fill="#000000" stroke="#000000"></path><path d="M1749 448.6L1800 379.9L1671 343.9Z" fill="#171311" stroke="#171311"></path><path d="M1800 565L1700 570L1737 659.7Z" fill="#15110f" stroke="#15110f"></path><path d="M1800 650.7L1800 565L1737 659.7Z" fill="#0b0602" stroke="#0b0602"></path><path d="M1513 1200L1547 1075.3L1479 1124.3Z" fill="#0e0905" stroke="#0e0905"></path><path d="M1547 1075.3L1604 1090.3L1629 989.6Z" fill="#0b0602" stroke="#0b0602"></path><path d="M1721 117.7L1643 54.7L1595 147.4Z" fill="#130f0c" stroke="#130f0c"></path><path d="M1800 797.4L1684 739.4L1696 829.1Z" fill="#191513" stroke="#191513"></path><path d="M1800 549.3L1800 415.6L1749 448.6Z" fill="#0e0905" stroke="#0e0905"></path><path d="M1701 204.4L1721 117.7L1595 147.4Z" fill="#110c09" stroke="#110c09"></path><path d="M218 869.1L247 993.6L277 971.9Z" fill="#000000" stroke="#000000"></path><path d="M277 971.9L247 993.6L336 1009.6Z" fill="#000000" stroke="#000000"></path><path d="M348 0L280 54.7L383 109.7Z" fill="#0e0905" stroke="#0e0905"></path><path d="M269 163.4L204 178.4L303 244.1Z" fill="#000000" stroke="#000000"></path><path d="M206 59.7L204 178.4L269 163.4Z" fill="#15110f" stroke="#15110f"></path><path d="M67 497.3L121 618L187 545.3Z" fill="#191513" stroke="#191513"></path><path d="M173 657.7L100 764.4L217 791.4Z" fill="#191513" stroke="#191513"></path><path d="M218 869.1L146 938.9L247 993.6Z" fill="#171311" stroke="#171311"></path><path d="M67 497.3L212 466.6L67 404.6Z" fill="#000000" stroke="#000000"></path><path d="M1410 1200L1513 1200L1479 1124.3Z" fill="#110c09" stroke="#110c09"></path><path d="M1800 415.6L1800 379.9L1749 448.6Z" fill="#000000" stroke="#000000"></path><path d="M1800 166.4L1721 117.7L1701 204.4Z" fill="#15110f" stroke="#15110f"></path><path d="M1800 889.1L1696 829.1L1706 925.9Z" fill="#191513" stroke="#191513"></path><path d="M1800 889.1L1800 797.4L1696 829.1Z" fill="#1a1715" stroke="#1a1715"></path><path d="M58 224.1L156 229.1L89 131.4Z" fill="#000000" stroke="#000000"></path><path d="M204 178.4L156 229.1L303 244.1Z" fill="#15110f" stroke="#15110f"></path><path d="M156 229.1L113 341.9L185 363.9Z" fill="#080200" stroke="#080200"></path><path d="M1643 54.7L1652 0L1563 0Z" fill="#15110f" stroke="#15110f"></path><path d="M1701 0L1652 0L1643 54.7Z" fill="#080200" stroke="#080200"></path><path d="M1604 1090.3L1685 1056.6L1629 989.6Z" fill="#15110f" stroke="#15110f"></path><path d="M1713 1112.3L1685 1056.6L1604 1090.3Z" fill="#110c09" stroke="#110c09"></path><path d="M171 1010.6L276 1095.3L247 993.6Z" fill="#130f0c" stroke="#130f0c"></path><path d="M247 993.6L276 1095.3L336 1009.6Z" fill="#110c09" stroke="#110c09"></path><path d="M1800 379.9L1800 230.1L1681 269.1Z" fill="#191513" stroke="#191513"></path><path d="M1721 117.7L1701 0L1643 54.7Z" fill="#1c1917" stroke="#1c1917"></path><path d="M81 709.7L173 657.7L121 618Z" fill="#1c1917" stroke="#1c1917"></path><path d="M81 709.7L100 764.4L173 657.7Z" fill="#0e0905" stroke="#0e0905"></path><path d="M0 671.7L81 709.7L121 618Z" fill="#080200" stroke="#080200"></path><path d="M1800 908.9L1800 889.1L1706 925.9Z" fill="#1a1715" stroke="#1a1715"></path><path d="M67 404.6L212 466.6L185 363.9Z" fill="#110c09" stroke="#110c09"></path><path d="M280 54.7L206 59.7L269 163.4Z" fill="#0b0602" stroke="#0b0602"></path><path d="M0 350.9L67 404.6L113 341.9Z" fill="#0e0905" stroke="#0e0905"></path><path d="M238 0L206 59.7L280 54.7Z" fill="#080200" stroke="#080200"></path><path d="M1800 1065.6L1800 908.9L1706 925.9Z" fill="#110c09" stroke="#110c09"></path><path d="M92 819.1L146 938.9L218 869.1Z" fill="#130f0c" stroke="#130f0c"></path><path d="M92 819.1L217 791.4L100 764.4Z" fill="#171311" stroke="#171311"></path><path d="M58 224.1L113 341.9L156 229.1Z" fill="#1c1917" stroke="#1c1917"></path><path d="M113 341.9L67 404.6L185 363.9Z" fill="#000000" stroke="#000000"></path><path d="M348 0L238 0L280 54.7Z" fill="#191513" stroke="#191513"></path><path d="M276 1095.3L326 1200L368 1075.3Z" fill="#0e0905" stroke="#0e0905"></path><path d="M282 1200L326 1200L276 1095.3Z" fill="#1a1715" stroke="#1a1715"></path><path d="M0 766.4L92 819.1L100 764.4Z" fill="#15110f" stroke="#15110f"></path><path d="M1513 1200L1611 1200L1604 1090.3Z" fill="#191513" stroke="#191513"></path><path d="M1685 1056.6L1800 1065.6L1706 925.9Z" fill="#171311" stroke="#171311"></path><path d="M1800 230.1L1800 166.4L1701 204.4Z" fill="#1a1715" stroke="#1a1715"></path><path d="M1800 45.7L1701 0L1721 117.7Z" fill="#110c09" stroke="#110c09"></path><path d="M189 1133.3L171 1010.6L111 1046.6Z" fill="#1c1917" stroke="#1c1917"></path><path d="M146 938.9L171 1010.6L247 993.6Z" fill="#15110f" stroke="#15110f"></path><path d="M1611 1200L1713 1112.3L1604 1090.3Z" fill="#15110f" stroke="#15110f"></path><path d="M189 1133.3L282 1200L276 1095.3Z" fill="#171311" stroke="#171311"></path><path d="M89 131.4L204 178.4L206 59.7Z" fill="#080200" stroke="#080200"></path><path d="M89 131.4L156 229.1L204 178.4Z" fill="#080200" stroke="#080200"></path><path d="M0 496.3L0 580L67 497.3Z" fill="#1c1917" stroke="#1c1917"></path><path d="M67 497.3L0 580L121 618Z" fill="#110c09" stroke="#110c09"></path><path d="M81 709.7L0 766.4L100 764.4Z" fill="#1a1715" stroke="#1a1715"></path><path d="M0 496.3L67 497.3L0 448.6Z" fill="#171311" stroke="#171311"></path><path d="M0 448.6L67 497.3L67 404.6Z" fill="#1a1715" stroke="#1a1715"></path><path d="M0 350.9L0 448.6L67 404.6Z" fill="#171311" stroke="#171311"></path><path d="M72 105.7L89 131.4L206 59.7Z" fill="#0b0602" stroke="#0b0602"></path><path d="M111 1046.6L171 1010.6L146 938.9Z" fill="#130f0c" stroke="#130f0c"></path><path d="M171 1010.6L189 1133.3L276 1095.3Z" fill="#15110f" stroke="#15110f"></path><path d="M64 939.9L146 938.9L92 819.1Z" fill="#15110f" stroke="#15110f"></path><path d="M1800 166.4L1800 45.7L1721 117.7Z" fill="#0e0905" stroke="#0e0905"></path><path d="M0 580L0 671.7L121 618Z" fill="#0b0602" stroke="#0b0602"></path><path d="M1800 1145.3L1800 1065.6L1713 1112.3Z" fill="#15110f" stroke="#15110f"></path><path d="M1713 1112.3L1800 1065.6L1685 1056.6Z" fill="#1a1715" stroke="#1a1715"></path><path d="M0 887.1L64 939.9L92 819.1Z" fill="#171311" stroke="#171311"></path><path d="M58 224.1L0 350.9L113 341.9Z" fill="#191513" stroke="#191513"></path><path d="M0 235.1L0 350.9L58 224.1Z" fill="#191513" stroke="#191513"></path><path d="M1611 1200L1712 1200L1713 1112.3Z" fill="#191513" stroke="#191513"></path><path d="M64 939.9L111 1046.6L146 938.9Z" fill="#080200" stroke="#080200"></path><path d="M0 671.7L0 766.4L81 709.7Z" fill="#0e0905" stroke="#0e0905"></path><path d="M238 0L141 0L206 59.7Z" fill="#110c09" stroke="#110c09"></path><path d="M89 131.4L0 202.4L58 224.1Z" fill="#000000" stroke="#000000"></path><path d="M1800 45.7L1800 0L1701 0Z" fill="#0e0905" stroke="#0e0905"></path><path d="M141 0L72 105.7L206 59.7Z" fill="#130f0c" stroke="#130f0c"></path><path d="M0 202.4L0 235.1L58 224.1Z" fill="#191513" stroke="#191513"></path><path d="M0 1005.6L111 1046.6L64 939.9Z" fill="#15110f" stroke="#15110f"></path><path d="M0 1005.6L93 1077.3L111 1046.6Z" fill="#171311" stroke="#171311"></path><path d="M111 1046.6L93 1077.3L189 1133.3Z" fill="#171311" stroke="#171311"></path><path d="M189 1133.3L158 1200L282 1200Z" fill="#0e0905" stroke="#0e0905"></path><path d="M0 766.4L0 887.1L92 819.1Z" fill="#1c1917" stroke="#1c1917"></path><path d="M1712 1200L1800 1145.3L1713 1112.3Z" fill="#1c1917" stroke="#1c1917"></path><path d="M0 65.7L0 202.4L72 105.7Z" fill="#191513" stroke="#191513"></path><path d="M72 105.7L0 202.4L89 131.4Z" fill="#191513" stroke="#191513"></path><path d="M112 1200L158 1200L189 1133.3Z" fill="#000000" stroke="#000000"></path><path d="M0 887.1L0 938.9L64 939.9Z" fill="#171311" stroke="#171311"></path><path d="M93 1077.3L112 1200L189 1133.3Z" fill="#110c09" stroke="#110c09"></path><path d="M141 0L79 0L72 105.7Z" fill="#130f0c" stroke="#130f0c"></path><path d="M1712 1200L1800 1200L1800 1145.3Z" fill="#0b0602" stroke="#0b0602"></path><path d="M0 938.9L0 1005.6L64 939.9Z" fill="#0e0905" stroke="#0e0905"></path><path d="M0 1096.3L112 1200L93 1077.3Z" fill="#0e0905" stroke="#0e0905"></path><path d="M79 0L0 65.7L72 105.7Z" fill="#0e0905" stroke="#0e0905"></path><path d="M0 1005.6L0 1096.3L93 1077.3Z" fill="#1a1715" stroke="#1a1715"></path><path d="M79 0L0 0L0 65.7Z" fill="#0b0602" stroke="#0b0602"></path><path d="M0 1096.3L0 1200L112 1200Z" fill="#130f0c" stroke="#130f0c"></path></g></svg>