<svg id="visual" viewBox="0 0 1350 1800" width="1350" height="1800" xmlns="http://www.w3.org/2000/svg" xmlns:xlink="http://www.w3.org/1999/xlink" version="1.1"><g stroke-width="1" stroke-linejoin="bevel"><path d="M646 898.7L643.5 885.7L642 893.3Z" fill="#f59e0b" stroke="#f59e0b"></path><path d="M642 893.3L637.5 938.3L646 898.7Z" fill="#df8e16" stroke="#df8e16"></path><path d="M637.5 938.3L722.5 895.3L646 898.7Z" fill="#704820" stroke="#704820"></path><path d="M646 898.7L722.5 895.3L643.5 885.7Z" fill="#b2711f" stroke="#b2711f"></path><path d="M643.5 885.7L568 902.3L642 893.3Z" fill="#5b3b1f" stroke="#5b3b1f"></path><path d="M642 893.3L568 902.3L637.5 938.3Z" fill="#c87f1c" stroke="#c87f1c"></path><path d="M536 961L639.5 983L637.5 938.3Z" fill="#31241a" stroke="#31241a"></path><path d="M637.5 938.3L741.5 976L722.5 895.3Z" fill="#1c1917" stroke="#1c1917"></path><path d="M699 779L634.5 792L643.5 885.7Z" fill="#452f1d" stroke="#452f1d"></path><path d="M643.5 885.7L634.5 792L568 902.3Z" fill="#9c6321" stroke="#9c6321"></path><path d="M722.5 895.3L699 779L643.5 885.7Z" fill="#704820" stroke="#704820"></path><path d="M722.5 895.3L754.5 824L699 779Z" fill="#9c6321" stroke="#9c6321"></path><path d="M639.5 983L741.5 976L637.5 938.3Z" fill="#865521" stroke="#865521"></path><path d="M722.5 895.3L776.5 872.7L754.5 824Z" fill="#b2711f" stroke="#b2711f"></path><path d="M814 942.3L776.5 872.7L722.5 895.3Z" fill="#f59e0b" stroke="#f59e0b"></path><path d="M568 902.3L536 961L637.5 938.3Z" fill="#31241a" stroke="#31241a"></path><path d="M547 768L501 883.7L568 902.3Z" fill="#1c1917" stroke="#1c1917"></path><path d="M568 902.3L501 883.7L536 961Z" fill="#df8e16" stroke="#df8e16"></path><path d="M776.5 872.7L779 811L754.5 824Z" fill="#865521" stroke="#865521"></path><path d="M754.5 824L774 765.3L699 779Z" fill="#1c1917" stroke="#1c1917"></path><path d="M577.5 1060.7L706 1039L639.5 983Z" fill="#31241a" stroke="#31241a"></path><path d="M639.5 983L706 1039L741.5 976Z" fill="#452f1d" stroke="#452f1d"></path><path d="M777.5 712.3L650 730.3L699 779Z" fill="#452f1d" stroke="#452f1d"></path><path d="M699 779L650 730.3L634.5 792Z" fill="#b2711f" stroke="#b2711f"></path><path d="M634.5 792L547 768L568 902.3Z" fill="#31241a" stroke="#31241a"></path><path d="M572.5 731.3L547 768L634.5 792Z" fill="#c87f1c" stroke="#c87f1c"></path><path d="M786 1035.7L814 942.3L741.5 976Z" fill="#31241a" stroke="#31241a"></path><path d="M741.5 976L814 942.3L722.5 895.3Z" fill="#f59e0b" stroke="#f59e0b"></path><path d="M776.5 872.7L849 831.7L779 811Z" fill="#9c6321" stroke="#9c6321"></path><path d="M859.5 744.3L774 765.3L779 811Z" fill="#b2711f" stroke="#b2711f"></path><path d="M779 811L774 765.3L754.5 824Z" fill="#f59e0b" stroke="#f59e0b"></path><path d="M650 730.3L572.5 731.3L634.5 792Z" fill="#31241a" stroke="#31241a"></path><path d="M464.5 827.7L469.5 896.3L501 883.7Z" fill="#452f1d" stroke="#452f1d"></path><path d="M501 883.7L469.5 896.3L536 961Z" fill="#704820" stroke="#704820"></path><path d="M469.5 896.3L510.5 1009L536 961Z" fill="#b2711f" stroke="#b2711f"></path><path d="M536 961L577.5 1060.7L639.5 983Z" fill="#f59e0b" stroke="#f59e0b"></path><path d="M510.5 1009L577.5 1060.7L536 961Z" fill="#5b3b1f" stroke="#5b3b1f"></path><path d="M700 1087.7L748.5 1052.7L706 1039Z" fill="#5b3b1f" stroke="#5b3b1f"></path><path d="M706 1039L748.5 1052.7L741.5 976Z" fill="#df8e16" stroke="#df8e16"></path><path d="M475.5 768L464.5 827.7L547 768Z" fill="#9c6321" stroke="#9c6321"></path><path d="M547 768L464.5 827.7L501 883.7Z" fill="#5b3b1f" stroke="#5b3b1f"></path><path d="M748.5 1052.7L786 1035.7L741.5 976Z" fill="#c87f1c" stroke="#c87f1c"></path><path d="M650 730.3L577.5 703.7L572.5 731.3Z" fill="#5b3b1f" stroke="#5b3b1f"></path><path d="M572.5 731.3L559 699.3L547 768Z" fill="#df8e16" stroke="#df8e16"></path><path d="M688 629.7L577.5 703.7L650 730.3Z" fill="#df8e16" stroke="#df8e16"></path><path d="M577.5 1060.7L700 1087.7L706 1039Z" fill="#c87f1c" stroke="#c87f1c"></path><path d="M845 1122.3L842 1030L786 1035.7Z" fill="#5b3b1f" stroke="#5b3b1f"></path><path d="M510.5 1009L546 1069.7L577.5 1060.7Z" fill="#9c6321" stroke="#9c6321"></path><path d="M608.5 1161.3L703 1143.3L700 1087.7Z" fill="#5b3b1f" stroke="#5b3b1f"></path><path d="M868.5 835L849 831.7L877.5 875.7Z" fill="#31241a" stroke="#31241a"></path><path d="M877.5 875.7L849 831.7L776.5 872.7Z" fill="#b2711f" stroke="#b2711f"></path><path d="M786 1035.7L846.5 961.3L814 942.3Z" fill="#704820" stroke="#704820"></path><path d="M577.5 703.7L559 699.3L572.5 731.3Z" fill="#9c6321" stroke="#9c6321"></path><path d="M559 699.3L475.5 768L547 768Z" fill="#31241a" stroke="#31241a"></path><path d="M859.5 744.3L777.5 712.3L774 765.3Z" fill="#5b3b1f" stroke="#5b3b1f"></path><path d="M774 765.3L777.5 712.3L699 779Z" fill="#f59e0b" stroke="#f59e0b"></path><path d="M577.5 703.7L549 631.7L559 699.3Z" fill="#1c1917" stroke="#1c1917"></path><path d="M877.5 875.7L776.5 872.7L814 942.3Z" fill="#865521" stroke="#865521"></path><path d="M849 831.7L859.5 744.3L779 811Z" fill="#1c1917" stroke="#1c1917"></path><path d="M846.5 961.3L877.5 875.7L814 942.3Z" fill="#1c1917" stroke="#1c1917"></path><path d="M842 1030L866.5 987L846.5 961.3Z" fill="#b2711f" stroke="#b2711f"></path><path d="M846.5 961.3L949 944.3L877.5 875.7Z" fill="#1c1917" stroke="#1c1917"></path><path d="M842 1030L846.5 961.3L786 1035.7Z" fill="#df8e16" stroke="#df8e16"></path><path d="M740.5 1127.3L786 1035.7L748.5 1052.7Z" fill="#452f1d" stroke="#452f1d"></path><path d="M379 786L413 880.7L464.5 827.7Z" fill="#c87f1c" stroke="#c87f1c"></path><path d="M464.5 827.7L413 880.7L469.5 896.3Z" fill="#df8e16" stroke="#df8e16"></path><path d="M469.5 896.3L396 949.3L510.5 1009Z" fill="#c87f1c" stroke="#c87f1c"></path><path d="M510.5 1009L481.5 1100.7L546 1069.7Z" fill="#1c1917" stroke="#1c1917"></path><path d="M703 1143.3L740.5 1127.3L700 1087.7Z" fill="#9c6321" stroke="#9c6321"></path><path d="M700 1087.7L740.5 1127.3L748.5 1052.7Z" fill="#df8e16" stroke="#df8e16"></path><path d="M943 828L859.5 744.3L868.5 835Z" fill="#b2711f" stroke="#b2711f"></path><path d="M868.5 835L859.5 744.3L849 831.7Z" fill="#5b3b1f" stroke="#5b3b1f"></path><path d="M608.5 1161.3L700 1087.7L577.5 1060.7Z" fill="#c87f1c" stroke="#c87f1c"></path><path d="M848 679.7L742.5 647.7L777.5 712.3Z" fill="#31241a" stroke="#31241a"></path><path d="M777.5 712.3L742.5 647.7L650 730.3Z" fill="#9c6321" stroke="#9c6321"></path><path d="M413 880.7L396 949.3L469.5 896.3Z" fill="#f59e0b" stroke="#f59e0b"></path><path d="M742.5 647.7L688 629.7L650 730.3Z" fill="#c87f1c" stroke="#c87f1c"></path><path d="M397 1043.7L481.5 1100.7L510.5 1009Z" fill="#865521" stroke="#865521"></path><path d="M546 1069.7L608.5 1161.3L577.5 1060.7Z" fill="#f59e0b" stroke="#f59e0b"></path><path d="M492.5 645.7L458.5 696.3L559 699.3Z" fill="#df8e16" stroke="#df8e16"></path><path d="M559 699.3L458.5 696.3L475.5 768Z" fill="#f59e0b" stroke="#f59e0b"></path><path d="M475.5 768L379 786L464.5 827.7Z" fill="#f59e0b" stroke="#f59e0b"></path><path d="M323.5 969.3L373 980L396 949.3Z" fill="#1c1917" stroke="#1c1917"></path><path d="M521 1145.3L608.5 1161.3L546 1069.7Z" fill="#c87f1c" stroke="#c87f1c"></path><path d="M592.5 600L549 631.7L577.5 703.7Z" fill="#31241a" stroke="#31241a"></path><path d="M481.5 1100.7L521 1145.3L546 1069.7Z" fill="#df8e16" stroke="#df8e16"></path><path d="M608.5 1161.3L698 1173L703 1143.3Z" fill="#31241a" stroke="#31241a"></path><path d="M703 1143.3L698 1173L740.5 1127.3Z" fill="#f59e0b" stroke="#f59e0b"></path><path d="M896.5 1064.7L866.5 987L842 1030Z" fill="#b2711f" stroke="#b2711f"></path><path d="M859.5 744.3L848 679.7L777.5 712.3Z" fill="#704820" stroke="#704820"></path><path d="M742.5 647.7L774.5 596L688 629.7Z" fill="#f59e0b" stroke="#f59e0b"></path><path d="M896.5 1064.7L922 993L866.5 987Z" fill="#452f1d" stroke="#452f1d"></path><path d="M866.5 987L949 944.3L846.5 961.3Z" fill="#1c1917" stroke="#1c1917"></path><path d="M877.5 875.7L943 828L868.5 835Z" fill="#c87f1c" stroke="#c87f1c"></path><path d="M977.5 683.7L915 623L848 679.7Z" fill="#452f1d" stroke="#452f1d"></path><path d="M896.5 1064.7L842 1030L854.5 1115.3Z" fill="#c87f1c" stroke="#c87f1c"></path><path d="M398 741.3L379 786L475.5 768Z" fill="#df8e16" stroke="#df8e16"></path><path d="M317.5 899.7L396 949.3L413 880.7Z" fill="#f59e0b" stroke="#f59e0b"></path><path d="M396 949.3L397 1043.7L510.5 1009Z" fill="#5b3b1f" stroke="#5b3b1f"></path><path d="M481.5 1100.7L470.5 1130.3L521 1145.3Z" fill="#1c1917" stroke="#1c1917"></path><path d="M549 631.7L492.5 645.7L559 699.3Z" fill="#1c1917" stroke="#1c1917"></path><path d="M458.5 696.3L398 741.3L475.5 768Z" fill="#452f1d" stroke="#452f1d"></path><path d="M412 648.7L398 741.3L458.5 696.3Z" fill="#9c6321" stroke="#9c6321"></path><path d="M373 980L397 1043.7L396 949.3Z" fill="#5b3b1f" stroke="#5b3b1f"></path><path d="M688 629.7L592.5 600L577.5 703.7Z" fill="#31241a" stroke="#31241a"></path><path d="M502 594L460.5 622L492.5 645.7Z" fill="#f59e0b" stroke="#f59e0b"></path><path d="M981 876.7L943 828L877.5 875.7Z" fill="#f59e0b" stroke="#f59e0b"></path><path d="M376.5 1097.7L470.5 1130.3L481.5 1100.7Z" fill="#f59e0b" stroke="#f59e0b"></path><path d="M495.5 1199L526 1164L521 1145.3Z" fill="#1c1917" stroke="#1c1917"></path><path d="M521 1145.3L526 1164L608.5 1161.3Z" fill="#9c6321" stroke="#9c6321"></path><path d="M608.5 1161.3L594.5 1199L698 1173Z" fill="#1c1917" stroke="#1c1917"></path><path d="M845 1122.3L786 1035.7L740.5 1127.3Z" fill="#c87f1c" stroke="#c87f1c"></path><path d="M845.5 1168L845 1122.3L807 1197Z" fill="#c87f1c" stroke="#c87f1c"></path><path d="M998.5 966.3L949 944.3L922 993Z" fill="#9c6321" stroke="#9c6321"></path><path d="M922 993L949 944.3L866.5 987Z" fill="#704820" stroke="#704820"></path><path d="M845 1122.3L854.5 1115.3L842 1030Z" fill="#31241a" stroke="#31241a"></path><path d="M398 741.3L367.5 782L379 786Z" fill="#704820" stroke="#704820"></path><path d="M379 786L317.5 899.7L413 880.7Z" fill="#865521" stroke="#865521"></path><path d="M526 1164L594.5 1199L608.5 1161.3Z" fill="#c87f1c" stroke="#c87f1c"></path><path d="M854.5 1115.3L909 1071.7L896.5 1064.7Z" fill="#865521" stroke="#865521"></path><path d="M896.5 1064.7L909 1071.7L922 993Z" fill="#31241a" stroke="#31241a"></path><path d="M848.5 635.7L774.5 596L742.5 647.7Z" fill="#31241a" stroke="#31241a"></path><path d="M688 629.7L653 571L592.5 600Z" fill="#452f1d" stroke="#452f1d"></path><path d="M683 547.3L653 571L688 629.7Z" fill="#704820" stroke="#704820"></path><path d="M502 594L492.5 645.7L549 631.7Z" fill="#452f1d" stroke="#452f1d"></path><path d="M848 679.7L848.5 635.7L742.5 647.7Z" fill="#31241a" stroke="#31241a"></path><path d="M915 623L848.5 635.7L848 679.7Z" fill="#704820" stroke="#704820"></path><path d="M502 594L549 631.7L592.5 600Z" fill="#f59e0b" stroke="#f59e0b"></path><path d="M492.5 645.7L460.5 622L458.5 696.3Z" fill="#c87f1c" stroke="#c87f1c"></path><path d="M398 741.3L320.5 694.3L367.5 782Z" fill="#b2711f" stroke="#b2711f"></path><path d="M998.5 966.3L981 876.7L949 944.3Z" fill="#704820" stroke="#704820"></path><path d="M949 944.3L981 876.7L877.5 875.7Z" fill="#b2711f" stroke="#b2711f"></path><path d="M943 828L981 766.3L859.5 744.3Z" fill="#df8e16" stroke="#df8e16"></path><path d="M585.5 505.7L502 594L592.5 600Z" fill="#5b3b1f" stroke="#5b3b1f"></path><path d="M683 547.3L645.5 558.3L653 571Z" fill="#31241a" stroke="#31241a"></path><path d="M653 571L645.5 558.3L592.5 600Z" fill="#31241a" stroke="#31241a"></path><path d="M367.5 782L317.5 899.7L379 786Z" fill="#c87f1c" stroke="#c87f1c"></path><path d="M373 980L314.5 1008L397 1043.7Z" fill="#b2711f" stroke="#b2711f"></path><path d="M317.5 899.7L323.5 969.3L396 949.3Z" fill="#452f1d" stroke="#452f1d"></path><path d="M397 1043.7L376.5 1097.7L481.5 1100.7Z" fill="#1c1917" stroke="#1c1917"></path><path d="M848.5 635.7L841.5 614L774.5 596Z" fill="#452f1d" stroke="#452f1d"></path><path d="M774.5 596L683 547.3L688 629.7Z" fill="#f59e0b" stroke="#f59e0b"></path><path d="M915 623L841.5 614L848.5 635.7Z" fill="#1c1917" stroke="#1c1917"></path><path d="M807 1197L740.5 1127.3L765.5 1221Z" fill="#1c1917" stroke="#1c1917"></path><path d="M807 1197L845 1122.3L740.5 1127.3Z" fill="#5b3b1f" stroke="#5b3b1f"></path><path d="M845 1122.3L845.5 1168L854.5 1115.3Z" fill="#9c6321" stroke="#9c6321"></path><path d="M854.5 1115.3L974 1149.3L909 1071.7Z" fill="#31241a" stroke="#31241a"></path><path d="M369 630L412 648.7L383 568.3Z" fill="#df8e16" stroke="#df8e16"></path><path d="M460.5 622L412 648.7L458.5 696.3Z" fill="#f59e0b" stroke="#f59e0b"></path><path d="M284 763L278 895.3L317.5 899.7Z" fill="#9c6321" stroke="#9c6321"></path><path d="M841.5 614L825 596L774.5 596Z" fill="#df8e16" stroke="#df8e16"></path><path d="M306 1067.7L376.5 1097.7L397 1043.7Z" fill="#df8e16" stroke="#df8e16"></path><path d="M470.5 1130.3L495.5 1199L521 1145.3Z" fill="#704820" stroke="#704820"></path><path d="M526 1164L549 1248.7L594.5 1199Z" fill="#31241a" stroke="#31241a"></path><path d="M765.5 1221L740.5 1127.3L698 1173Z" fill="#c87f1c" stroke="#c87f1c"></path><path d="M384 1200L495.5 1199L470.5 1130.3Z" fill="#df8e16" stroke="#df8e16"></path><path d="M778.5 535.3L683 547.3L774.5 596Z" fill="#f59e0b" stroke="#f59e0b"></path><path d="M645.5 558.3L585.5 505.7L592.5 600Z" fill="#c87f1c" stroke="#c87f1c"></path><path d="M601.5 1263.7L709 1232.7L594.5 1199Z" fill="#df8e16" stroke="#df8e16"></path><path d="M594.5 1199L709 1232.7L698 1173Z" fill="#865521" stroke="#865521"></path><path d="M1054 839.7L995.5 844.7L981 876.7Z" fill="#f59e0b" stroke="#f59e0b"></path><path d="M981 876.7L995.5 844.7L943 828Z" fill="#5b3b1f" stroke="#5b3b1f"></path><path d="M709 1232.7L765.5 1221L698 1173Z" fill="#1c1917" stroke="#1c1917"></path><path d="M995.5 844.7L995.5 816L943 828Z" fill="#452f1d" stroke="#452f1d"></path><path d="M995.5 816L981 766.3L943 828Z" fill="#df8e16" stroke="#df8e16"></path><path d="M309 1011L314.5 1008L323.5 969.3Z" fill="#9c6321" stroke="#9c6321"></path><path d="M323.5 969.3L314.5 1008L373 980Z" fill="#1c1917" stroke="#1c1917"></path><path d="M1002.5 1076.7L922 993L909 1071.7Z" fill="#452f1d" stroke="#452f1d"></path><path d="M1002.5 1076.7L998.5 966.3L922 993Z" fill="#865521" stroke="#865521"></path><path d="M995.5 844.7L1054 839.7L995.5 816Z" fill="#5b3b1f" stroke="#5b3b1f"></path><path d="M995.5 816L984.5 762.3L981 766.3Z" fill="#1c1917" stroke="#1c1917"></path><path d="M981 766.3L981 700.7L859.5 744.3Z" fill="#5b3b1f" stroke="#5b3b1f"></path><path d="M841.5 614L852.5 521.3L825 596Z" fill="#865521" stroke="#865521"></path><path d="M234.5 943.3L309 1011L323.5 969.3Z" fill="#865521" stroke="#865521"></path><path d="M314.5 1008L306 1067.7L397 1043.7Z" fill="#865521" stroke="#865521"></path><path d="M517 1296.3L549 1248.7L495.5 1199Z" fill="#9c6321" stroke="#9c6321"></path><path d="M495.5 1199L549 1248.7L526 1164Z" fill="#865521" stroke="#865521"></path><path d="M284 763L317.5 899.7L367.5 782Z" fill="#704820" stroke="#704820"></path><path d="M317.5 899.7L278 895.3L323.5 969.3Z" fill="#c87f1c" stroke="#c87f1c"></path><path d="M549 1248.7L601.5 1263.7L594.5 1199Z" fill="#9c6321" stroke="#9c6321"></path><path d="M709 1232.7L727.5 1259.7L765.5 1221Z" fill="#452f1d" stroke="#452f1d"></path><path d="M308 1119.3L382 1154.3L376.5 1097.7Z" fill="#452f1d" stroke="#452f1d"></path><path d="M376.5 1097.7L382 1154.3L470.5 1130.3Z" fill="#b2711f" stroke="#b2711f"></path><path d="M977.5 683.7L848 679.7L859.5 744.3Z" fill="#df8e16" stroke="#df8e16"></path><path d="M825 596L778.5 535.3L774.5 596Z" fill="#df8e16" stroke="#df8e16"></path><path d="M658 1321.3L727.5 1259.7L709 1232.7Z" fill="#704820" stroke="#704820"></path><path d="M765.5 1221L802 1261.7L807 1197Z" fill="#b2711f" stroke="#b2711f"></path><path d="M974 1149.3L854.5 1115.3L845.5 1168Z" fill="#1c1917" stroke="#1c1917"></path><path d="M798 503.3L778.5 535.3L852.5 521.3Z" fill="#452f1d" stroke="#452f1d"></path><path d="M1043 716.3L981 700.7L984.5 762.3Z" fill="#5b3b1f" stroke="#5b3b1f"></path><path d="M984.5 762.3L981 700.7L981 766.3Z" fill="#865521" stroke="#865521"></path><path d="M383 568.3L412 648.7L460.5 622Z" fill="#c87f1c" stroke="#c87f1c"></path><path d="M412 648.7L344.5 648.7L398 741.3Z" fill="#704820" stroke="#704820"></path><path d="M369 630L361.5 638L412 648.7Z" fill="#f59e0b" stroke="#f59e0b"></path><path d="M344.5 648.7L320.5 694.3L398 741.3Z" fill="#1c1917" stroke="#1c1917"></path><path d="M981 700.7L977.5 683.7L859.5 744.3Z" fill="#31241a" stroke="#31241a"></path><path d="M233.5 1007L306 1067.7L309 1011Z" fill="#31241a" stroke="#31241a"></path><path d="M309 1011L306 1067.7L314.5 1008Z" fill="#9c6321" stroke="#9c6321"></path><path d="M320.5 694.3L284 763L367.5 782Z" fill="#c87f1c" stroke="#c87f1c"></path><path d="M361.5 638L344.5 648.7L412 648.7Z" fill="#1c1917" stroke="#1c1917"></path><path d="M244 689.7L236 752.3L284 763Z" fill="#9c6321" stroke="#9c6321"></path><path d="M369 630L344.5 648.7L361.5 638Z" fill="#9c6321" stroke="#9c6321"></path><path d="M649 484.7L645.5 558.3L683 547.3Z" fill="#c87f1c" stroke="#c87f1c"></path><path d="M649 484.7L585.5 505.7L645.5 558.3Z" fill="#1c1917" stroke="#1c1917"></path><path d="M457.5 505.3L383 568.3L460.5 622Z" fill="#b2711f" stroke="#b2711f"></path><path d="M896.5 1268.7L845.5 1168L807 1197Z" fill="#b2711f" stroke="#b2711f"></path><path d="M974 1149.3L1002.5 1076.7L909 1071.7Z" fill="#865521" stroke="#865521"></path><path d="M998.5 966.3L1046 967L981 876.7Z" fill="#b2711f" stroke="#b2711f"></path><path d="M842 1309.3L802 1261.7L830 1361Z" fill="#9c6321" stroke="#9c6321"></path><path d="M727.5 1259.7L802 1261.7L765.5 1221Z" fill="#865521" stroke="#865521"></path><path d="M1036.5 1017L1046 967L998.5 966.3Z" fill="#b2711f" stroke="#b2711f"></path><path d="M995.5 816L1043 716.3L984.5 762.3Z" fill="#704820" stroke="#704820"></path><path d="M981 700.7L1044 689.7L977.5 683.7Z" fill="#b2711f" stroke="#b2711f"></path><path d="M1002.5 1076.7L1036.5 1017L998.5 966.3Z" fill="#1c1917" stroke="#1c1917"></path><path d="M708.5 455.7L649 484.7L683 547.3Z" fill="#df8e16" stroke="#df8e16"></path><path d="M1046 967L1054 839.7L981 876.7Z" fill="#c87f1c" stroke="#c87f1c"></path><path d="M516 466.7L505 510.3L585.5 505.7Z" fill="#452f1d" stroke="#452f1d"></path><path d="M585.5 505.7L505 510.3L502 594Z" fill="#c87f1c" stroke="#c87f1c"></path><path d="M369 630L263 558.3L344.5 648.7Z" fill="#704820" stroke="#704820"></path><path d="M324.5 1197L384 1200L382 1154.3Z" fill="#5b3b1f" stroke="#5b3b1f"></path><path d="M382 1154.3L384 1200L470.5 1130.3Z" fill="#5b3b1f" stroke="#5b3b1f"></path><path d="M256 1163L308 1119.3L224.5 1115.3Z" fill="#df8e16" stroke="#df8e16"></path><path d="M306 1067.7L308 1119.3L376.5 1097.7Z" fill="#452f1d" stroke="#452f1d"></path><path d="M983.5 1156.3L974 1149.3L965 1186Z" fill="#df8e16" stroke="#df8e16"></path><path d="M1002.5 1076.7L1055 1069.7L1036.5 1017Z" fill="#c87f1c" stroke="#c87f1c"></path><path d="M852.5 521.3L778.5 535.3L825 596Z" fill="#5b3b1f" stroke="#5b3b1f"></path><path d="M778.5 535.3L708.5 455.7L683 547.3Z" fill="#1c1917" stroke="#1c1917"></path><path d="M852.5 521.3L841.5 614L915 623Z" fill="#c87f1c" stroke="#c87f1c"></path><path d="M176.5 811L234 902.7L278 895.3Z" fill="#f59e0b" stroke="#f59e0b"></path><path d="M278 895.3L234.5 943.3L323.5 969.3Z" fill="#b2711f" stroke="#b2711f"></path><path d="M457.5 505.3L460.5 622L502 594Z" fill="#b2711f" stroke="#b2711f"></path><path d="M244 689.7L284 763L320.5 694.3Z" fill="#865521" stroke="#865521"></path><path d="M234 902.7L234.5 943.3L278 895.3Z" fill="#9c6321" stroke="#9c6321"></path><path d="M917 501.3L852.5 521.3L915 623Z" fill="#704820" stroke="#704820"></path><path d="M384 1200L449.5 1265.7L495.5 1199Z" fill="#5b3b1f" stroke="#5b3b1f"></path><path d="M549 1248.7L517 1296.3L601.5 1263.7Z" fill="#b2711f" stroke="#b2711f"></path><path d="M601.5 1263.7L658 1321.3L709 1232.7Z" fill="#9c6321" stroke="#9c6321"></path><path d="M965 1186L974 1149.3L845.5 1168Z" fill="#31241a" stroke="#31241a"></path><path d="M974 1149.3L983.5 1156.3L1002.5 1076.7Z" fill="#865521" stroke="#865521"></path><path d="M449.5 1265.7L517 1296.3L495.5 1199Z" fill="#1c1917" stroke="#1c1917"></path><path d="M1054 839.7L1043 716.3L995.5 816Z" fill="#5b3b1f" stroke="#5b3b1f"></path><path d="M977.5 683.7L978.5 607L915 623Z" fill="#df8e16" stroke="#df8e16"></path><path d="M616.5 1363.3L658 1321.3L601.5 1263.7Z" fill="#f59e0b" stroke="#f59e0b"></path><path d="M896.5 1268.7L965 1186L845.5 1168Z" fill="#1c1917" stroke="#1c1917"></path><path d="M516 466.7L457.5 505.3L505 510.3Z" fill="#f59e0b" stroke="#f59e0b"></path><path d="M505 510.3L457.5 505.3L502 594Z" fill="#452f1d" stroke="#452f1d"></path><path d="M174 1001L233.5 1007L234.5 943.3Z" fill="#704820" stroke="#704820"></path><path d="M234.5 943.3L233.5 1007L309 1011Z" fill="#5b3b1f" stroke="#5b3b1f"></path><path d="M1044 689.7L978.5 607L977.5 683.7Z" fill="#31241a" stroke="#31241a"></path><path d="M256 1163L314.5 1169.3L308 1119.3Z" fill="#452f1d" stroke="#452f1d"></path><path d="M308 1119.3L314.5 1169.3L382 1154.3Z" fill="#452f1d" stroke="#452f1d"></path><path d="M384 1200L373 1228.7L449.5 1265.7Z" fill="#704820" stroke="#704820"></path><path d="M324.5 1197L373 1228.7L384 1200Z" fill="#704820" stroke="#704820"></path><path d="M244 689.7L320.5 694.3L230.5 667.7Z" fill="#9c6321" stroke="#9c6321"></path><path d="M284 763L176.5 811L278 895.3Z" fill="#df8e16" stroke="#df8e16"></path><path d="M798 503.3L708.5 455.7L778.5 535.3Z" fill="#b2711f" stroke="#b2711f"></path><path d="M548 412L516 466.7L585.5 505.7Z" fill="#c87f1c" stroke="#c87f1c"></path><path d="M799 443.7L708.5 455.7L798 503.3Z" fill="#df8e16" stroke="#df8e16"></path><path d="M1148.5 748.3L1044 689.7L1043 716.3Z" fill="#704820" stroke="#704820"></path><path d="M1043 716.3L1044 689.7L981 700.7Z" fill="#f59e0b" stroke="#f59e0b"></path><path d="M1087 1109.3L1002.5 1076.7L983.5 1156.3Z" fill="#c87f1c" stroke="#c87f1c"></path><path d="M1087 1109.3L1055 1069.7L1002.5 1076.7Z" fill="#c87f1c" stroke="#c87f1c"></path><path d="M1036.5 1017L1098 945.3L1046 967Z" fill="#df8e16" stroke="#df8e16"></path><path d="M1046 967L1098 945.3L1054 839.7Z" fill="#704820" stroke="#704820"></path><path d="M621.5 405L585.5 505.7L649 484.7Z" fill="#865521" stroke="#865521"></path><path d="M314.5 1169.3L324.5 1197L382 1154.3Z" fill="#f59e0b" stroke="#f59e0b"></path><path d="M256 1163L324.5 1197L314.5 1169.3Z" fill="#1c1917" stroke="#1c1917"></path><path d="M842 1309.3L896.5 1268.7L802 1261.7Z" fill="#452f1d" stroke="#452f1d"></path><path d="M802 1261.7L896.5 1268.7L807 1197Z" fill="#df8e16" stroke="#df8e16"></path><path d="M1154.5 971L1098 945.3L1036.5 1017Z" fill="#5b3b1f" stroke="#5b3b1f"></path><path d="M1054 839.7L1098 833L1043 716.3Z" fill="#9c6321" stroke="#9c6321"></path><path d="M1130.5 901.3L1098 833L1054 839.7Z" fill="#9c6321" stroke="#9c6321"></path><path d="M230.5 667.7L320.5 694.3L344.5 648.7Z" fill="#df8e16" stroke="#df8e16"></path><path d="M982 1236.7L1003.5 1182L965 1186Z" fill="#704820" stroke="#704820"></path><path d="M965 1186L1003.5 1182L983.5 1156.3Z" fill="#df8e16" stroke="#df8e16"></path><path d="M423 490.7L365.5 533.3L383 568.3Z" fill="#9c6321" stroke="#9c6321"></path><path d="M263 558.3L238 597L344.5 648.7Z" fill="#1c1917" stroke="#1c1917"></path><path d="M423 490.7L383 568.3L457.5 505.3Z" fill="#c87f1c" stroke="#c87f1c"></path><path d="M714.5 1358.3L802 1261.7L727.5 1259.7Z" fill="#5b3b1f" stroke="#5b3b1f"></path><path d="M486.5 431.7L423 490.7L457.5 505.3Z" fill="#704820" stroke="#704820"></path><path d="M244 689.7L212.5 724.3L236 752.3Z" fill="#704820" stroke="#704820"></path><path d="M176.5 811L181.5 893.7L234 902.7Z" fill="#9c6321" stroke="#9c6321"></path><path d="M234 902.7L181.5 893.7L234.5 943.3Z" fill="#b2711f" stroke="#b2711f"></path><path d="M230.5 667.7L212.5 724.3L244 689.7Z" fill="#b2711f" stroke="#b2711f"></path><path d="M176.5 811L284 763L236 752.3Z" fill="#1c1917" stroke="#1c1917"></path><path d="M869.5 456.7L798 503.3L852.5 521.3Z" fill="#b2711f" stroke="#b2711f"></path><path d="M869.5 456.7L799 443.7L798 503.3Z" fill="#31241a" stroke="#31241a"></path><path d="M708.5 455.7L702.5 415L649 484.7Z" fill="#452f1d" stroke="#452f1d"></path><path d="M640 1388L714.5 1358.3L658 1321.3Z" fill="#452f1d" stroke="#452f1d"></path><path d="M658 1321.3L714.5 1358.3L727.5 1259.7Z" fill="#9c6321" stroke="#9c6321"></path><path d="M965 499.7L917 501.3L978.5 607Z" fill="#452f1d" stroke="#452f1d"></path><path d="M978.5 607L917 501.3L915 623Z" fill="#df8e16" stroke="#df8e16"></path><path d="M574 1363L601.5 1263.7L517 1296.3Z" fill="#df8e16" stroke="#df8e16"></path><path d="M574 1363L616.5 1363.3L601.5 1263.7Z" fill="#865521" stroke="#865521"></path><path d="M574 1363L517 1296.3L452.5 1360.3Z" fill="#df8e16" stroke="#df8e16"></path><path d="M238 597L230.5 667.7L344.5 648.7Z" fill="#df8e16" stroke="#df8e16"></path><path d="M452.5 1360.3L517 1296.3L449.5 1265.7Z" fill="#c87f1c" stroke="#c87f1c"></path><path d="M452.5 1360.3L449.5 1265.7L410 1352.3Z" fill="#c87f1c" stroke="#c87f1c"></path><path d="M896.5 1268.7L982 1236.7L965 1186Z" fill="#704820" stroke="#704820"></path><path d="M1003.5 1182L1087 1109.3L983.5 1156.3Z" fill="#1c1917" stroke="#1c1917"></path><path d="M928 1296.3L982 1236.7L896.5 1268.7Z" fill="#c87f1c" stroke="#c87f1c"></path><path d="M799 443.7L702.5 415L708.5 455.7Z" fill="#5b3b1f" stroke="#5b3b1f"></path><path d="M516 466.7L486.5 431.7L457.5 505.3Z" fill="#9c6321" stroke="#9c6321"></path><path d="M224.5 1115.3L306 1067.7L233.5 1007Z" fill="#704820" stroke="#704820"></path><path d="M224.5 1115.3L308 1119.3L306 1067.7Z" fill="#df8e16" stroke="#df8e16"></path><path d="M324.5 1197L304.5 1248.7L373 1228.7Z" fill="#b2711f" stroke="#b2711f"></path><path d="M1154.5 971L1130.5 901.3L1098 945.3Z" fill="#31241a" stroke="#31241a"></path><path d="M1098 945.3L1130.5 901.3L1054 839.7Z" fill="#f59e0b" stroke="#f59e0b"></path><path d="M1098 833L1148.5 748.3L1043 716.3Z" fill="#b2711f" stroke="#b2711f"></path><path d="M1117.5 1081.7L1036.5 1017L1055 1069.7Z" fill="#9c6321" stroke="#9c6321"></path><path d="M123 862.7L176.5 811L136 771Z" fill="#31241a" stroke="#31241a"></path><path d="M212.5 724.3L176.5 811L236 752.3Z" fill="#1c1917" stroke="#1c1917"></path><path d="M170.5 1056.7L224.5 1115.3L233.5 1007Z" fill="#1c1917" stroke="#1c1917"></path><path d="M1130.5 901.3L1128.5 830.7L1098 833Z" fill="#865521" stroke="#865521"></path><path d="M917 501.3L869.5 456.7L852.5 521.3Z" fill="#31241a" stroke="#31241a"></path><path d="M799 443.7L803 426L702.5 415Z" fill="#1c1917" stroke="#1c1917"></path><path d="M702.5 415L621.5 405L649 484.7Z" fill="#704820" stroke="#704820"></path><path d="M548 412L486.5 431.7L516 466.7Z" fill="#b2711f" stroke="#b2711f"></path><path d="M263 558.3L383 568.3L365.5 533.3Z" fill="#9c6321" stroke="#9c6321"></path><path d="M1108.5 1125.3L1087 1109.3L1101 1203Z" fill="#df8e16" stroke="#df8e16"></path><path d="M109 902.3L174 1001L181.5 893.7Z" fill="#865521" stroke="#865521"></path><path d="M181.5 893.7L174 1001L234.5 943.3Z" fill="#452f1d" stroke="#452f1d"></path><path d="M869.5 456.7L803 426L799 443.7Z" fill="#1c1917" stroke="#1c1917"></path><path d="M702.5 415L667 378L621.5 405Z" fill="#9c6321" stroke="#9c6321"></path><path d="M621.5 405L548 412L585.5 505.7Z" fill="#9c6321" stroke="#9c6321"></path><path d="M842.5 1353.3L928 1296.3L842 1309.3Z" fill="#452f1d" stroke="#452f1d"></path><path d="M842 1309.3L928 1296.3L896.5 1268.7Z" fill="#9c6321" stroke="#9c6321"></path><path d="M569 1432.7L640 1388L616.5 1363.3Z" fill="#b2711f" stroke="#b2711f"></path><path d="M616.5 1363.3L640 1388L658 1321.3Z" fill="#df8e16" stroke="#df8e16"></path><path d="M830 1361L842.5 1353.3L842 1309.3Z" fill="#1c1917" stroke="#1c1917"></path><path d="M222.5 1192L304.5 1248.7L256 1163Z" fill="#df8e16" stroke="#df8e16"></path><path d="M256 1163L304.5 1248.7L324.5 1197Z" fill="#b2711f" stroke="#b2711f"></path><path d="M830 1361L802 1261.7L714.5 1358.3Z" fill="#c87f1c" stroke="#c87f1c"></path><path d="M1044 566.3L978.5 607L1093 619Z" fill="#704820" stroke="#704820"></path><path d="M1034.5 525.3L965 499.7L978.5 607Z" fill="#df8e16" stroke="#df8e16"></path><path d="M917 501.3L976.5 458.7L869.5 456.7Z" fill="#452f1d" stroke="#452f1d"></path><path d="M869.5 456.7L883.5 369L803 426Z" fill="#452f1d" stroke="#452f1d"></path><path d="M773.5 1400L830 1361L714.5 1358.3Z" fill="#31241a" stroke="#31241a"></path><path d="M1108.5 1125.3L1117.5 1081.7L1087 1109.3Z" fill="#c87f1c" stroke="#c87f1c"></path><path d="M1087 1109.3L1117.5 1081.7L1055 1069.7Z" fill="#5b3b1f" stroke="#5b3b1f"></path><path d="M263 558.3L369 630L383 568.3Z" fill="#5b3b1f" stroke="#5b3b1f"></path><path d="M126 718.3L136 771L212.5 724.3Z" fill="#31241a" stroke="#31241a"></path><path d="M263 558.3L365.5 533.3L301 474.7Z" fill="#b2711f" stroke="#b2711f"></path><path d="M115 1077.7L170.5 1056.7L174 1001Z" fill="#c87f1c" stroke="#c87f1c"></path><path d="M174 1001L170.5 1056.7L233.5 1007Z" fill="#865521" stroke="#865521"></path><path d="M224.5 1115.3L222.5 1192L256 1163Z" fill="#b2711f" stroke="#b2711f"></path><path d="M410 1352.3L449.5 1265.7L373 1228.7Z" fill="#865521" stroke="#865521"></path><path d="M574 1363L569 1432.7L616.5 1363.3Z" fill="#865521" stroke="#865521"></path><path d="M1093 619L978.5 607L1044 689.7Z" fill="#b2711f" stroke="#b2711f"></path><path d="M1117.5 1081.7L1154.5 971L1036.5 1017Z" fill="#b2711f" stroke="#b2711f"></path><path d="M1182 844.7L1154.5 775L1128.5 830.7Z" fill="#b2711f" stroke="#b2711f"></path><path d="M364.5 433.7L365.5 533.3L423 490.7Z" fill="#31241a" stroke="#31241a"></path><path d="M723.5 344.3L667 378L702.5 415Z" fill="#31241a" stroke="#31241a"></path><path d="M551 304.3L495.5 373L548 412Z" fill="#452f1d" stroke="#452f1d"></path><path d="M1101 1203L1087 1109.3L1003.5 1182Z" fill="#9c6321" stroke="#9c6321"></path><path d="M1192 1030L1177 931.3L1154.5 971Z" fill="#f59e0b" stroke="#f59e0b"></path><path d="M1101 1203L1003.5 1182L1088 1247.7Z" fill="#452f1d" stroke="#452f1d"></path><path d="M944 1364L973.5 1294.7L928 1296.3Z" fill="#452f1d" stroke="#452f1d"></path><path d="M928 1296.3L973.5 1294.7L982 1236.7Z" fill="#5b3b1f" stroke="#5b3b1f"></path><path d="M944 1364L928 1296.3L842.5 1353.3Z" fill="#5b3b1f" stroke="#5b3b1f"></path><path d="M1182 844.7L1128.5 830.7L1130.5 901.3Z" fill="#452f1d" stroke="#452f1d"></path><path d="M1128.5 830.7L1154.5 775L1098 833Z" fill="#df8e16" stroke="#df8e16"></path><path d="M1154.5 775L1148.5 748.3L1098 833Z" fill="#df8e16" stroke="#df8e16"></path><path d="M1120.5 627.7L1093 619L1044 689.7Z" fill="#31241a" stroke="#31241a"></path><path d="M313.5 1351.3L410 1352.3L373 1228.7Z" fill="#1c1917" stroke="#1c1917"></path><path d="M115 1077.7L169 1094.3L170.5 1056.7Z" fill="#452f1d" stroke="#452f1d"></path><path d="M170.5 1056.7L169 1094.3L224.5 1115.3Z" fill="#5b3b1f" stroke="#5b3b1f"></path><path d="M169 1094.3L222.5 1192L224.5 1115.3Z" fill="#31241a" stroke="#31241a"></path><path d="M304.5 1248.7L313.5 1351.3L373 1228.7Z" fill="#9c6321" stroke="#9c6321"></path><path d="M709 1491.7L773.5 1400L714.5 1358.3Z" fill="#df8e16" stroke="#df8e16"></path><path d="M903.5 1401L944 1364L842.5 1353.3Z" fill="#5b3b1f" stroke="#5b3b1f"></path><path d="M222.5 1192L288 1269.7L304.5 1248.7Z" fill="#9c6321" stroke="#9c6321"></path><path d="M1185 1028.7L1154.5 971L1117.5 1081.7Z" fill="#b2711f" stroke="#b2711f"></path><path d="M1154.5 971L1177 931.3L1130.5 901.3Z" fill="#704820" stroke="#704820"></path><path d="M136 771L176.5 811L212.5 724.3Z" fill="#5b3b1f" stroke="#5b3b1f"></path><path d="M176.5 811L123 862.7L181.5 893.7Z" fill="#9c6321" stroke="#9c6321"></path><path d="M126 718.3L212.5 724.3L126 647.7Z" fill="#704820" stroke="#704820"></path><path d="M1114.5 504.3L1034.5 525.3L1044 566.3Z" fill="#452f1d" stroke="#452f1d"></path><path d="M1044 566.3L1034.5 525.3L978.5 607Z" fill="#865521" stroke="#865521"></path><path d="M965 499.7L976.5 458.7L917 501.3Z" fill="#f59e0b" stroke="#f59e0b"></path><path d="M1154.5 775L1232 750.3L1148.5 748.3Z" fill="#9c6321" stroke="#9c6321"></path><path d="M1177 931.3L1182 844.7L1130.5 901.3Z" fill="#f59e0b" stroke="#f59e0b"></path><path d="M1148.5 748.3L1120.5 627.7L1044 689.7Z" fill="#1c1917" stroke="#1c1917"></path><path d="M1093 619L1114.5 504.3L1044 566.3Z" fill="#b2711f" stroke="#b2711f"></path><path d="M1167.5 609L1120.5 627.7L1181 624Z" fill="#5b3b1f" stroke="#5b3b1f"></path><path d="M386 368L364.5 433.7L486.5 431.7Z" fill="#c87f1c" stroke="#c87f1c"></path><path d="M486.5 431.7L364.5 433.7L423 490.7Z" fill="#865521" stroke="#865521"></path><path d="M495.5 373L486.5 431.7L548 412Z" fill="#df8e16" stroke="#df8e16"></path><path d="M437 1420L456.5 1395L410 1352.3Z" fill="#452f1d" stroke="#452f1d"></path><path d="M410 1352.3L456.5 1395L452.5 1360.3Z" fill="#c87f1c" stroke="#c87f1c"></path><path d="M452.5 1360.3L456.5 1395L574 1363Z" fill="#865521" stroke="#865521"></path><path d="M640 1388L709 1491.7L714.5 1358.3Z" fill="#1c1917" stroke="#1c1917"></path><path d="M598.5 327.3L548 412L621.5 405Z" fill="#9c6321" stroke="#9c6321"></path><path d="M1034.5 525.3L976.5 458.7L965 499.7Z" fill="#9c6321" stroke="#9c6321"></path><path d="M803 426L723.5 344.3L702.5 415Z" fill="#5b3b1f" stroke="#5b3b1f"></path><path d="M74.5 909.3L109 902.3L71.5 836.7Z" fill="#31241a" stroke="#31241a"></path><path d="M123 862.7L109 902.3L181.5 893.7Z" fill="#31241a" stroke="#31241a"></path><path d="M364.5 433.7L301 474.7L365.5 533.3Z" fill="#5b3b1f" stroke="#5b3b1f"></path><path d="M177.5 508.3L165.5 625L238 597Z" fill="#704820" stroke="#704820"></path><path d="M165.5 625L212.5 724.3L230.5 667.7Z" fill="#704820" stroke="#704820"></path><path d="M456.5 1395L569 1432.7L574 1363Z" fill="#c87f1c" stroke="#c87f1c"></path><path d="M1088 1247.7L1003.5 1182L982 1236.7Z" fill="#452f1d" stroke="#452f1d"></path><path d="M1192 1030L1185 1028.7L1117.5 1081.7Z" fill="#f59e0b" stroke="#f59e0b"></path><path d="M779 312.3L723.5 344.3L803 426Z" fill="#704820" stroke="#704820"></path><path d="M667 378L598.5 327.3L621.5 405Z" fill="#1c1917" stroke="#1c1917"></path><path d="M1192 1030L1117.5 1081.7L1197 1162.3Z" fill="#452f1d" stroke="#452f1d"></path><path d="M1248.5 900.3L1224 792L1182 844.7Z" fill="#f59e0b" stroke="#f59e0b"></path><path d="M165.5 625L230.5 667.7L238 597Z" fill="#1c1917" stroke="#1c1917"></path><path d="M71.5 836.7L109 902.3L123 862.7Z" fill="#704820" stroke="#704820"></path><path d="M456.5 1395L568.5 1438L569 1432.7Z" fill="#f59e0b" stroke="#f59e0b"></path><path d="M569 1432.7L581.5 1469.7L640 1388Z" fill="#704820" stroke="#704820"></path><path d="M177.5 508.3L238 597L263 558.3Z" fill="#c87f1c" stroke="#c87f1c"></path><path d="M903.5 1401L842.5 1353.3L830 1361Z" fill="#c87f1c" stroke="#c87f1c"></path><path d="M973.5 1294.7L1088 1247.7L982 1236.7Z" fill="#865521" stroke="#865521"></path><path d="M1197 1162.3L1117.5 1081.7L1108.5 1125.3Z" fill="#704820" stroke="#704820"></path><path d="M1185 1028.7L1192 1030L1154.5 971Z" fill="#b2711f" stroke="#b2711f"></path><path d="M1021.5 1350.3L1088 1247.7L973.5 1294.7Z" fill="#b2711f" stroke="#b2711f"></path><path d="M1101 1203L1148.5 1198L1108.5 1125.3Z" fill="#865521" stroke="#865521"></path><path d="M663 302.7L598.5 327.3L667 378Z" fill="#704820" stroke="#704820"></path><path d="M78.5 1064.7L115 1077.7L174 1001Z" fill="#865521" stroke="#865521"></path><path d="M169 1094.3L105.5 1188L222.5 1192Z" fill="#b2711f" stroke="#b2711f"></path><path d="M222.5 1192L234.5 1280.7L288 1269.7Z" fill="#865521" stroke="#865521"></path><path d="M849 1479.7L903.5 1401L830 1361Z" fill="#9c6321" stroke="#9c6321"></path><path d="M944 1364L989.5 1374L973.5 1294.7Z" fill="#1c1917" stroke="#1c1917"></path><path d="M849 1479.7L830 1361L773.5 1400Z" fill="#9c6321" stroke="#9c6321"></path><path d="M142 1264.7L234.5 1280.7L222.5 1192Z" fill="#865521" stroke="#865521"></path><path d="M288 1269.7L313.5 1351.3L304.5 1248.7Z" fill="#704820" stroke="#704820"></path><path d="M357.5 1434L437 1420L410 1352.3Z" fill="#5b3b1f" stroke="#5b3b1f"></path><path d="M456.5 1395L437 1420L568.5 1438Z" fill="#f59e0b" stroke="#f59e0b"></path><path d="M234.5 1280.7L313.5 1351.3L288 1269.7Z" fill="#f59e0b" stroke="#f59e0b"></path><path d="M927 371.3L883.5 369L869.5 456.7Z" fill="#b2711f" stroke="#b2711f"></path><path d="M779 312.3L690 319.3L723.5 344.3Z" fill="#df8e16" stroke="#df8e16"></path><path d="M723.5 344.3L690 319.3L667 378Z" fill="#452f1d" stroke="#452f1d"></path><path d="M126 647.7L106.5 701.7L126 718.3Z" fill="#9c6321" stroke="#9c6321"></path><path d="M126 718.3L27.5 778L136 771Z" fill="#df8e16" stroke="#df8e16"></path><path d="M71.5 836.7L123 862.7L136 771Z" fill="#b2711f" stroke="#b2711f"></path><path d="M109 902.3L68.5 974L174 1001Z" fill="#704820" stroke="#704820"></path><path d="M976.5 458.7L950 385L869.5 456.7Z" fill="#f59e0b" stroke="#f59e0b"></path><path d="M1080 448.7L986.5 422L976.5 458.7Z" fill="#704820" stroke="#704820"></path><path d="M1080 448.7L976.5 458.7L1034.5 525.3Z" fill="#5b3b1f" stroke="#5b3b1f"></path><path d="M165.5 625L126 647.7L212.5 724.3Z" fill="#f59e0b" stroke="#f59e0b"></path><path d="M102 637L126 647.7L165.5 625Z" fill="#df8e16" stroke="#df8e16"></path><path d="M27.5 778L71.5 836.7L136 771Z" fill="#704820" stroke="#704820"></path><path d="M1248.5 900.3L1182 844.7L1177 931.3Z" fill="#df8e16" stroke="#df8e16"></path><path d="M1182 844.7L1224 792L1154.5 775Z" fill="#b2711f" stroke="#b2711f"></path><path d="M559 1532.3L581.5 1469.7L568.5 1438Z" fill="#865521" stroke="#865521"></path><path d="M568.5 1438L581.5 1469.7L569 1432.7Z" fill="#5b3b1f" stroke="#5b3b1f"></path><path d="M234.5 1280.7L307 1364.3L313.5 1351.3Z" fill="#1c1917" stroke="#1c1917"></path><path d="M313.5 1351.3L357.5 1434L410 1352.3Z" fill="#704820" stroke="#704820"></path><path d="M1183.5 1288.7L1148.5 1198L1088 1247.7Z" fill="#9c6321" stroke="#9c6321"></path><path d="M1088 1247.7L1148.5 1198L1101 1203Z" fill="#452f1d" stroke="#452f1d"></path><path d="M467.5 331.3L386 368L495.5 373Z" fill="#c87f1c" stroke="#c87f1c"></path><path d="M495.5 373L386 368L486.5 431.7Z" fill="#704820" stroke="#704820"></path><path d="M364.5 433.7L303.5 411L301 474.7Z" fill="#31241a" stroke="#31241a"></path><path d="M301 474.7L177.5 508.3L263 558.3Z" fill="#9c6321" stroke="#9c6321"></path><path d="M986.5 422L950 385L976.5 458.7Z" fill="#c87f1c" stroke="#c87f1c"></path><path d="M729.5 241.7L663 302.7L690 319.3Z" fill="#704820" stroke="#704820"></path><path d="M0 925.3L68.5 974L74.5 909.3Z" fill="#452f1d" stroke="#452f1d"></path><path d="M74.5 909.3L68.5 974L109 902.3Z" fill="#9c6321" stroke="#9c6321"></path><path d="M779 312.3L803 426L883.5 369Z" fill="#b2711f" stroke="#b2711f"></path><path d="M690 319.3L663 302.7L667 378Z" fill="#b2711f" stroke="#b2711f"></path><path d="M551 304.3L467.5 331.3L495.5 373Z" fill="#704820" stroke="#704820"></path><path d="M950 385L927 371.3L869.5 456.7Z" fill="#df8e16" stroke="#df8e16"></path><path d="M1181 624L1120.5 627.7L1148.5 748.3Z" fill="#9c6321" stroke="#9c6321"></path><path d="M1120.5 627.7L1167.5 609L1093 619Z" fill="#865521" stroke="#865521"></path><path d="M551 304.3L548 412L598.5 327.3Z" fill="#704820" stroke="#704820"></path><path d="M972 1428.7L989.5 1374L944 1364Z" fill="#f59e0b" stroke="#f59e0b"></path><path d="M989.5 1374L1021.5 1350.3L973.5 1294.7Z" fill="#31241a" stroke="#31241a"></path><path d="M977.5 286.7L905.5 358.3L927 371.3Z" fill="#1c1917" stroke="#1c1917"></path><path d="M927 371.3L905.5 358.3L883.5 369Z" fill="#c87f1c" stroke="#c87f1c"></path><path d="M386 368L303.5 411L364.5 433.7Z" fill="#c87f1c" stroke="#c87f1c"></path><path d="M860.5 252.7L779 312.3L883.5 369Z" fill="#704820" stroke="#704820"></path><path d="M1208 636.7L1181 624L1148.5 748.3Z" fill="#865521" stroke="#865521"></path><path d="M544 289.7L551 304.3L612.5 269.7Z" fill="#b2711f" stroke="#b2711f"></path><path d="M68.5 974L78.5 1064.7L174 1001Z" fill="#f59e0b" stroke="#f59e0b"></path><path d="M115 1077.7L105.5 1188L169 1094.3Z" fill="#452f1d" stroke="#452f1d"></path><path d="M1259.5 1027L1177 931.3L1192 1030Z" fill="#704820" stroke="#704820"></path><path d="M1259.5 1027L1248.5 900.3L1177 931.3Z" fill="#31241a" stroke="#31241a"></path><path d="M1295.5 755.3L1232 750.3L1224 792Z" fill="#9c6321" stroke="#9c6321"></path><path d="M1224 792L1232 750.3L1154.5 775Z" fill="#865521" stroke="#865521"></path><path d="M638.5 1512.3L709 1491.7L640 1388Z" fill="#b2711f" stroke="#b2711f"></path><path d="M903.5 1401L972 1428.7L944 1364Z" fill="#5b3b1f" stroke="#5b3b1f"></path><path d="M1193 545.3L1114.5 504.3L1167.5 609Z" fill="#452f1d" stroke="#452f1d"></path><path d="M1167.5 609L1114.5 504.3L1093 619Z" fill="#1c1917" stroke="#1c1917"></path><path d="M986.5 422L993.5 348.3L950 385Z" fill="#f59e0b" stroke="#f59e0b"></path><path d="M709 1491.7L723.5 1490.7L773.5 1400Z" fill="#704820" stroke="#704820"></path><path d="M467.5 331.3L399 341.3L386 368Z" fill="#865521" stroke="#865521"></path><path d="M345.5 315.3L278 369L303.5 411Z" fill="#1c1917" stroke="#1c1917"></path><path d="M436 264.7L399 341.3L467.5 331.3Z" fill="#31241a" stroke="#31241a"></path><path d="M126 647.7L102 637L106.5 701.7Z" fill="#452f1d" stroke="#452f1d"></path><path d="M106.5 701.7L27.5 778L126 718.3Z" fill="#865521" stroke="#865521"></path><path d="M80.5 543.3L102 637L165.5 625Z" fill="#f59e0b" stroke="#f59e0b"></path><path d="M219.5 436.7L177.5 508.3L301 474.7Z" fill="#704820" stroke="#704820"></path><path d="M1208 1218L1197 1162.3L1148.5 1198Z" fill="#9c6321" stroke="#9c6321"></path><path d="M1148.5 1198L1197 1162.3L1108.5 1125.3Z" fill="#865521" stroke="#865521"></path><path d="M612.5 269.7L551 304.3L598.5 327.3Z" fill="#1c1917" stroke="#1c1917"></path><path d="M551 304.3L544 289.7L467.5 331.3Z" fill="#31241a" stroke="#31241a"></path><path d="M612.5 269.7L598.5 327.3L663 302.7Z" fill="#f59e0b" stroke="#f59e0b"></path><path d="M1232 750.3L1208 636.7L1148.5 748.3Z" fill="#31241a" stroke="#31241a"></path><path d="M1181 624L1193 545.3L1167.5 609Z" fill="#5b3b1f" stroke="#5b3b1f"></path><path d="M1234 452.7L1110.5 482.7L1114.5 504.3Z" fill="#b2711f" stroke="#b2711f"></path><path d="M1114.5 504.3L1110.5 482.7L1034.5 525.3Z" fill="#5b3b1f" stroke="#5b3b1f"></path><path d="M1110.5 482.7L1080 448.7L1034.5 525.3Z" fill="#9c6321" stroke="#9c6321"></path><path d="M950 385L993.5 348.3L927 371.3Z" fill="#9c6321" stroke="#9c6321"></path><path d="M307 1364.3L357.5 1434L313.5 1351.3Z" fill="#865521" stroke="#865521"></path><path d="M443.5 1505.7L559 1532.3L568.5 1438Z" fill="#df8e16" stroke="#df8e16"></path><path d="M581.5 1469.7L638.5 1512.3L640 1388Z" fill="#865521" stroke="#865521"></path><path d="M251 1468.7L357.5 1434L307 1364.3Z" fill="#5b3b1f" stroke="#5b3b1f"></path><path d="M52.5 1168.3L105.5 1188L115 1077.7Z" fill="#452f1d" stroke="#452f1d"></path><path d="M234.5 1280.7L237 1392L307 1364.3Z" fill="#452f1d" stroke="#452f1d"></path><path d="M844.5 1487.7L849 1479.7L773.5 1400Z" fill="#452f1d" stroke="#452f1d"></path><path d="M989.5 1374L1051 1430L1021.5 1350.3Z" fill="#b2711f" stroke="#b2711f"></path><path d="M709 1491.7L708 1515.3L723.5 1490.7Z" fill="#b2711f" stroke="#b2711f"></path><path d="M723.5 1490.7L844.5 1487.7L773.5 1400Z" fill="#5b3b1f" stroke="#5b3b1f"></path><path d="M559 1532.3L638.5 1512.3L581.5 1469.7Z" fill="#31241a" stroke="#31241a"></path><path d="M701 223L612.5 269.7L663 302.7Z" fill="#df8e16" stroke="#df8e16"></path><path d="M1299.5 1084.7L1259.5 1027L1192 1030Z" fill="#1c1917" stroke="#1c1917"></path><path d="M248 370.3L219.5 436.7L303.5 411Z" fill="#1c1917" stroke="#1c1917"></path><path d="M303.5 411L219.5 436.7L301 474.7Z" fill="#704820" stroke="#704820"></path><path d="M75.5 630L54.5 694.3L102 637Z" fill="#5b3b1f" stroke="#5b3b1f"></path><path d="M929 1531.3L972 1428.7L903.5 1401Z" fill="#5b3b1f" stroke="#5b3b1f"></path><path d="M1021.5 1350.3L1115.5 1314.3L1088 1247.7Z" fill="#b2711f" stroke="#b2711f"></path><path d="M638.5 1512.3L708 1515.3L709 1491.7Z" fill="#9c6321" stroke="#9c6321"></path><path d="M772 1544.3L844.5 1487.7L723.5 1490.7Z" fill="#1c1917" stroke="#1c1917"></path><path d="M849 1479.7L929 1531.3L903.5 1401Z" fill="#704820" stroke="#704820"></path><path d="M75.5 630L102 637L80.5 543.3Z" fill="#452f1d" stroke="#452f1d"></path><path d="M102 637L54.5 694.3L106.5 701.7Z" fill="#704820" stroke="#704820"></path><path d="M71.5 836.7L0 857.7L74.5 909.3Z" fill="#31241a" stroke="#31241a"></path><path d="M1117 1348.3L1115.5 1314.3L1021.5 1350.3Z" fill="#df8e16" stroke="#df8e16"></path><path d="M105.5 1188L122 1235L222.5 1192Z" fill="#1c1917" stroke="#1c1917"></path><path d="M122 1235L142 1264.7L222.5 1192Z" fill="#452f1d" stroke="#452f1d"></path><path d="M80.5 543.3L165.5 625L177.5 508.3Z" fill="#5b3b1f" stroke="#5b3b1f"></path><path d="M544 289.7L473.5 284.7L467.5 331.3Z" fill="#c87f1c" stroke="#c87f1c"></path><path d="M345.5 315.3L303.5 411L386 368Z" fill="#c87f1c" stroke="#c87f1c"></path><path d="M436 264.7L473.5 284.7L485.5 228Z" fill="#c87f1c" stroke="#c87f1c"></path><path d="M54.5 694.3L27.5 778L106.5 701.7Z" fill="#452f1d" stroke="#452f1d"></path><path d="M68.5 974L0 967L78.5 1064.7Z" fill="#1c1917" stroke="#1c1917"></path><path d="M345.5 315.3L386 368L399 341.3Z" fill="#1c1917" stroke="#1c1917"></path><path d="M1084 405L993.5 348.3L986.5 422Z" fill="#9c6321" stroke="#9c6321"></path><path d="M782 233.7L729.5 241.7L779 312.3Z" fill="#b2711f" stroke="#b2711f"></path><path d="M779 312.3L729.5 241.7L690 319.3Z" fill="#704820" stroke="#704820"></path><path d="M1084 405L986.5 422L1080 448.7Z" fill="#1c1917" stroke="#1c1917"></path><path d="M1245.5 626.7L1193 545.3L1208 636.7Z" fill="#b2711f" stroke="#b2711f"></path><path d="M1208 636.7L1193 545.3L1181 624Z" fill="#df8e16" stroke="#df8e16"></path><path d="M1128.5 418L1084 405L1080 448.7Z" fill="#31241a" stroke="#31241a"></path><path d="M1183.5 1288.7L1208 1218L1148.5 1198Z" fill="#865521" stroke="#865521"></path><path d="M1197 1162.3L1299.5 1084.7L1192 1030Z" fill="#c87f1c" stroke="#c87f1c"></path><path d="M443.5 1505.7L568.5 1438L437 1420Z" fill="#452f1d" stroke="#452f1d"></path><path d="M642.5 1579L719.5 1535.3L708 1515.3Z" fill="#c87f1c" stroke="#c87f1c"></path><path d="M642.5 1579L708 1515.3L638.5 1512.3Z" fill="#5b3b1f" stroke="#5b3b1f"></path><path d="M708 1515.3L719.5 1535.3L723.5 1490.7Z" fill="#9c6321" stroke="#9c6321"></path><path d="M405 1501.7L437 1420L357.5 1434Z" fill="#f59e0b" stroke="#f59e0b"></path><path d="M405 1501.7L443.5 1505.7L437 1420Z" fill="#1c1917" stroke="#1c1917"></path><path d="M186.5 1359.3L237 1392L234.5 1280.7Z" fill="#452f1d" stroke="#452f1d"></path><path d="M1232 750.3L1245.5 626.7L1208 636.7Z" fill="#c87f1c" stroke="#c87f1c"></path><path d="M1295.5 755.3L1245.5 626.7L1232 750.3Z" fill="#f59e0b" stroke="#f59e0b"></path><path d="M1295.5 755.3L1224 792L1311.5 767Z" fill="#5b3b1f" stroke="#5b3b1f"></path><path d="M1128.5 418L1080 448.7L1110.5 482.7Z" fill="#704820" stroke="#704820"></path><path d="M0 821L71.5 836.7L27.5 778Z" fill="#df8e16" stroke="#df8e16"></path><path d="M0 821L0 857.7L71.5 836.7Z" fill="#f59e0b" stroke="#f59e0b"></path><path d="M78.5 1064.7L52.5 1168.3L115 1077.7Z" fill="#865521" stroke="#865521"></path><path d="M0 821L27.5 778L0 749.3Z" fill="#c87f1c" stroke="#c87f1c"></path><path d="M0 857.7L0 925.3L74.5 909.3Z" fill="#865521" stroke="#865521"></path><path d="M105.5 1188L51.5 1265.7L122 1235Z" fill="#df8e16" stroke="#df8e16"></path><path d="M376.5 289.7L345.5 315.3L399 341.3Z" fill="#865521" stroke="#865521"></path><path d="M1051 1430L1117 1348.3L1021.5 1350.3Z" fill="#f59e0b" stroke="#f59e0b"></path><path d="M1115.5 1314.3L1183.5 1288.7L1088 1247.7Z" fill="#704820" stroke="#704820"></path><path d="M782 233.7L779 312.3L860.5 252.7Z" fill="#f59e0b" stroke="#f59e0b"></path><path d="M485.5 228L473.5 284.7L544 289.7Z" fill="#9c6321" stroke="#9c6321"></path><path d="M0 749.3L27.5 778L54.5 694.3Z" fill="#9c6321" stroke="#9c6321"></path><path d="M0 925.3L0 967L68.5 974Z" fill="#c87f1c" stroke="#c87f1c"></path><path d="M376.5 1495.7L405 1501.7L357.5 1434Z" fill="#f59e0b" stroke="#f59e0b"></path><path d="M443.5 1505.7L438.5 1528.3L559 1532.3Z" fill="#31241a" stroke="#31241a"></path><path d="M240.5 331.3L248 370.3L278 369Z" fill="#452f1d" stroke="#452f1d"></path><path d="M278 369L248 370.3L303.5 411Z" fill="#c87f1c" stroke="#c87f1c"></path><path d="M99 502.3L80.5 543.3L177.5 508.3Z" fill="#df8e16" stroke="#df8e16"></path><path d="M1315.5 895.7L1224 792L1248.5 900.3Z" fill="#31241a" stroke="#31241a"></path><path d="M0 1128.3L52.5 1168.3L78.5 1064.7Z" fill="#452f1d" stroke="#452f1d"></path><path d="M122 1235L131 1298.3L142 1264.7Z" fill="#31241a" stroke="#31241a"></path><path d="M131 1298.3L186.5 1359.3L234.5 1280.7Z" fill="#865521" stroke="#865521"></path><path d="M131 1298.3L234.5 1280.7L142 1264.7Z" fill="#c87f1c" stroke="#c87f1c"></path><path d="M301.5 1523.3L376.5 1495.7L357.5 1434Z" fill="#5b3b1f" stroke="#5b3b1f"></path><path d="M51.5 1265.7L131 1298.3L122 1235Z" fill="#31241a" stroke="#31241a"></path><path d="M436 264.7L376.5 289.7L399 341.3Z" fill="#df8e16" stroke="#df8e16"></path><path d="M302 289.7L240.5 331.3L278 369Z" fill="#704820" stroke="#704820"></path><path d="M436 264.7L467.5 331.3L473.5 284.7Z" fill="#452f1d" stroke="#452f1d"></path><path d="M566 217L544 289.7L612.5 269.7Z" fill="#704820" stroke="#704820"></path><path d="M251 1468.7L307 1364.3L237 1392Z" fill="#df8e16" stroke="#df8e16"></path><path d="M719.5 1535.3L772 1544.3L723.5 1490.7Z" fill="#b2711f" stroke="#b2711f"></path><path d="M1031.5 1475.7L1051 1430L972 1428.7Z" fill="#865521" stroke="#865521"></path><path d="M972 1428.7L1051 1430L989.5 1374Z" fill="#b2711f" stroke="#b2711f"></path><path d="M780 1615L772 1544.3L722.5 1632Z" fill="#f59e0b" stroke="#f59e0b"></path><path d="M1184 1293.7L1183.5 1288.7L1115.5 1314.3Z" fill="#704820" stroke="#704820"></path><path d="M1350 950.3L1248.5 900.3L1259.5 1027Z" fill="#865521" stroke="#865521"></path><path d="M1350 950.3L1315.5 895.7L1248.5 900.3Z" fill="#31241a" stroke="#31241a"></path><path d="M0 633.7L0 749.3L54.5 694.3Z" fill="#704820" stroke="#704820"></path><path d="M99 502.3L177.5 508.3L108 443.7Z" fill="#9c6321" stroke="#9c6321"></path><path d="M75.5 630L0 633.7L54.5 694.3Z" fill="#f59e0b" stroke="#f59e0b"></path><path d="M1160.5 1374L1184 1293.7L1115.5 1314.3Z" fill="#865521" stroke="#865521"></path><path d="M1183.5 1288.7L1266.5 1240.7L1208 1218Z" fill="#df8e16" stroke="#df8e16"></path><path d="M1311.5 1100.3L1299.5 1084.7L1197 1162.3Z" fill="#9c6321" stroke="#9c6321"></path><path d="M703.5 212L701 223L729.5 241.7Z" fill="#452f1d" stroke="#452f1d"></path><path d="M729.5 241.7L701 223L663 302.7Z" fill="#c87f1c" stroke="#c87f1c"></path><path d="M860.5 252.7L883.5 369L905.5 358.3Z" fill="#704820" stroke="#704820"></path><path d="M929 1531.3L849 1479.7L844.5 1487.7Z" fill="#b2711f" stroke="#b2711f"></path><path d="M1117 1348.3L1160.5 1374L1115.5 1314.3Z" fill="#452f1d" stroke="#452f1d"></path><path d="M399 1557.3L438.5 1528.3L405 1501.7Z" fill="#df8e16" stroke="#df8e16"></path><path d="M405 1501.7L438.5 1528.3L443.5 1505.7Z" fill="#f59e0b" stroke="#f59e0b"></path><path d="M559 1532.3L642.5 1579L638.5 1512.3Z" fill="#1c1917" stroke="#1c1917"></path><path d="M910 264.7L860.5 252.7L905.5 358.3Z" fill="#31241a" stroke="#31241a"></path><path d="M910 264.7L905.5 358.3L977.5 286.7Z" fill="#1c1917" stroke="#1c1917"></path><path d="M1234 452.7L1128.5 418L1110.5 482.7Z" fill="#9c6321" stroke="#9c6321"></path><path d="M1084 405L1090 364.3L993.5 348.3Z" fill="#b2711f" stroke="#b2711f"></path><path d="M1234 452.7L1114.5 504.3L1193 545.3Z" fill="#452f1d" stroke="#452f1d"></path><path d="M1350 834.7L1311.5 767L1224 792Z" fill="#c87f1c" stroke="#c87f1c"></path><path d="M1350 678.7L1297.5 614L1245.5 626.7Z" fill="#452f1d" stroke="#452f1d"></path><path d="M135 408L177.5 508.3L219.5 436.7Z" fill="#c87f1c" stroke="#c87f1c"></path><path d="M1311.5 1100.3L1197 1162.3L1318.5 1202Z" fill="#704820" stroke="#704820"></path><path d="M977.5 286.7L927 371.3L993.5 348.3Z" fill="#1c1917" stroke="#1c1917"></path><path d="M628.5 193L566 217L612.5 269.7Z" fill="#5b3b1f" stroke="#5b3b1f"></path><path d="M782 233.7L703.5 212L729.5 241.7Z" fill="#704820" stroke="#704820"></path><path d="M701 223L628.5 193L612.5 269.7Z" fill="#f59e0b" stroke="#f59e0b"></path><path d="M715.5 159.3L703.5 212L782 233.7Z" fill="#5b3b1f" stroke="#5b3b1f"></path><path d="M833 180L782 233.7L860.5 252.7Z" fill="#31241a" stroke="#31241a"></path><path d="M0 967L0 1096.7L78.5 1064.7Z" fill="#1c1917" stroke="#1c1917"></path><path d="M52.5 1168.3L51.5 1265.7L105.5 1188Z" fill="#5b3b1f" stroke="#5b3b1f"></path><path d="M566 217L485.5 228L544 289.7Z" fill="#c87f1c" stroke="#c87f1c"></path><path d="M384 238L302 289.7L376.5 289.7Z" fill="#704820" stroke="#704820"></path><path d="M240.5 331.3L176.5 399L248 370.3Z" fill="#704820" stroke="#704820"></path><path d="M248 370.3L176.5 399L219.5 436.7Z" fill="#704820" stroke="#704820"></path><path d="M278 369L345.5 315.3L302 289.7Z" fill="#b2711f" stroke="#b2711f"></path><path d="M1128.5 418L1090 364.3L1084 405Z" fill="#df8e16" stroke="#df8e16"></path><path d="M1066 236.7L977.5 286.7L993.5 348.3Z" fill="#b2711f" stroke="#b2711f"></path><path d="M552 1615L642.5 1579L559 1532.3Z" fill="#31241a" stroke="#31241a"></path><path d="M780 1615L854.5 1550.3L772 1544.3Z" fill="#1c1917" stroke="#1c1917"></path><path d="M772 1544.3L854.5 1550.3L844.5 1487.7Z" fill="#9c6321" stroke="#9c6321"></path><path d="M0 1096.7L0 1128.3L78.5 1064.7Z" fill="#b2711f" stroke="#b2711f"></path><path d="M1266.5 1240.7L1197 1162.3L1208 1218Z" fill="#865521" stroke="#865521"></path><path d="M1350 1024L1350 950.3L1259.5 1027Z" fill="#865521" stroke="#865521"></path><path d="M302 289.7L345.5 315.3L376.5 289.7Z" fill="#452f1d" stroke="#452f1d"></path><path d="M384 238L376.5 289.7L436 264.7Z" fill="#704820" stroke="#704820"></path><path d="M929 1531.3L1031.5 1475.7L972 1428.7Z" fill="#5b3b1f" stroke="#5b3b1f"></path><path d="M1051 1430L1160.5 1374L1117 1348.3Z" fill="#df8e16" stroke="#df8e16"></path><path d="M854.5 1550.3L929 1531.3L844.5 1487.7Z" fill="#c87f1c" stroke="#c87f1c"></path><path d="M703.5 212L628.5 193L701 223Z" fill="#f59e0b" stroke="#f59e0b"></path><path d="M566 217L577 147.3L485.5 228Z" fill="#9c6321" stroke="#9c6321"></path><path d="M78.5 470.7L80.5 543.3L99 502.3Z" fill="#31241a" stroke="#31241a"></path><path d="M0 606L75.5 630L0 566.3Z" fill="#452f1d" stroke="#452f1d"></path><path d="M0 606L0 633.7L75.5 630Z" fill="#865521" stroke="#865521"></path><path d="M1350 950.3L1350 834.7L1315.5 895.7Z" fill="#df8e16" stroke="#df8e16"></path><path d="M1315.5 895.7L1350 834.7L1224 792Z" fill="#9c6321" stroke="#9c6321"></path><path d="M1350 678.7L1245.5 626.7L1295.5 755.3Z" fill="#1c1917" stroke="#1c1917"></path><path d="M1350 1024L1259.5 1027L1350 1051.7Z" fill="#b2711f" stroke="#b2711f"></path><path d="M1151.5 1476.7L1160.5 1374L1051 1430Z" fill="#df8e16" stroke="#df8e16"></path><path d="M1184 1293.7L1266.5 1240.7L1183.5 1288.7Z" fill="#c87f1c" stroke="#c87f1c"></path><path d="M179.5 1432L237 1392L186.5 1359.3Z" fill="#452f1d" stroke="#452f1d"></path><path d="M188.5 1445.7L251 1468.7L237 1392Z" fill="#9c6321" stroke="#9c6321"></path><path d="M376.5 1495.7L399 1557.3L405 1501.7Z" fill="#b2711f" stroke="#b2711f"></path><path d="M179.5 1432L186.5 1359.3L110 1392Z" fill="#c87f1c" stroke="#c87f1c"></path><path d="M135 408L219.5 436.7L176.5 399Z" fill="#c87f1c" stroke="#c87f1c"></path><path d="M135 408L108 443.7L177.5 508.3Z" fill="#f59e0b" stroke="#f59e0b"></path><path d="M1350 717.3L1295.5 755.3L1311.5 767Z" fill="#f59e0b" stroke="#f59e0b"></path><path d="M1245.5 626.7L1280.5 572.3L1193 545.3Z" fill="#5b3b1f" stroke="#5b3b1f"></path><path d="M1128.5 418L1177 363L1090 364.3Z" fill="#c87f1c" stroke="#c87f1c"></path><path d="M1350 834.7L1350 803L1311.5 767Z" fill="#1c1917" stroke="#1c1917"></path><path d="M374.5 221L384 238L429 150.3Z" fill="#f59e0b" stroke="#f59e0b"></path><path d="M485.5 228L384 238L436 264.7Z" fill="#9c6321" stroke="#9c6321"></path><path d="M1297.5 614L1280.5 572.3L1245.5 626.7Z" fill="#9c6321" stroke="#9c6321"></path><path d="M113 363.3L135 408L176.5 399Z" fill="#704820" stroke="#704820"></path><path d="M0 1214L51.5 1265.7L52.5 1168.3Z" fill="#452f1d" stroke="#452f1d"></path><path d="M1242 1371L1266.5 1240.7L1184 1293.7Z" fill="#865521" stroke="#865521"></path><path d="M44.5 407L78.5 470.7L108 443.7Z" fill="#452f1d" stroke="#452f1d"></path><path d="M108 443.7L78.5 470.7L99 502.3Z" fill="#f59e0b" stroke="#f59e0b"></path><path d="M0 566.3L75.5 630L80.5 543.3Z" fill="#865521" stroke="#865521"></path><path d="M1350 1051.7L1299.5 1084.7L1350 1094.3Z" fill="#865521" stroke="#865521"></path><path d="M1350 1051.7L1259.5 1027L1299.5 1084.7Z" fill="#f59e0b" stroke="#f59e0b"></path><path d="M301.5 1523.3L399 1557.3L376.5 1495.7Z" fill="#9c6321" stroke="#9c6321"></path><path d="M438.5 1528.3L464.5 1583L559 1532.3Z" fill="#b2711f" stroke="#b2711f"></path><path d="M1036.5 1534.3L1066 1472.7L1031.5 1475.7Z" fill="#31241a" stroke="#31241a"></path><path d="M1031.5 1475.7L1066 1472.7L1051 1430Z" fill="#31241a" stroke="#31241a"></path><path d="M399 1557.3L464.5 1583L438.5 1528.3Z" fill="#704820" stroke="#704820"></path><path d="M110 1392L186.5 1359.3L131 1298.3Z" fill="#31241a" stroke="#31241a"></path><path d="M251 1468.7L301.5 1523.3L357.5 1434Z" fill="#b2711f" stroke="#b2711f"></path><path d="M1350 1094.3L1299.5 1084.7L1311.5 1100.3Z" fill="#5b3b1f" stroke="#5b3b1f"></path><path d="M1350 803L1350 717.3L1311.5 767Z" fill="#5b3b1f" stroke="#5b3b1f"></path><path d="M1297.5 614L1350 600L1280.5 572.3Z" fill="#704820" stroke="#704820"></path><path d="M150 1466.7L188.5 1445.7L179.5 1432Z" fill="#c87f1c" stroke="#c87f1c"></path><path d="M179.5 1432L188.5 1445.7L237 1392Z" fill="#865521" stroke="#865521"></path><path d="M295 1525.3L301.5 1523.3L251 1468.7Z" fill="#9c6321" stroke="#9c6321"></path><path d="M441 1618L508 1630.7L464.5 1583Z" fill="#31241a" stroke="#31241a"></path><path d="M1242 1371L1201 1359.3L1198 1490.7Z" fill="#865521" stroke="#865521"></path><path d="M1160.5 1374L1201 1359.3L1184 1293.7Z" fill="#1c1917" stroke="#1c1917"></path><path d="M429 150.3L384 238L485.5 228Z" fill="#9c6321" stroke="#9c6321"></path><path d="M384 238L374.5 221L302 289.7Z" fill="#9c6321" stroke="#9c6321"></path><path d="M204.5 244.7L113 363.3L240.5 331.3Z" fill="#f59e0b" stroke="#f59e0b"></path><path d="M240.5 331.3L113 363.3L176.5 399Z" fill="#c87f1c" stroke="#c87f1c"></path><path d="M977.5 216L931 222L977.5 286.7Z" fill="#31241a" stroke="#31241a"></path><path d="M977.5 286.7L931 222L910 264.7Z" fill="#865521" stroke="#865521"></path><path d="M910 264.7L904.5 210L860.5 252.7Z" fill="#5b3b1f" stroke="#5b3b1f"></path><path d="M703.5 212L715.5 159.3L628.5 193Z" fill="#865521" stroke="#865521"></path><path d="M0 1128.3L0 1214L52.5 1168.3Z" fill="#452f1d" stroke="#452f1d"></path><path d="M51.5 1265.7L76.5 1342.3L131 1298.3Z" fill="#1c1917" stroke="#1c1917"></path><path d="M931 222L904.5 210L910 264.7Z" fill="#b2711f" stroke="#b2711f"></path><path d="M0 494.7L0 566.3L80.5 543.3Z" fill="#9c6321" stroke="#9c6321"></path><path d="M279 1563L295 1525.3L251 1468.7Z" fill="#865521" stroke="#865521"></path><path d="M301.5 1523.3L317.5 1611L399 1557.3Z" fill="#452f1d" stroke="#452f1d"></path><path d="M1350 1194L1350 1094.3L1311.5 1100.3Z" fill="#452f1d" stroke="#452f1d"></path><path d="M1318.5 1202L1197 1162.3L1266.5 1240.7Z" fill="#31241a" stroke="#31241a"></path><path d="M1280.5 572.3L1234 452.7L1193 545.3Z" fill="#9c6321" stroke="#9c6321"></path><path d="M1066 236.7L977.5 216L977.5 286.7Z" fill="#704820" stroke="#704820"></path><path d="M1319.5 488.7L1234 452.7L1280.5 572.3Z" fill="#452f1d" stroke="#452f1d"></path><path d="M0 1320.3L76.5 1342.3L51.5 1265.7Z" fill="#df8e16" stroke="#df8e16"></path><path d="M508 1630.7L552 1615L464.5 1583Z" fill="#704820" stroke="#704820"></path><path d="M464.5 1583L552 1615L559 1532.3Z" fill="#c87f1c" stroke="#c87f1c"></path><path d="M722.5 1632L772 1544.3L719.5 1535.3Z" fill="#865521" stroke="#865521"></path><path d="M1350 717.3L1350 678.7L1295.5 755.3Z" fill="#452f1d" stroke="#452f1d"></path><path d="M904.5 210L833 180L860.5 252.7Z" fill="#b2711f" stroke="#b2711f"></path><path d="M785 153.3L715.5 159.3L782 233.7Z" fill="#b2711f" stroke="#b2711f"></path><path d="M628.5 193L577 147.3L566 217Z" fill="#31241a" stroke="#31241a"></path><path d="M722.5 1632L719.5 1535.3L711 1634Z" fill="#b2711f" stroke="#b2711f"></path><path d="M854.5 1550.3L878.5 1592L929 1531.3Z" fill="#c87f1c" stroke="#c87f1c"></path><path d="M929 1531.3L1036.5 1534.3L1031.5 1475.7Z" fill="#452f1d" stroke="#452f1d"></path><path d="M1350 1194L1318.5 1202L1350 1270.7Z" fill="#452f1d" stroke="#452f1d"></path><path d="M76.5 1342.3L110 1392L131 1298.3Z" fill="#b2711f" stroke="#b2711f"></path><path d="M188.5 1445.7L195.5 1564.3L251 1468.7Z" fill="#31241a" stroke="#31241a"></path><path d="M780 1615L878.5 1592L854.5 1550.3Z" fill="#704820" stroke="#704820"></path><path d="M711 1634L719.5 1535.3L642.5 1579Z" fill="#f59e0b" stroke="#f59e0b"></path><path d="M780 1615L856.5 1637.7L878.5 1592Z" fill="#5b3b1f" stroke="#5b3b1f"></path><path d="M684 1657.7L711 1634L642.5 1579Z" fill="#704820" stroke="#704820"></path><path d="M1234 452.7L1177 363L1128.5 418Z" fill="#31241a" stroke="#31241a"></path><path d="M656 101.3L577 147.3L628.5 193Z" fill="#1c1917" stroke="#1c1917"></path><path d="M845.5 105.3L785 153.3L833 180Z" fill="#b2711f" stroke="#b2711f"></path><path d="M833 180L785 153.3L782 233.7Z" fill="#31241a" stroke="#31241a"></path><path d="M715.5 159.3L656 101.3L628.5 193Z" fill="#31241a" stroke="#31241a"></path><path d="M845.5 105.3L833 180L925 110.3Z" fill="#452f1d" stroke="#452f1d"></path><path d="M1066 236.7L993.5 348.3L1090 364.3Z" fill="#452f1d" stroke="#452f1d"></path><path d="M931 222L925 110.3L904.5 210Z" fill="#1c1917" stroke="#1c1917"></path><path d="M989.5 1619L1036.5 1534.3L929 1531.3Z" fill="#865521" stroke="#865521"></path><path d="M1198 1490.7L1201 1359.3L1160.5 1374Z" fill="#31241a" stroke="#31241a"></path><path d="M441 1618L464.5 1583L399 1557.3Z" fill="#5b3b1f" stroke="#5b3b1f"></path><path d="M582.5 1668.7L684 1657.7L642.5 1579Z" fill="#1c1917" stroke="#1c1917"></path><path d="M204.5 244.7L240.5 331.3L302 289.7Z" fill="#452f1d" stroke="#452f1d"></path><path d="M135 408L113 363.3L108 443.7Z" fill="#1c1917" stroke="#1c1917"></path><path d="M78.5 470.7L0 494.7L80.5 543.3Z" fill="#31241a" stroke="#31241a"></path><path d="M317.5 1611L441 1618L399 1557.3Z" fill="#b2711f" stroke="#b2711f"></path><path d="M1203 319.3L1175.5 345.3L1177 363Z" fill="#b2711f" stroke="#b2711f"></path><path d="M1177 363L1175.5 345.3L1090 364.3Z" fill="#865521" stroke="#865521"></path><path d="M1350 678.7L1350 600L1297.5 614Z" fill="#1c1917" stroke="#1c1917"></path><path d="M1290.5 354.3L1203 319.3L1177 363Z" fill="#f59e0b" stroke="#f59e0b"></path><path d="M1151.5 1476.7L1051 1430L1066 1472.7Z" fill="#865521" stroke="#865521"></path><path d="M1201 1359.3L1242 1371L1184 1293.7Z" fill="#865521" stroke="#865521"></path><path d="M44.5 407L0 494.7L78.5 470.7Z" fill="#df8e16" stroke="#df8e16"></path><path d="M722.5 1632L777 1642.7L780 1615Z" fill="#704820" stroke="#704820"></path><path d="M878.5 1592L941 1635L929 1531.3Z" fill="#9c6321" stroke="#9c6321"></path><path d="M755.5 1705.7L777 1642.7L722.5 1632Z" fill="#5b3b1f" stroke="#5b3b1f"></path><path d="M706 1698.3L722.5 1632L711 1634Z" fill="#1c1917" stroke="#1c1917"></path><path d="M1350 1270.7L1318.5 1202L1266.5 1240.7Z" fill="#865521" stroke="#865521"></path><path d="M1318.5 1202L1350 1194L1311.5 1100.3Z" fill="#f59e0b" stroke="#f59e0b"></path><path d="M89.5 1426L150 1466.7L110 1392Z" fill="#f59e0b" stroke="#f59e0b"></path><path d="M110 1392L150 1466.7L179.5 1432Z" fill="#865521" stroke="#865521"></path><path d="M295 1525.3L279 1563L301.5 1523.3Z" fill="#5b3b1f" stroke="#5b3b1f"></path><path d="M89.5 1426L110 1392L76.5 1342.3Z" fill="#df8e16" stroke="#df8e16"></path><path d="M0 1214L0 1297.7L51.5 1265.7Z" fill="#c87f1c" stroke="#c87f1c"></path><path d="M582.5 1668.7L642.5 1579L552 1615Z" fill="#1c1917" stroke="#1c1917"></path><path d="M195.5 1564.3L279 1563L251 1468.7Z" fill="#9c6321" stroke="#9c6321"></path><path d="M1150.5 1521.3L1151.5 1476.7L1066 1472.7Z" fill="#31241a" stroke="#31241a"></path><path d="M432.5 138.3L429 150.3L465.5 104.7Z" fill="#31241a" stroke="#31241a"></path><path d="M374.5 221L305 199L302 289.7Z" fill="#5b3b1f" stroke="#5b3b1f"></path><path d="M373.5 116.3L305 199L374.5 221Z" fill="#865521" stroke="#865521"></path><path d="M775 1726.3L856.5 1637.7L777 1642.7Z" fill="#9c6321" stroke="#9c6321"></path><path d="M777 1642.7L856.5 1637.7L780 1615Z" fill="#df8e16" stroke="#df8e16"></path><path d="M1119 1552.3L1150.5 1521.3L1066 1472.7Z" fill="#b2711f" stroke="#b2711f"></path><path d="M1115.5 243.7L1066 236.7L1090 364.3Z" fill="#31241a" stroke="#31241a"></path><path d="M925 110.3L833 180L904.5 210Z" fill="#df8e16" stroke="#df8e16"></path><path d="M0 1381L89.5 1426L76.5 1342.3Z" fill="#b2711f" stroke="#b2711f"></path><path d="M304 1670.7L317.5 1611L194.5 1655.7Z" fill="#1c1917" stroke="#1c1917"></path><path d="M113 363.3L44.5 407L108 443.7Z" fill="#1c1917" stroke="#1c1917"></path><path d="M62.5 339.3L44.5 407L113 363.3Z" fill="#f59e0b" stroke="#f59e0b"></path><path d="M0 1297.7L0 1320.3L51.5 1265.7Z" fill="#c87f1c" stroke="#c87f1c"></path><path d="M1350 530.3L1319.5 488.7L1280.5 572.3Z" fill="#31241a" stroke="#31241a"></path><path d="M499.5 1684.7L582.5 1668.7L508 1630.7Z" fill="#31241a" stroke="#31241a"></path><path d="M508 1630.7L582.5 1668.7L552 1615Z" fill="#1c1917" stroke="#1c1917"></path><path d="M499.5 1684.7L508 1630.7L441 1618Z" fill="#31241a" stroke="#31241a"></path><path d="M429 150.3L373.5 116.3L374.5 221Z" fill="#452f1d" stroke="#452f1d"></path><path d="M465.5 104.7L429 150.3L485.5 228Z" fill="#9c6321" stroke="#9c6321"></path><path d="M465.5 104.7L485.5 228L577 147.3Z" fill="#b2711f" stroke="#b2711f"></path><path d="M187.5 196L204.5 244.7L305 199Z" fill="#452f1d" stroke="#452f1d"></path><path d="M305 199L204.5 244.7L302 289.7Z" fill="#452f1d" stroke="#452f1d"></path><path d="M1350 600L1350 530.3L1280.5 572.3Z" fill="#5b3b1f" stroke="#5b3b1f"></path><path d="M765.5 75.7L715.5 159.3L785 153.3Z" fill="#31241a" stroke="#31241a"></path><path d="M765.5 75.7L656 101.3L715.5 159.3Z" fill="#5b3b1f" stroke="#5b3b1f"></path><path d="M1242 1371L1319.5 1311.3L1266.5 1240.7Z" fill="#df8e16" stroke="#df8e16"></path><path d="M1350 1350.3L1319.5 1311.3L1242 1371Z" fill="#c87f1c" stroke="#c87f1c"></path><path d="M195.5 1564.3L188.5 1445.7L150 1466.7Z" fill="#1c1917" stroke="#1c1917"></path><path d="M279 1563L317.5 1611L301.5 1523.3Z" fill="#9c6321" stroke="#9c6321"></path><path d="M1290.5 354.3L1177 363L1234 452.7Z" fill="#704820" stroke="#704820"></path><path d="M1175.5 345.3L1115.5 243.7L1090 364.3Z" fill="#865521" stroke="#865521"></path><path d="M1314.5 397L1234 452.7L1319.5 488.7Z" fill="#452f1d" stroke="#452f1d"></path><path d="M1319.5 1311.3L1350 1270.7L1266.5 1240.7Z" fill="#9c6321" stroke="#9c6321"></path><path d="M656 101.3L578.5 97.3L577 147.3Z" fill="#9c6321" stroke="#9c6321"></path><path d="M1203 319.3L1115.5 243.7L1175.5 345.3Z" fill="#452f1d" stroke="#452f1d"></path><path d="M925 110.3L931 222L977.5 216Z" fill="#5b3b1f" stroke="#5b3b1f"></path><path d="M978 1683.7L941 1635L923 1742.3Z" fill="#5b3b1f" stroke="#5b3b1f"></path><path d="M856.5 1637.7L941 1635L878.5 1592Z" fill="#df8e16" stroke="#df8e16"></path><path d="M706 1698.3L711 1634L684 1657.7Z" fill="#452f1d" stroke="#452f1d"></path><path d="M99 1506.3L105.5 1475.7L56.5 1530.3Z" fill="#df8e16" stroke="#df8e16"></path><path d="M89.5 1426L105.5 1475.7L150 1466.7Z" fill="#31241a" stroke="#31241a"></path><path d="M941 1635L989.5 1619L929 1531.3Z" fill="#865521" stroke="#865521"></path><path d="M1119 1552.3L1066 1472.7L1036.5 1534.3Z" fill="#452f1d" stroke="#452f1d"></path><path d="M1151.5 1476.7L1198 1490.7L1160.5 1374Z" fill="#5b3b1f" stroke="#5b3b1f"></path><path d="M77.5 291.7L62.5 339.3L113 363.3Z" fill="#df8e16" stroke="#df8e16"></path><path d="M44.5 407L0 363L0 494.7Z" fill="#865521" stroke="#865521"></path><path d="M1350 530.3L1350 488.7L1319.5 488.7Z" fill="#1c1917" stroke="#1c1917"></path><path d="M578.5 97.3L465.5 104.7L577 147.3Z" fill="#c87f1c" stroke="#c87f1c"></path><path d="M432.5 138.3L373.5 116.3L429 150.3Z" fill="#f59e0b" stroke="#f59e0b"></path><path d="M420 1692.7L499.5 1684.7L441 1618Z" fill="#df8e16" stroke="#df8e16"></path><path d="M583.5 1740.3L706 1698.3L684 1657.7Z" fill="#31241a" stroke="#31241a"></path><path d="M702.5 1739.3L706 1698.3L583.5 1740.3Z" fill="#b2711f" stroke="#b2711f"></path><path d="M1041.5 145.3L977.5 216L1066 236.7Z" fill="#865521" stroke="#865521"></path><path d="M625.5 26.7L569 39.7L578.5 97.3Z" fill="#704820" stroke="#704820"></path><path d="M1086 1604L1119 1552.3L1036.5 1534.3Z" fill="#f59e0b" stroke="#f59e0b"></path><path d="M1218 1500.3L1198 1490.7L1150.5 1521.3Z" fill="#704820" stroke="#704820"></path><path d="M1150.5 1521.3L1198 1490.7L1151.5 1476.7Z" fill="#f59e0b" stroke="#f59e0b"></path><path d="M1319.5 1311.3L1350 1350.3L1350 1270.7Z" fill="#df8e16" stroke="#df8e16"></path><path d="M187.5 1572L195.5 1564.3L99 1506.3Z" fill="#704820" stroke="#704820"></path><path d="M317.5 1611L321.5 1651.7L441 1618Z" fill="#31241a" stroke="#31241a"></path><path d="M0 1320.3L0 1381L76.5 1342.3Z" fill="#452f1d" stroke="#452f1d"></path><path d="M99 1506.3L195.5 1564.3L150 1466.7Z" fill="#865521" stroke="#865521"></path><path d="M1133.5 189L1111 219L1115.5 243.7Z" fill="#452f1d" stroke="#452f1d"></path><path d="M1115.5 243.7L1111 219L1066 236.7Z" fill="#f59e0b" stroke="#f59e0b"></path><path d="M775 1726.3L755.5 1705.7L702.5 1739.3Z" fill="#452f1d" stroke="#452f1d"></path><path d="M706 1698.3L755.5 1705.7L722.5 1632Z" fill="#5b3b1f" stroke="#5b3b1f"></path><path d="M999.5 1687.7L1086 1604L989.5 1619Z" fill="#865521" stroke="#865521"></path><path d="M845.5 105.3L770 77.7L785 153.3Z" fill="#f59e0b" stroke="#f59e0b"></path><path d="M578.5 97.3L569 39.7L465.5 104.7Z" fill="#452f1d" stroke="#452f1d"></path><path d="M389 90.7L373.5 116.3L432.5 138.3Z" fill="#1c1917" stroke="#1c1917"></path><path d="M204.5 244.7L105 267.7L113 363.3Z" fill="#9c6321" stroke="#9c6321"></path><path d="M712.5 0L765.5 75.7L775 0Z" fill="#31241a" stroke="#31241a"></path><path d="M770 77.7L765.5 75.7L785 153.3Z" fill="#31241a" stroke="#31241a"></path><path d="M99 1506.3L150 1466.7L105.5 1475.7Z" fill="#865521" stroke="#865521"></path><path d="M195.5 1564.3L194.5 1655.7L279 1563Z" fill="#865521" stroke="#865521"></path><path d="M0 1454.7L105.5 1475.7L89.5 1426Z" fill="#c87f1c" stroke="#c87f1c"></path><path d="M962 89.7L925 110.3L977.5 216Z" fill="#1c1917" stroke="#1c1917"></path><path d="M845.5 105.3L864.5 64.7L770 77.7Z" fill="#c87f1c" stroke="#c87f1c"></path><path d="M1350 488.7L1314.5 397L1319.5 488.7Z" fill="#31241a" stroke="#31241a"></path><path d="M1193 222L1133.5 189L1115.5 243.7Z" fill="#704820" stroke="#704820"></path><path d="M108 221L105 267.7L204.5 244.7Z" fill="#c87f1c" stroke="#c87f1c"></path><path d="M304 1670.7L321.5 1651.7L317.5 1611Z" fill="#c87f1c" stroke="#c87f1c"></path><path d="M421 1703.3L512 1708.3L499.5 1684.7Z" fill="#9c6321" stroke="#9c6321"></path><path d="M499.5 1684.7L512 1708.3L582.5 1668.7Z" fill="#452f1d" stroke="#452f1d"></path><path d="M105 267.7L77.5 291.7L113 363.3Z" fill="#9c6321" stroke="#9c6321"></path><path d="M62.5 339.3L0 363L44.5 407Z" fill="#865521" stroke="#865521"></path><path d="M1240 1578L1218 1500.3L1150.5 1521.3Z" fill="#c87f1c" stroke="#c87f1c"></path><path d="M1198 1490.7L1280.5 1438L1242 1371Z" fill="#1c1917" stroke="#1c1917"></path><path d="M321.5 1651.7L420 1692.7L441 1618Z" fill="#f59e0b" stroke="#f59e0b"></path><path d="M1218 1500.3L1280.5 1438L1198 1490.7Z" fill="#9c6321" stroke="#9c6321"></path><path d="M1314.5 397L1290.5 354.3L1234 452.7Z" fill="#df8e16" stroke="#df8e16"></path><path d="M291 128.3L187.5 196L305 199Z" fill="#704820" stroke="#704820"></path><path d="M989.5 1619L1086 1604L1036.5 1534.3Z" fill="#b2711f" stroke="#b2711f"></path><path d="M1119 1552.3L1142.5 1606L1150.5 1521.3Z" fill="#452f1d" stroke="#452f1d"></path><path d="M978 1683.7L989.5 1619L941 1635Z" fill="#704820" stroke="#704820"></path><path d="M1350 1396L1350 1350.3L1242 1371Z" fill="#31241a" stroke="#31241a"></path><path d="M0 307.3L0 363L62.5 339.3Z" fill="#c87f1c" stroke="#c87f1c"></path><path d="M644 0L674 52.7L712.5 0Z" fill="#31241a" stroke="#31241a"></path><path d="M765.5 75.7L674 52.7L656 101.3Z" fill="#704820" stroke="#704820"></path><path d="M465.5 104.7L389 90.7L432.5 138.3Z" fill="#b2711f" stroke="#b2711f"></path><path d="M1053 138.3L1041.5 145.3L1111 219Z" fill="#c87f1c" stroke="#c87f1c"></path><path d="M1111 219L1041.5 145.3L1066 236.7Z" fill="#865521" stroke="#865521"></path><path d="M432.5 0L389 90.7L465.5 104.7Z" fill="#df8e16" stroke="#df8e16"></path><path d="M373.5 116.3L291 128.3L305 199Z" fill="#452f1d" stroke="#452f1d"></path><path d="M360.5 97.7L291 128.3L373.5 116.3Z" fill="#df8e16" stroke="#df8e16"></path><path d="M307.5 1728.3L421 1703.3L420 1692.7Z" fill="#31241a" stroke="#31241a"></path><path d="M420 1692.7L421 1703.3L499.5 1684.7Z" fill="#1c1917" stroke="#1c1917"></path><path d="M702.5 1739.3L755.5 1705.7L706 1698.3Z" fill="#704820" stroke="#704820"></path><path d="M755.5 1705.7L775 1726.3L777 1642.7Z" fill="#5b3b1f" stroke="#5b3b1f"></path><path d="M684 1657.7L582.5 1668.7L583.5 1740.3Z" fill="#b2711f" stroke="#b2711f"></path><path d="M389 90.7L360.5 97.7L373.5 116.3Z" fill="#c87f1c" stroke="#c87f1c"></path><path d="M583.5 1740.3L582.5 1668.7L512 1708.3Z" fill="#b2711f" stroke="#b2711f"></path><path d="M478.5 1770.3L583.5 1740.3L512 1708.3Z" fill="#31241a" stroke="#31241a"></path><path d="M1193 222L1115.5 243.7L1203 319.3Z" fill="#31241a" stroke="#31241a"></path><path d="M321.5 1651.7L307.5 1728.3L420 1692.7Z" fill="#452f1d" stroke="#452f1d"></path><path d="M194.5 1655.7L317.5 1611L279 1563Z" fill="#df8e16" stroke="#df8e16"></path><path d="M194.5 1655.7L195.5 1564.3L187.5 1572Z" fill="#b2711f" stroke="#b2711f"></path><path d="M1133.5 189L1053 138.3L1111 219Z" fill="#452f1d" stroke="#452f1d"></path><path d="M1041.5 145.3L962 89.7L977.5 216Z" fill="#df8e16" stroke="#df8e16"></path><path d="M925 110.3L864.5 64.7L845.5 105.3Z" fill="#9c6321" stroke="#9c6321"></path><path d="M962 89.7L864.5 64.7L925 110.3Z" fill="#865521" stroke="#865521"></path><path d="M625.5 26.7L656 101.3L674 52.7Z" fill="#c87f1c" stroke="#c87f1c"></path><path d="M625.5 26.7L578.5 97.3L656 101.3Z" fill="#452f1d" stroke="#452f1d"></path><path d="M351.5 0L307 87.7L360.5 97.7Z" fill="#31241a" stroke="#31241a"></path><path d="M923 1742.3L941 1635L856.5 1637.7Z" fill="#1c1917" stroke="#1c1917"></path><path d="M1053 138.3L962 89.7L1041.5 145.3Z" fill="#5b3b1f" stroke="#5b3b1f"></path><path d="M0 1381L0 1454.7L89.5 1426Z" fill="#704820" stroke="#704820"></path><path d="M99 1506.3L102 1595L187.5 1572Z" fill="#1c1917" stroke="#1c1917"></path><path d="M1225 235.7L1193 222L1203 319.3Z" fill="#1c1917" stroke="#1c1917"></path><path d="M989.5 0L974.5 43.7L1101 31.7Z" fill="#452f1d" stroke="#452f1d"></path><path d="M105 267.7L108 221L77.5 291.7Z" fill="#452f1d" stroke="#452f1d"></path><path d="M77.5 291.7L0 307.3L62.5 339.3Z" fill="#452f1d" stroke="#452f1d"></path><path d="M187.5 196L108 221L204.5 244.7Z" fill="#865521" stroke="#865521"></path><path d="M72.5 180L108 221L112 106.3Z" fill="#df8e16" stroke="#df8e16"></path><path d="M1350 1494.7L1350 1396L1280.5 1438Z" fill="#704820" stroke="#704820"></path><path d="M1280.5 1438L1350 1396L1242 1371Z" fill="#5b3b1f" stroke="#5b3b1f"></path><path d="M644 0L625.5 26.7L674 52.7Z" fill="#5b3b1f" stroke="#5b3b1f"></path><path d="M1306.5 1554.3L1285.5 1481.7L1218 1500.3Z" fill="#f59e0b" stroke="#f59e0b"></path><path d="M1218 1500.3L1285.5 1481.7L1280.5 1438Z" fill="#c87f1c" stroke="#c87f1c"></path><path d="M1142.5 1606L1119 1552.3L1086 1604Z" fill="#5b3b1f" stroke="#5b3b1f"></path><path d="M1146.5 1652.7L1142.5 1606L1086 1604Z" fill="#9c6321" stroke="#9c6321"></path><path d="M993.5 1759.3L999.5 1687.7L978 1683.7Z" fill="#b2711f" stroke="#b2711f"></path><path d="M978 1683.7L999.5 1687.7L989.5 1619Z" fill="#1c1917" stroke="#1c1917"></path><path d="M923 1742.3L856.5 1637.7L860.5 1761.3Z" fill="#f59e0b" stroke="#f59e0b"></path><path d="M1314.5 397L1350 372L1290.5 354.3Z" fill="#f59e0b" stroke="#f59e0b"></path><path d="M1281.5 232.7L1225 235.7L1203 319.3Z" fill="#452f1d" stroke="#452f1d"></path><path d="M1350 488.7L1350 372L1314.5 397Z" fill="#c87f1c" stroke="#c87f1c"></path><path d="M1281.5 232.7L1203 319.3L1290.5 354.3Z" fill="#704820" stroke="#704820"></path><path d="M1185 153.3L1160.5 136.3L1133.5 189Z" fill="#5b3b1f" stroke="#5b3b1f"></path><path d="M0 1454.7L56.5 1530.3L105.5 1475.7Z" fill="#1c1917" stroke="#1c1917"></path><path d="M360.5 97.7L307 87.7L291 128.3Z" fill="#1c1917" stroke="#1c1917"></path><path d="M291 128.3L213.5 105.3L187.5 196Z" fill="#f59e0b" stroke="#f59e0b"></path><path d="M351.5 0L360.5 97.7L389 90.7Z" fill="#1c1917" stroke="#1c1917"></path><path d="M558 0L465.5 104.7L569 39.7Z" fill="#f59e0b" stroke="#f59e0b"></path><path d="M0 259.7L0 307.3L77.5 291.7Z" fill="#865521" stroke="#865521"></path><path d="M136 1641.7L194.5 1655.7L187.5 1572Z" fill="#c87f1c" stroke="#c87f1c"></path><path d="M466.5 1800L478.5 1770.3L439 1800Z" fill="#f59e0b" stroke="#f59e0b"></path><path d="M421 1703.3L478.5 1770.3L512 1708.3Z" fill="#865521" stroke="#865521"></path><path d="M712.5 0L674 52.7L765.5 75.7Z" fill="#c87f1c" stroke="#c87f1c"></path><path d="M625.5 26.7L577.5 0L569 39.7Z" fill="#f59e0b" stroke="#f59e0b"></path><path d="M765.5 75.7L770 77.7L775 0Z" fill="#b2711f" stroke="#b2711f"></path><path d="M89.5 1625L102 1595L56.5 1530.3Z" fill="#452f1d" stroke="#452f1d"></path><path d="M56.5 1530.3L102 1595L99 1506.3Z" fill="#c87f1c" stroke="#c87f1c"></path><path d="M775 0L770 77.7L864.5 64.7Z" fill="#df8e16" stroke="#df8e16"></path><path d="M0 1454.7L0 1503.3L56.5 1530.3Z" fill="#452f1d" stroke="#452f1d"></path><path d="M860.5 1761.3L775 1726.3L819 1800Z" fill="#704820" stroke="#704820"></path><path d="M860.5 1761.3L856.5 1637.7L775 1726.3Z" fill="#452f1d" stroke="#452f1d"></path><path d="M1146.5 1652.7L1240 1578L1142.5 1606Z" fill="#1c1917" stroke="#1c1917"></path><path d="M644 0L577.5 0L625.5 26.7Z" fill="#704820" stroke="#704820"></path><path d="M762.5 1800L775 1726.3L702.5 1739.3Z" fill="#452f1d" stroke="#452f1d"></path><path d="M577.5 0L558 0L569 39.7Z" fill="#865521" stroke="#865521"></path><path d="M307.5 1728.3L321.5 1651.7L304 1670.7Z" fill="#704820" stroke="#704820"></path><path d="M583.5 1740.3L635.5 1800L702.5 1739.3Z" fill="#704820" stroke="#704820"></path><path d="M232.5 81.7L291 128.3L307 87.7Z" fill="#5b3b1f" stroke="#5b3b1f"></path><path d="M232.5 81.7L213.5 105.3L291 128.3Z" fill="#b2711f" stroke="#b2711f"></path><path d="M108 221L0 259.7L77.5 291.7Z" fill="#704820" stroke="#704820"></path><path d="M911.5 0L775 0L864.5 64.7Z" fill="#31241a" stroke="#31241a"></path><path d="M276 1723.3L307.5 1728.3L304 1670.7Z" fill="#c87f1c" stroke="#c87f1c"></path><path d="M1142.5 1606L1240 1578L1150.5 1521.3Z" fill="#5b3b1f" stroke="#5b3b1f"></path><path d="M1285.5 1481.7L1350 1494.7L1280.5 1438Z" fill="#452f1d" stroke="#452f1d"></path><path d="M1146.5 1652.7L1086 1604L1116 1694.7Z" fill="#865521" stroke="#865521"></path><path d="M1350 372L1350 314.3L1290.5 354.3Z" fill="#5b3b1f" stroke="#5b3b1f"></path><path d="M72.5 180L0 259.7L108 221Z" fill="#452f1d" stroke="#452f1d"></path><path d="M1053 138.3L974.5 43.7L962 89.7Z" fill="#df8e16" stroke="#df8e16"></path><path d="M962 89.7L911.5 0L864.5 64.7Z" fill="#f59e0b" stroke="#f59e0b"></path><path d="M1160.5 136.3L1053 138.3L1133.5 189Z" fill="#452f1d" stroke="#452f1d"></path><path d="M1133.5 189L1193 222L1185 153.3Z" fill="#31241a" stroke="#31241a"></path><path d="M1116 1694.7L1086 1604L999.5 1687.7Z" fill="#865521" stroke="#865521"></path><path d="M574 1800L635.5 1800L583.5 1740.3Z" fill="#c87f1c" stroke="#c87f1c"></path><path d="M635.5 1800L686 1800L702.5 1739.3Z" fill="#c87f1c" stroke="#c87f1c"></path><path d="M102 1595L136 1641.7L187.5 1572Z" fill="#1c1917" stroke="#1c1917"></path><path d="M194.5 1655.7L276 1723.3L304 1670.7Z" fill="#f59e0b" stroke="#f59e0b"></path><path d="M89.5 1625L136 1641.7L102 1595Z" fill="#5b3b1f" stroke="#5b3b1f"></path><path d="M1185 153.3L1193 222L1242.5 191Z" fill="#9c6321" stroke="#9c6321"></path><path d="M1242.5 191L1193 222L1225 235.7Z" fill="#452f1d" stroke="#452f1d"></path><path d="M241 0L232.5 81.7L307 87.7Z" fill="#865521" stroke="#865521"></path><path d="M112 106.3L108 221L187.5 196Z" fill="#c87f1c" stroke="#c87f1c"></path><path d="M1350 314.3L1281.5 232.7L1290.5 354.3Z" fill="#1c1917" stroke="#1c1917"></path><path d="M466.5 1800L574 1800L478.5 1770.3Z" fill="#df8e16" stroke="#df8e16"></path><path d="M478.5 1770.3L574 1800L583.5 1740.3Z" fill="#5b3b1f" stroke="#5b3b1f"></path><path d="M236 1800L276 1723.3L174.5 1772.3Z" fill="#df8e16" stroke="#df8e16"></path><path d="M439 1800L478.5 1770.3L421 1703.3Z" fill="#1c1917" stroke="#1c1917"></path><path d="M686 1800L762.5 1800L702.5 1739.3Z" fill="#31241a" stroke="#31241a"></path><path d="M977 1800L993.5 1759.3L923 1742.3Z" fill="#704820" stroke="#704820"></path><path d="M133 101.7L187.5 196L213.5 105.3Z" fill="#c87f1c" stroke="#c87f1c"></path><path d="M1281.5 232.7L1242.5 191L1225 235.7Z" fill="#1c1917" stroke="#1c1917"></path><path d="M1185 153.3L1155.5 96.7L1160.5 136.3Z" fill="#9c6321" stroke="#9c6321"></path><path d="M558 0L432.5 0L465.5 104.7Z" fill="#5b3b1f" stroke="#5b3b1f"></path><path d="M432.5 0L410 0L389 90.7Z" fill="#865521" stroke="#865521"></path><path d="M1306.5 1554.3L1218 1500.3L1240 1578Z" fill="#df8e16" stroke="#df8e16"></path><path d="M1306.5 1554.3L1350 1494.7L1285.5 1481.7Z" fill="#704820" stroke="#704820"></path><path d="M0 1634L89.5 1625L56.5 1530.3Z" fill="#f59e0b" stroke="#f59e0b"></path><path d="M136 1641.7L111 1738.3L194.5 1655.7Z" fill="#9c6321" stroke="#9c6321"></path><path d="M762.5 1800L819 1800L775 1726.3Z" fill="#c87f1c" stroke="#c87f1c"></path><path d="M1079 1729.3L1116 1694.7L999.5 1687.7Z" fill="#452f1d" stroke="#452f1d"></path><path d="M439 1800L421 1703.3L359.5 1800Z" fill="#9c6321" stroke="#9c6321"></path><path d="M960 0L911.5 0L974.5 43.7Z" fill="#df8e16" stroke="#df8e16"></path><path d="M974.5 43.7L911.5 0L962 89.7Z" fill="#b2711f" stroke="#b2711f"></path><path d="M993.5 1759.3L978 1683.7L923 1742.3Z" fill="#704820" stroke="#704820"></path><path d="M1280.5 1580L1306.5 1554.3L1240 1578Z" fill="#452f1d" stroke="#452f1d"></path><path d="M1280.5 1580L1240 1578L1283.5 1665.7Z" fill="#c87f1c" stroke="#c87f1c"></path><path d="M359.5 1800L421 1703.3L307.5 1728.3Z" fill="#df8e16" stroke="#df8e16"></path><path d="M1189 1704.7L1240 1578L1146.5 1652.7Z" fill="#865521" stroke="#865521"></path><path d="M883.5 1800L923 1742.3L860.5 1761.3Z" fill="#df8e16" stroke="#df8e16"></path><path d="M1350 314.3L1350 269.7L1281.5 232.7Z" fill="#df8e16" stroke="#df8e16"></path><path d="M1281.5 232.7L1275.5 124.3L1242.5 191Z" fill="#5b3b1f" stroke="#5b3b1f"></path><path d="M819 1800L883.5 1800L860.5 1761.3Z" fill="#9c6321" stroke="#9c6321"></path><path d="M410 0L351.5 0L389 90.7Z" fill="#b2711f" stroke="#b2711f"></path><path d="M187.5 0L133 101.7L213.5 105.3Z" fill="#865521" stroke="#865521"></path><path d="M1238 91.7L1155.5 96.7L1185 153.3Z" fill="#b2711f" stroke="#b2711f"></path><path d="M1160.5 136.3L1155.5 96.7L1053 138.3Z" fill="#c87f1c" stroke="#c87f1c"></path><path d="M1275.5 124.3L1185 153.3L1242.5 191Z" fill="#704820" stroke="#704820"></path><path d="M1057 1800L1079 1729.3L993.5 1759.3Z" fill="#c87f1c" stroke="#c87f1c"></path><path d="M993.5 1759.3L1079 1729.3L999.5 1687.7Z" fill="#b2711f" stroke="#b2711f"></path><path d="M1350 1579L1306.5 1554.3L1280.5 1580Z" fill="#31241a" stroke="#31241a"></path><path d="M989.5 0L960 0L974.5 43.7Z" fill="#865521" stroke="#865521"></path><path d="M187.5 0L213.5 105.3L232.5 81.7Z" fill="#704820" stroke="#704820"></path><path d="M72.5 180L0 160L0 259.7Z" fill="#1c1917" stroke="#1c1917"></path><path d="M0 1674.7L100.5 1664.7L89.5 1625Z" fill="#865521" stroke="#865521"></path><path d="M89.5 1625L100.5 1664.7L136 1641.7Z" fill="#df8e16" stroke="#df8e16"></path><path d="M236 1800L359.5 1800L307.5 1728.3Z" fill="#c87f1c" stroke="#c87f1c"></path><path d="M71.5 105.3L112 106.3L78.5 59.7Z" fill="#865521" stroke="#865521"></path><path d="M133 101.7L112 106.3L187.5 196Z" fill="#9c6321" stroke="#9c6321"></path><path d="M1101 31.7L974.5 43.7L1053 138.3Z" fill="#704820" stroke="#704820"></path><path d="M236 1800L307.5 1728.3L276 1723.3Z" fill="#452f1d" stroke="#452f1d"></path><path d="M1189 1704.7L1146.5 1652.7L1116 1694.7Z" fill="#1c1917" stroke="#1c1917"></path><path d="M1350 1579L1350 1547.3L1306.5 1554.3Z" fill="#1c1917" stroke="#1c1917"></path><path d="M1306.5 1554.3L1350 1547.3L1350 1494.7Z" fill="#c87f1c" stroke="#c87f1c"></path><path d="M883.5 1800L977 1800L923 1742.3Z" fill="#1c1917" stroke="#1c1917"></path><path d="M1175 1738.3L1189 1704.7L1116 1694.7Z" fill="#5b3b1f" stroke="#5b3b1f"></path><path d="M977 1800L987.5 1800L993.5 1759.3Z" fill="#704820" stroke="#704820"></path><path d="M1118 0L1101 31.7L1167.5 0Z" fill="#9c6321" stroke="#9c6321"></path><path d="M1155.5 96.7L1101 31.7L1053 138.3Z" fill="#5b3b1f" stroke="#5b3b1f"></path><path d="M1350 269.7L1350 214L1281.5 232.7Z" fill="#865521" stroke="#865521"></path><path d="M1116.5 1766.3L1116 1694.7L1079 1729.3Z" fill="#865521" stroke="#865521"></path><path d="M78.5 59.7L112 106.3L133 101.7Z" fill="#31241a" stroke="#31241a"></path><path d="M112 106.3L71.5 105.3L72.5 180Z" fill="#b2711f" stroke="#b2711f"></path><path d="M71.5 105.3L0 160L72.5 180Z" fill="#5b3b1f" stroke="#5b3b1f"></path><path d="M351.5 0L241 0L307 87.7Z" fill="#704820" stroke="#704820"></path><path d="M1350 1647.7L1350 1579L1280.5 1580Z" fill="#c87f1c" stroke="#c87f1c"></path><path d="M0 1503.3L0 1634L56.5 1530.3Z" fill="#31241a" stroke="#31241a"></path><path d="M174.5 1772.3L276 1723.3L194.5 1655.7Z" fill="#b2711f" stroke="#b2711f"></path><path d="M1350 214L1275.5 124.3L1281.5 232.7Z" fill="#31241a" stroke="#31241a"></path><path d="M1057 1800L1116.5 1766.3L1079 1729.3Z" fill="#c87f1c" stroke="#c87f1c"></path><path d="M1189 1704.7L1283.5 1665.7L1240 1578Z" fill="#f59e0b" stroke="#f59e0b"></path><path d="M1275.5 124.3L1238 91.7L1185 153.3Z" fill="#df8e16" stroke="#df8e16"></path><path d="M987.5 1800L1057 1800L993.5 1759.3Z" fill="#b2711f" stroke="#b2711f"></path><path d="M1131.5 1800L1175 1738.3L1116.5 1766.3Z" fill="#c87f1c" stroke="#c87f1c"></path><path d="M1116.5 1766.3L1175 1738.3L1116 1694.7Z" fill="#1c1917" stroke="#1c1917"></path><path d="M174.5 1772.3L194.5 1655.7L111 1738.3Z" fill="#704820" stroke="#704820"></path><path d="M1289.5 1730.3L1283.5 1665.7L1189 1704.7Z" fill="#5b3b1f" stroke="#5b3b1f"></path><path d="M111 1738.3L136 1641.7L100.5 1664.7Z" fill="#5b3b1f" stroke="#5b3b1f"></path><path d="M241 0L187.5 0L232.5 81.7Z" fill="#df8e16" stroke="#df8e16"></path><path d="M71.5 105.3L0 96.3L0 160Z" fill="#31241a" stroke="#31241a"></path><path d="M39.5 1744.3L111 1738.3L100.5 1664.7Z" fill="#df8e16" stroke="#df8e16"></path><path d="M1167.5 0L1101 31.7L1155.5 96.7Z" fill="#9c6321" stroke="#9c6321"></path><path d="M1101 31.7L1118 0L989.5 0Z" fill="#b2711f" stroke="#b2711f"></path><path d="M102 0L78.5 59.7L133 101.7Z" fill="#5b3b1f" stroke="#5b3b1f"></path><path d="M124 1800L211.5 1800L174.5 1772.3Z" fill="#704820" stroke="#704820"></path><path d="M174.5 1772.3L211.5 1800L236 1800Z" fill="#865521" stroke="#865521"></path><path d="M0 1634L0 1674.7L89.5 1625Z" fill="#452f1d" stroke="#452f1d"></path><path d="M111 1738.3L124 1800L174.5 1772.3Z" fill="#452f1d" stroke="#452f1d"></path><path d="M0 84.7L71.5 105.3L78.5 59.7Z" fill="#452f1d" stroke="#452f1d"></path><path d="M0 84.7L0 96.3L71.5 105.3Z" fill="#b2711f" stroke="#b2711f"></path><path d="M1057 1800L1131.5 1800L1116.5 1766.3Z" fill="#865521" stroke="#865521"></path><path d="M1175 1738.3L1289.5 1730.3L1189 1704.7Z" fill="#9c6321" stroke="#9c6321"></path><path d="M1236 0L1167.5 0L1238 91.7Z" fill="#f59e0b" stroke="#f59e0b"></path><path d="M1238 91.7L1167.5 0L1155.5 96.7Z" fill="#9c6321" stroke="#9c6321"></path><path d="M1350 1728.3L1350 1647.7L1283.5 1665.7Z" fill="#704820" stroke="#704820"></path><path d="M1283.5 1665.7L1350 1647.7L1280.5 1580Z" fill="#df8e16" stroke="#df8e16"></path><path d="M33.5 0L0 84.7L78.5 59.7Z" fill="#c87f1c" stroke="#c87f1c"></path><path d="M1350 101.3L1304.5 79.7L1275.5 124.3Z" fill="#5b3b1f" stroke="#5b3b1f"></path><path d="M1275.5 124.3L1304.5 79.7L1238 91.7Z" fill="#5b3b1f" stroke="#5b3b1f"></path><path d="M187.5 0L102 0L133 101.7Z" fill="#5b3b1f" stroke="#5b3b1f"></path><path d="M0 1674.7L39.5 1744.3L100.5 1664.7Z" fill="#5b3b1f" stroke="#5b3b1f"></path><path d="M66.5 1800L124 1800L111 1738.3Z" fill="#df8e16" stroke="#df8e16"></path><path d="M1131.5 1800L1178 1800L1175 1738.3Z" fill="#865521" stroke="#865521"></path><path d="M1282.5 1800L1289.5 1730.3L1175 1738.3Z" fill="#452f1d" stroke="#452f1d"></path><path d="M1350 214L1350 101.3L1275.5 124.3Z" fill="#f59e0b" stroke="#f59e0b"></path><path d="M1275.5 0L1236 0L1238 91.7Z" fill="#704820" stroke="#704820"></path><path d="M1275.5 0L1238 91.7L1304.5 79.7Z" fill="#c87f1c" stroke="#c87f1c"></path><path d="M0 1800L66.5 1800L39.5 1744.3Z" fill="#b2711f" stroke="#b2711f"></path><path d="M39.5 1744.3L66.5 1800L111 1738.3Z" fill="#704820" stroke="#704820"></path><path d="M0 1674.7L0 1757.3L39.5 1744.3Z" fill="#b2711f" stroke="#b2711f"></path><path d="M102 0L33.5 0L78.5 59.7Z" fill="#5b3b1f" stroke="#5b3b1f"></path><path d="M1350 51.7L1275.5 0L1304.5 79.7Z" fill="#865521" stroke="#865521"></path><path d="M1289.5 1730.3L1350 1728.3L1283.5 1665.7Z" fill="#df8e16" stroke="#df8e16"></path><path d="M1350 1800L1350 1728.3L1289.5 1730.3Z" fill="#df8e16" stroke="#df8e16"></path><path d="M1350 101.3L1350 51.7L1304.5 79.7Z" fill="#452f1d" stroke="#452f1d"></path><path d="M33.5 0L0 0L0 84.7Z" fill="#865521" stroke="#865521"></path><path d="M1178 1800L1282.5 1800L1175 1738.3Z" fill="#31241a" stroke="#31241a"></path><path d="M0 1757.3L0 1800L39.5 1744.3Z" fill="#1c1917" stroke="#1c1917"></path><path d="M1350 51.7L1350 0L1275.5 0Z" fill="#9c6321" stroke="#9c6321"></path><path d="M1282.5 1800L1350 1800L1289.5 1730.3Z" fill="#704820" stroke="#704820"></path></g></svg>